<svg width="187" height="178" viewBox="0 0 187 178" fill="none" xmlns="http://www.w3.org/2000/svg">
<path d="M117.872 161.749L126.434 166.805C127.895 167.597 129.653 166.549 129.676 164.871V132.062C129.699 129.872 128.58 127.821 126.708 126.703L97.3014 109.18C96.9133 108.947 96.6165 108.621 96.4339 108.224C94.4476 104.03 82.9179 79.5399 80.0868 74.0174C77.4156 68.7978 74.1051 65.3025 73.2375 64.4403C73.1005 64.3005 72.9635 64.184 72.8037 64.0908L23.8539 34.9169C22.9407 34.381 21.7763 34.5674 21.0913 35.383L3.55708 55.7721C1.91324 57.6828 1 60.1528 1 62.716V83.3614C1 83.3614 1 91.4937 9.10503 95.0589C9.10503 95.0589 8.51142 94.0802 8.28311 93.6841C6.79909 90.9578 12.2329 75.7417 26.6621 83.6876C43.3745 92.8918 43.6484 114.493 43.6484 114.493L83.9224 139.635C81.2512 132.691 89.1051 118.803 104.151 128.963C120.589 140.078 117.872 161.749 117.872 161.749ZM117.872 161.749L110.133 166.362" stroke="#BAE6FD" stroke-width="1.97458" stroke-linecap="round" stroke-linejoin="round"/>
<path d="M22.3018 34.6142L78.5575 1.31592L129.037 30.2568C129.037 30.2568 132.987 32.1209 136.503 40.0435C140.019 47.9661 153.01 75.439 153.01 75.439L183.512 93.3581C185.064 94.2668 186.001 95.9446 186.001 97.7621V131.2C186.001 132.598 185.27 133.88 184.083 134.556L128.375 167.085" stroke="#BAE6FD" stroke-width="1.97458" stroke-linecap="round" stroke-linejoin="round"/>
<path d="M153.01 75.439L96.457 108.225" stroke="#BAE6FD" stroke-width="1.97458" stroke-linecap="round" stroke-linejoin="round"/>
<path d="M185.84 96.457L129.287 129.709" stroke="#BAE6FD" stroke-width="1.97458" stroke-linecap="round" stroke-linejoin="round"/>
<path d="M133.488 34.6143L76.3877 68.0757" stroke="#BAE6FD" stroke-width="1.97458" stroke-linecap="round" stroke-linejoin="round"/>
<path d="M33.0094 81.987L27.5527 78.748" stroke="#BAE6FD" stroke-width="1.97458" stroke-linecap="round" stroke-linejoin="round"/>
<path d="M63.1921 100.046L54.8359 95.0596" stroke="#BAE6FD" stroke-width="1.97458" stroke-linecap="round" stroke-linejoin="round"/>
<path d="M88.3511 68.3089L127.689 45.3566C129.972 44.0284 132.872 44.9138 134.059 47.2906L145.178 69.3341C146.251 71.4779 145.52 74.0877 143.488 75.3227L103.374 99.3935C101.091 100.768 98.1457 99.8828 96.9356 97.4594L86.1594 75.7654C84.8352 73.0857 85.7941 69.8002 88.3511 68.3089V68.3089Z" stroke="#BAE6FD" stroke-width="1.97458" stroke-linecap="round" stroke-linejoin="round"/>
<path d="M96.457 94.733L120.293 81.0082C121.229 80.4723 121.982 79.68 122.484 78.7246L125.589 72.8526C126.092 71.9205 126.822 71.1282 127.736 70.5923L136.32 65.5358C137.599 64.7668 139.128 64.5571 140.589 64.9532L143.329 65.6989" stroke="#BAE6FD" stroke-width="1.97458" stroke-linecap="round" stroke-linejoin="round"/>
<path d="M150.019 69.0546L155.27 65.9322V58.7319L148.375 62.7631" stroke="#BAE6FD" stroke-width="1.97458" stroke-linecap="round" stroke-linejoin="round"/>
<path d="M90.68 104.38L80.543 110.462V102.796L87.301 98.7646V106.384" stroke="#BAE6FD" stroke-width="1.97458" stroke-linecap="round" stroke-linejoin="round"/>
<path d="M23.7166 86.9964C12.2554 83.0351 11.502 92.4024 11.502 96.9696C11.502 104.822 16.3878 115.401 23.5568 120.248C27.3924 122.835 38.3969 127.611 39.4243 113.77C40.2691 102.352 30.7485 89.4198 23.7166 86.9964Z" stroke="#BAE6FD" stroke-width="1.97458" stroke-miterlimit="10"/>
<path d="M9.10547 95.0587L11.5027 93.6606" stroke="#BAE6FD" stroke-width="1.97458" stroke-miterlimit="10"/>
<path d="M35.1777 122.462L44.9494 116.031" stroke="#BAE6FD" stroke-width="1.97458" stroke-miterlimit="10"/>
<path d="M23.8992 94.1738C17.9174 92.1232 17.5293 96.9933 17.5293 99.3701C17.5293 103.471 20.0864 108.994 23.8078 111.51C25.817 112.862 31.5476 115.355 32.0955 108.132C32.5293 102.166 27.575 95.4321 23.8992 94.1738V94.1738Z" stroke="#BAE6FD" stroke-width="1.97458" stroke-miterlimit="10"/>
<path d="M25.6342 96.0379C21.9812 94.7796 21.7529 97.7622 21.7529 99.2069C21.7529 101.7 23.3054 105.056 25.5885 106.594C26.7986 107.409 30.3146 108.924 30.6342 104.543C30.9082 100.908 27.8717 96.8068 25.657 96.0379H25.6342Z" stroke="#BAE6FD" stroke-width="1.97458" stroke-miterlimit="10"/>
<path d="M98.6707 130.874C87.2095 126.913 86.4561 136.28 86.4561 140.847C86.4561 148.7 91.3419 159.279 98.5109 164.126C102.346 166.712 113.351 171.489 114.378 157.648C115.223 146.23 105.703 133.297 98.6707 130.874Z" stroke="#BAE6FD" stroke-width="1.97458" stroke-miterlimit="10"/>
<path d="M98.8542 138.051C92.8725 136 92.4844 140.87 92.4844 143.247C92.4844 147.348 95.0415 152.871 98.7629 155.387C100.772 156.739 106.503 159.232 107.051 152.009C107.484 146.043 102.53 139.309 98.8542 138.051V138.051Z" stroke="#BAE6FD" stroke-width="1.97458" stroke-miterlimit="10"/>
<path d="M100.681 139.962C96.7082 138.587 96.457 141.826 96.457 143.411C96.457 146.137 98.1465 149.772 100.635 151.45C101.959 152.358 105.772 153.99 106.115 149.213C106.411 145.275 103.124 140.801 100.681 139.962V139.962Z" stroke="#BAE6FD" stroke-width="1.97458" stroke-miterlimit="10"/>
<path d="M83.9229 139.636L86.8909 137.026" stroke="#BAE6FD" stroke-width="1.97458" stroke-miterlimit="10"/>
<path d="M117.553 151.636L129.699 158.347L185.84 124.769" stroke="#BAE6FD" stroke-width="1.97458" stroke-miterlimit="10"/>
<path d="M145.681 130.898L169.06 117.08" stroke="#BAE6FD" stroke-width="1.97458" stroke-miterlimit="10" stroke-linecap="round"/>
<path d="M145.681 135.605L169.06 121.787" stroke="#BAE6FD" stroke-width="1.97458" stroke-miterlimit="10" stroke-linecap="round"/>
<path d="M145.886 140.614L169.265 126.796" stroke="#BAE6FD" stroke-width="1.97458" stroke-miterlimit="10" stroke-linecap="round"/>
<path d="M137.759 135.534C141.48 134.253 141.709 137.282 141.709 138.773C141.709 141.313 140.133 144.738 137.804 146.3C136.572 147.139 133.01 148.676 132.667 144.203C132.393 140.498 135.476 136.326 137.759 135.534V135.534Z" stroke="#BAE6FD" stroke-width="1.97458" stroke-miterlimit="10"/>
<path d="M178.443 111.371C182.165 110.089 182.393 113.118 182.393 114.61C182.393 117.15 180.818 120.575 178.489 122.136C177.256 122.975 173.694 124.513 173.352 120.039C173.078 116.334 176.16 112.163 178.443 111.371V111.371Z" stroke="#BAE6FD" stroke-width="1.97458" stroke-miterlimit="10"/>
<path d="M29.7441 51.1586V67.8427C29.7441 70.103 30.9085 72.1768 32.8263 73.3186L46.662 81.6374C48.3058 82.6394 50.4063 81.4044 50.4063 79.447V62.6464C50.4063 60.3861 49.219 58.289 47.3012 57.1472L33.4884 48.9682C31.8446 47.9896 29.767 49.2013 29.767 51.1586H29.7441Z" stroke="#BAE6FD" stroke-width="1.97458" stroke-linecap="round" stroke-linejoin="round"/>
<path d="M85.6118 99.6964C85.6118 99.6964 74.9725 77.5131 72.7808 73.645C70.589 69.7769 67.6666 68.4254 67.6666 68.4254L57.8492 62.8097C56.8903 62.2504 55.7031 62.9728 55.7031 64.0913V83.9677C55.7031 85.4823 56.5022 86.9037 57.7808 87.6727L80.9086 101.63" stroke="#BAE6FD" stroke-width="1.97458" stroke-linecap="round" stroke-linejoin="round"/>
<path d="M25.795 47.9661V64.8833C25.795 66.6309 23.9457 67.7494 22.4388 66.8872L12.1192 61.0152C10.6808 60.1996 10.521 58.149 11.7996 57.1005L24.1055 47.1273C24.7904 46.568 25.795 47.0807 25.795 47.9428V47.9661Z" stroke="#BAE6FD" stroke-width="1.97458" stroke-linecap="round" stroke-linejoin="round"/>
<path d="M46.6621 132.823V92.684L5.56618 68.7114V109.807L46.6621 132.823Z" stroke="#E2C8FE" stroke-width="2.96187" stroke-linejoin="round"/>
<path d="M40.9541 90.4009V76.9709L4.4244 56.1543V68.9128L40.9541 90.4009Z" fill="#E2C8FE" stroke="#E2C8FE" stroke-width="0.987289" stroke-linejoin="round"/>
<path d="M19.8409 67.0381C19.9216 67.0834 19.9842 67.1356 20.0285 67.1948C20.0727 67.2501 20.1057 67.3259 20.1273 67.422C20.1522 67.52 20.166 67.65 20.1687 67.812C20.1719 68.0009 20.159 68.1313 20.1302 68.203L18.1202 72.739C18.0881 72.8088 18.0303 72.8414 17.9469 72.8367C17.8669 72.8377 17.7697 72.8062 17.6553 72.7422C17.5577 72.6875 17.4616 72.6203 17.3669 72.5406C17.2148 72.4172 17.0893 72.2858 16.9903 72.1463C16.8946 72.0048 16.8458 71.8763 16.8439 71.7606C16.8431 71.7143 16.8524 71.6679 16.8716 71.6214L18.6855 67.6231L16.8382 66.5886L16.8566 67.6991C16.8588 67.8341 16.8217 67.9069 16.7452 67.9175C16.6687 67.9282 16.5261 67.8751 16.3175 67.7582C16.1022 67.6376 15.9452 67.523 15.8468 67.4144C15.7482 67.3019 15.6979 67.1801 15.6957 67.049L15.6629 65.0708C15.6607 64.9359 15.6843 64.8536 15.7338 64.824C15.7867 64.7963 15.8703 64.8145 15.9847 64.8786L19.8409 67.0381ZM26.039 70.5092C26.1197 70.5544 26.1823 70.6067 26.2266 70.6659C26.2708 70.7212 26.3038 70.797 26.3253 70.8931C26.3503 70.9911 26.3641 71.1211 26.3668 71.2831C26.3699 71.472 26.3571 71.6023 26.3283 71.6741L24.3183 76.2101C24.2862 76.2799 24.2284 76.3125 24.1449 76.3078C24.0649 76.3088 23.9678 76.2773 23.8533 76.2133C23.7558 76.1586 23.6596 76.0914 23.565 76.0117C23.4129 75.8883 23.2874 75.7569 23.1884 75.6174C23.0927 75.4759 23.0439 75.3474 23.042 75.2317C23.0412 75.1854 23.0505 75.139 23.0697 75.0925L24.8836 71.0942L23.0362 70.0597L23.0547 71.1702C23.0569 71.3052 23.0198 71.378 22.9433 71.3886C22.8668 71.3993 22.7242 71.3462 22.5156 71.2293C22.3002 71.1087 22.1433 70.9941 22.0449 70.8855C21.9463 70.773 21.896 70.6512 21.8938 70.5201L21.861 68.5419C21.8587 68.407 21.8824 68.3247 21.9319 68.2951C21.9848 68.2674 22.0684 68.2856 22.1828 68.3497L26.039 70.5092ZM28.7372 71.8942C28.9862 72.0337 29.2178 72.2341 29.4322 72.4955C29.6465 72.7569 29.818 73.0439 29.9465 73.3565C30.075 73.6692 30.1417 73.9682 30.1464 74.2536C30.1511 74.5389 30.0933 74.7682 29.9728 74.9414C29.8523 75.1146 29.6873 75.2132 29.4776 75.2371C29.268 75.2611 29.0387 75.2033 28.7897 75.0639C28.5407 74.9245 28.309 74.724 28.0947 74.4626C27.8803 74.2013 27.7089 73.9142 27.5804 73.6016C27.4518 73.2889 27.3852 72.9899 27.3805 72.7046C27.3757 72.4192 27.4336 72.1899 27.5541 72.0167C27.6746 71.8435 27.8396 71.7449 28.0492 71.721C28.2588 71.697 28.4882 71.7548 28.7372 71.8942ZM32.0855 74.4914C32.1515 74.452 32.2165 74.4502 32.2804 74.486C32.3275 74.5123 32.3801 74.5647 32.438 74.643C32.4993 74.7193 32.5728 74.8312 32.6586 74.9786C32.8096 75.235 32.8859 75.4172 32.8877 75.5252C32.8889 75.5984 32.8532 75.6568 32.7806 75.7001L28.4341 78.0451C28.3581 78.0828 28.2914 78.0856 28.2342 78.0535C28.1871 78.0271 28.1329 77.9758 28.0717 77.8994C28.0137 77.8211 27.9435 77.7092 27.8611 77.5638C27.7066 77.2939 27.6285 77.1069 27.6268 77.0028C27.6257 76.9372 27.6631 76.8818 27.739 76.8364L32.0855 74.4914ZM28.7551 72.9758C28.634 72.908 28.5305 72.8997 28.4447 72.951C28.3621 73.0003 28.322 73.0943 28.3243 73.2331C28.3266 73.372 28.3707 73.5151 28.4564 73.6624C28.5455 73.8078 28.6506 73.9144 28.7718 73.9823C28.8929 74.0501 28.9947 74.0594 29.0773 74.0101C29.1631 73.9588 29.2049 73.8638 29.2025 73.725C29.2002 73.5862 29.1546 73.444 29.0655 73.2987C28.9797 73.1513 28.8762 73.0437 28.7551 72.9758ZM31.7301 77.4842C31.9791 77.6236 32.2108 77.8241 32.4251 78.0855C32.6395 78.3469 32.8109 78.6339 32.9394 78.9465C33.068 79.2592 33.1346 79.5582 33.1393 79.8435C33.1441 80.1289 33.0862 80.3582 32.9657 80.5314C32.8453 80.7046 32.6802 80.8032 32.4706 80.8271C32.261 80.8511 32.0317 80.7933 31.7827 80.6539C31.5337 80.5144 31.302 80.314 31.0876 80.0526C30.8733 79.7912 30.7018 79.5042 30.5733 79.1916C30.4448 78.8789 30.3781 78.5799 30.3734 78.2945C30.3687 78.0092 30.4266 77.7799 30.547 77.6067C30.6675 77.4335 30.8325 77.3349 31.0422 77.311C31.2518 77.287 31.4811 77.3448 31.7301 77.4842ZM31.748 78.5658C31.6269 78.498 31.5234 78.4897 31.4376 78.541C31.3551 78.5903 31.315 78.6843 31.3173 78.8231C31.3196 78.9619 31.3636 79.105 31.4494 79.2524C31.5385 79.3978 31.6436 79.5044 31.7647 79.5723C31.8859 79.6401 31.9877 79.6494 32.0702 79.6001C32.156 79.5488 32.1978 79.4538 32.1955 79.315C32.1932 79.1761 32.1475 79.034 32.0584 78.8886C31.9726 78.7413 31.8692 78.6337 31.748 78.5658Z" fill="white"/>
<path d="M122.005 176.202V136.063L80.909 112.091V153.187L122.005 176.202Z" stroke="#E2C8FE" stroke-width="2.96187" stroke-linejoin="round"/>
<path d="M116.297 133.78V120.35L79.7672 99.5337V112.292L116.297 133.78Z" fill="#E2C8FE" stroke="#E2C8FE" stroke-width="0.987289" stroke-linejoin="round"/>
<path d="M93.1475 109.151C93.558 109.381 93.9195 109.669 94.2319 110.016C94.5444 110.363 94.7855 110.733 94.9554 111.126C95.1252 111.515 95.2131 111.889 95.219 112.248C95.2249 112.602 95.1575 112.861 95.0168 113.023C94.8761 113.181 94.6773 113.255 94.4205 113.244C94.7424 113.558 94.9947 113.902 95.1776 114.276C95.3639 114.651 95.4604 115.046 95.4673 115.458C95.4743 115.882 95.3862 116.198 95.2029 116.405C95.023 116.609 94.7661 116.701 94.4324 116.678C94.0987 116.655 93.7097 116.52 93.2655 116.271C92.8214 116.022 92.4297 115.721 92.0904 115.366C91.7512 115.012 91.4848 114.628 91.2913 114.214C91.101 113.798 91.0024 113.378 90.9953 112.954C90.9884 112.537 91.0719 112.244 91.2458 112.074C91.4196 111.9 91.6669 111.836 91.9877 111.882C91.7264 111.606 91.5214 111.306 91.3727 110.982C91.224 110.658 91.1467 110.318 91.1408 109.964C91.1348 109.605 91.2118 109.324 91.3718 109.119C91.5317 108.91 91.765 108.806 92.0717 108.806C92.3784 108.806 92.737 108.921 93.1475 109.151ZM93.1684 110.412C92.9295 110.278 92.7406 110.247 92.6018 110.318C92.4629 110.385 92.3954 110.54 92.3995 110.783C92.4035 111.026 92.4757 111.26 92.6161 111.483C92.7565 111.707 92.9495 111.888 93.1951 112.025C93.4408 112.163 93.6314 112.197 93.7669 112.128C93.9024 112.059 93.9682 111.902 93.9641 111.659C93.9601 111.417 93.8862 111.182 93.7425 110.957C93.5986 110.727 93.4073 110.545 93.1684 110.412ZM93.2137 113.147C92.9244 112.985 92.7037 112.946 92.5517 113.029C92.3998 113.112 92.3261 113.296 92.3309 113.581C92.3356 113.867 92.4167 114.136 92.5743 114.388C92.7318 114.641 92.9553 114.848 93.2446 115.01C93.534 115.172 93.7547 115.213 93.9068 115.134C94.0588 115.055 94.1324 114.873 94.1277 114.588C94.123 114.302 94.0418 114.031 93.8842 113.775C93.7266 113.519 93.5031 113.31 93.2137 113.147ZM99.2749 112.582C99.7157 112.829 100.092 113.128 100.405 113.479C100.721 113.827 100.96 114.204 101.124 114.609C101.29 115.016 101.377 115.431 101.384 115.855C101.391 116.245 101.319 116.56 101.17 116.801C101.024 117.044 100.788 117.255 100.46 117.435L99.1078 118.185L100.531 118.982L100.522 118.45C100.52 118.315 100.557 118.242 100.634 118.231C100.71 118.221 100.853 118.274 101.061 118.39C101.277 118.511 101.434 118.628 101.532 118.74C101.631 118.849 101.681 118.969 101.683 119.1L101.706 120.499C101.709 120.631 101.685 120.713 101.635 120.746C101.586 120.776 101.502 120.758 101.385 120.692L97.4779 118.504C97.3972 118.459 97.3347 118.408 97.2904 118.353C97.2461 118.294 97.2115 118.215 97.1865 118.117C97.1649 118.021 97.1528 117.892 97.1501 117.73C97.1475 117.576 97.154 117.465 97.1696 117.397C97.1851 117.329 97.216 117.284 97.2623 117.26L99.388 116.084C99.6621 115.932 99.8498 115.79 99.951 115.66C100.056 115.531 100.106 115.367 100.103 115.166C100.098 114.9 100.028 114.648 99.8903 114.411C99.753 114.174 99.5565 113.983 99.3008 113.84C99.008 113.676 98.7183 113.594 98.4316 113.594L98.445 114.404C98.4473 114.539 98.4101 114.612 98.3336 114.622C98.2571 114.633 98.1146 114.58 97.906 114.463C97.6906 114.342 97.5337 114.228 97.4352 114.119C97.3367 114.007 97.2863 113.885 97.2842 113.754L97.2614 112.383C97.2588 112.225 97.3291 112.142 97.4723 112.134C97.7687 112.113 98.0708 112.143 98.3789 112.224C98.6868 112.301 98.9855 112.42 99.2749 112.582ZM104.08 115.273C104.329 115.413 104.561 115.613 104.775 115.874C104.989 116.136 105.161 116.423 105.289 116.735C105.418 117.048 105.484 117.347 105.489 117.632C105.494 117.918 105.436 118.147 105.316 118.32C105.195 118.494 105.03 118.592 104.82 118.616C104.611 118.64 104.381 118.582 104.132 118.443C103.883 118.303 103.652 118.103 103.437 117.842C103.223 117.58 103.052 117.293 102.923 116.98C102.795 116.668 102.728 116.369 102.723 116.083C102.719 115.798 102.776 115.569 102.897 115.396C103.017 115.222 103.182 115.124 103.392 115.1C103.602 115.076 103.831 115.134 104.08 115.273ZM107.428 117.87C107.494 117.831 107.559 117.829 107.623 117.865C107.67 117.891 107.723 117.944 107.781 118.022C107.842 118.098 107.916 118.21 108.001 118.357C108.152 118.614 108.229 118.796 108.23 118.904C108.232 118.977 108.196 119.036 108.123 119.079L103.777 121.424C103.701 121.462 103.634 121.464 103.577 121.432C103.53 121.406 103.476 121.355 103.414 121.278C103.356 121.2 103.286 121.088 103.204 120.943C103.049 120.673 102.971 120.486 102.97 120.382C102.968 120.316 103.006 120.261 103.082 120.215L107.428 117.87ZM104.098 116.355C103.977 116.287 103.873 116.279 103.787 116.33C103.705 116.379 103.665 116.473 103.667 116.612C103.669 116.751 103.713 116.894 103.799 117.041C103.888 117.187 103.993 117.293 104.115 117.361C104.236 117.429 104.338 117.438 104.42 117.389C104.506 117.338 104.548 117.243 104.545 117.104C104.543 116.965 104.497 116.823 104.408 116.678C104.322 116.53 104.219 116.423 104.098 116.355ZM107.073 120.863C107.322 121.003 107.554 121.203 107.768 121.464C107.982 121.726 108.154 122.013 108.282 122.325C108.411 122.638 108.477 122.937 108.482 123.222C108.487 123.508 108.429 123.737 108.309 123.91C108.188 124.083 108.023 124.182 107.813 124.206C107.604 124.23 107.374 124.172 107.125 124.033C106.876 123.893 106.645 123.693 106.43 123.432C106.216 123.17 106.045 122.883 105.916 122.57C105.788 122.258 105.721 121.959 105.716 121.673C105.711 121.388 105.769 121.159 105.89 120.986C106.01 120.812 106.175 120.714 106.385 120.69C106.595 120.666 106.824 120.724 107.073 120.863ZM107.091 121.945C106.97 121.877 106.866 121.869 106.78 121.92C106.698 121.969 106.658 122.063 106.66 122.202C106.662 122.341 106.706 122.484 106.792 122.631C106.881 122.777 106.986 122.883 107.107 122.951C107.229 123.019 107.33 123.028 107.413 122.979C107.499 122.928 107.541 122.833 107.538 122.694C107.536 122.555 107.49 122.413 107.401 122.268C107.315 122.12 107.212 122.013 107.091 121.945Z" fill="white"/>
</svg>
