<svg width="129" height="177" viewBox="0 0 129 177" fill="none" xmlns="http://www.w3.org/2000/svg">
<path d="M68.3118 57.7364C72.8317 56.4688 77.9183 55.7661 83.3017 55.7661C102.177 55.7661 117.491 64.5289 117.491 75.3445C117.491 86.1602 102.191 94.9229 83.3017 94.9229C64.4125 94.9229 49.1123 86.1602 49.1123 75.3445C49.1123 69.3925 54.1584 63.84 61.4847 60.2577" stroke="#C4B5FD" stroke-width="1.61064" stroke-miterlimit="10"/>
<path d="M83.2746 98.0917C103.729 98.0917 120.311 87.9814 120.311 75.5097C120.311 63.038 103.729 52.9277 83.2746 52.9277C62.82 52.9277 46.2383 63.038 46.2383 75.5097C46.2383 87.9814 62.82 98.0917 83.2746 98.0917Z" stroke="#C4B5FD" stroke-width="1.61064" stroke-miterlimit="10"/>
<path d="M54.0371 163.289C61.0801 168.428 71.8739 171.721 83.9765 171.721C105.186 171.721 122.389 161.608 122.389 149.139V142.525" stroke="#C4B5FD" stroke-width="1.61064" stroke-miterlimit="10"/>
<path d="M120.23 136.05C121.228 138.034 122.402 140.858 122.402 143.035C122.402 155.504 104.781 165.617 83.0318 165.617C72.8451 165.617 63.5759 163.399 56.5869 159.762" stroke="#C4B5FD" stroke-width="1.61064" stroke-miterlimit="10"/>
<path d="M58.3945 157.612C64.9518 161.319 73.7218 163.592 83.3552 163.592C103.702 163.592 120.189 153.479 120.189 141.01L120.338 76.1299" stroke="#C4B5FD" stroke-width="1.61064" stroke-miterlimit="10"/>
<path d="M46.2383 75.5103L46.2788 89.1917" stroke="#C4B5FD" stroke-width="1.61064" stroke-miterlimit="10"/>
<path d="M55.0418 135.299C60.7948 114.945 55.6675 95.5598 43.5897 91.9999C31.5119 88.44 17.0573 102.054 11.3043 122.407C5.55138 142.761 10.6787 162.147 22.7564 165.706C34.8342 169.266 49.2889 155.652 55.0418 135.299Z" stroke="#C4B5FD" stroke-width="1.61064" stroke-miterlimit="10"/>
<path d="M58.8254 136.243C65.0389 114.101 59.4259 93.0349 46.2884 89.1905C33.151 85.3462 17.464 100.18 11.2505 122.322C5.03701 144.464 10.65 165.53 23.7874 169.375C36.9249 173.219 52.6119 158.386 58.8254 136.243Z" stroke="#C4B5FD" stroke-width="1.61064" stroke-miterlimit="10"/>
<path d="M80.7381 95.0881C80.023 94.537 79.8476 92.677 79.6857 91.7677C78.9031 87.5379 78.3769 82.4951 81.4532 79.5742" stroke="#C4B5FD" stroke-width="1.61064" stroke-miterlimit="10"/>
<path d="M49.6924 79.4363C51.7567 78.2238 52.2424 75.482 52.7012 73.0984C53.1599 70.7149 54.2528 67.9731 56.5869 67.5184C57.7877 67.2842 59.0021 67.7664 60.1219 68.2762C64.1426 70.1086 67.9474 72.4647 71.3745 75.2753C72.4404 76.1571 73.5062 77.0803 74.7475 77.6589C75.9079 78.1963 77.1762 78.4029 78.377 78.7887C84.4215 80.6901 89.0089 88.5573 88.1049 94.9502" stroke="#C4B5FD" stroke-width="1.61064" stroke-miterlimit="10"/>
<path d="M58.0713 67.3669C58.7864 64.818 60.5539 61.9247 61.9436 59.7064C62.7126 58.494 63.6031 57.1713 64.9793 56.8406C66.1532 56.5651 67.381 57.1162 68.3389 57.874C69.2969 58.6318 70.0389 59.6238 70.9564 60.4367C73.8572 63.0269 77.9319 63.578 81.6828 64.5149C83.2614 64.9145 84.8265 65.3829 86.3511 65.9478C87.417 66.3474 88.5503 66.8296 89.1575 67.8216C89.6972 68.7034 89.7242 69.7919 89.8321 70.8252C90.2099 74.7519 91.9639 78.5133 94.7028 81.2964C95.4179 82.0266 96.2004 82.688 96.7941 83.5284C97.3473 84.3276 97.7116 85.2507 98.0354 86.1738C98.71 88.1165 99.2227 90.1143 99.587 92.1396" stroke="#C4B5FD" stroke-width="1.61064" stroke-miterlimit="10"/>
<path d="M71.9822 93.9311L65.9781 80.4976C65.7352 79.9052 64.9797 79.795 64.5749 80.291L61.4447 84.2039L60.7836 85.0306C60.4058 85.499 60.3113 86.1466 60.5407 86.7115L62.1463 90.6382" stroke="#C4B5FD" stroke-width="1.61064" stroke-miterlimit="10"/>
<path d="M65.8158 92.3329L61.957 83.9146" stroke="#C4B5FD" stroke-width="1.61064" stroke-miterlimit="10"/>
<path d="M91.5859 76.35C94.1765 76.2811 96.7265 74.986 98.3321 72.9055C98.9392 72.1202 99.4789 71.1695 100.41 70.7975C101.179 70.4944 102.056 70.6735 102.798 71.0455C103.54 71.4175 104.161 71.9962 104.795 72.5197C106.252 73.7046 107.871 74.6829 109.598 75.4269C110.016 75.606 110.489 75.8264 110.651 76.2673C110.718 76.4602 110.718 76.6669 110.718 76.8736C110.664 80.4283 110.421 83.983 109.989 87.5101" stroke="#C4B5FD" stroke-width="1.61064" stroke-miterlimit="10"/>
<path d="M98.3324 72.9058C97.6848 74.3524 98.103 76.3365 99.4792 77.0805C100.086 77.4111 100.801 77.4663 101.49 77.4938C104.256 77.5903 108.006 77.1631 110.637 76.2814" stroke="#C4B5FD" stroke-width="1.61064" stroke-miterlimit="10"/>
<path d="M81.6826 64.5154C81.6826 64.5154 93.9606 57.7504 103.823 65.3283C113.686 72.9061 115.494 82.3853 115.494 82.3853" stroke="#C4B5FD" stroke-width="1.61064" stroke-miterlimit="10"/>
<path d="M46.2784 89.1909L54.4412 91.354C67.4883 95.515 72.4939 117.077 65.6263 139.522C58.7588 161.966 43.6069 176.763 30.5599 172.602L22.7344 169.158" stroke="#C4B5FD" stroke-width="1.61064" stroke-miterlimit="10"/>
<path d="M77.0413 107.419C77.0413 106.346 76.1926 105.477 75.1457 105.477C74.0987 105.477 73.25 106.346 73.25 107.419V155.408C73.25 156.481 74.0987 157.35 75.1457 157.35C76.1926 157.35 77.0413 156.481 77.0413 155.408V107.419Z" stroke="#C4B5FD" stroke-width="1.61064" stroke-miterlimit="10"/>
<path d="M94.2171 107.309C94.2171 106.236 93.3684 105.367 92.3214 105.367C91.2745 105.367 90.4258 106.236 90.4258 107.309V155.298C90.4258 156.371 91.2745 157.241 92.3214 157.241C93.3684 157.241 94.2171 156.371 94.2171 155.298V107.309Z" stroke="#C4B5FD" stroke-width="1.61064" stroke-miterlimit="10"/>
<path d="M109.706 101.729C109.706 100.877 109.029 100.186 108.195 100.186C107.36 100.186 106.684 100.877 106.684 101.729V150.517C106.684 151.369 107.36 152.06 108.195 152.06C109.029 152.06 109.706 151.369 109.706 150.517V101.729Z" stroke="#C4B5FD" stroke-width="1.61064" stroke-miterlimit="10"/>
<path d="M115.912 95.1982V140.348" stroke="#C4B5FD" stroke-width="1.61064" stroke-miterlimit="10" stroke-linecap="round"/>
<path d="M33.6169 128.504C35.1467 123.419 33.7019 118.455 30.3897 117.416C27.0775 116.377 23.1523 119.656 21.6225 124.74C20.0927 129.825 21.5376 134.789 24.8497 135.828C28.1619 136.867 32.0871 133.588 33.6169 128.504Z" stroke="#C4B5FD" stroke-width="1.61064" stroke-miterlimit="10"/>
<path d="M30.3852 117.422L34.3384 118.896C37.644 119.929 39.1012 124.903 37.5631 129.974C36.0249 135.044 32.1122 138.337 28.7931 137.29L24.8398 135.815" stroke="#C4B5FD" stroke-width="1.61064" stroke-miterlimit="10"/>
<path d="M127.419 128.419V61.218L41.1352 12.0361V82.0846L127.419 128.419Z" stroke="#E2C8FE" stroke-width="2.68441" stroke-linejoin="round"/>
<path d="M72.2373 31.099V19.2955L40.1317 1V12.2133L72.2373 31.099Z" fill="#E2C8FE" stroke="#E2C8FE" stroke-width="0.894802" stroke-linejoin="round"/>
<path d="M51.4643 9.11264C51.8363 9.321 52.1639 9.58238 52.4471 9.89677C52.7303 10.2112 52.9488 10.5465 53.1028 10.9028C53.2567 11.2556 53.3363 11.5945 53.3417 11.9195C53.3471 12.241 53.286 12.4752 53.1585 12.6219C53.031 12.7651 52.8508 12.8322 52.618 12.823C52.9097 13.1075 53.1385 13.4192 53.3042 13.7578C53.473 14.0982 53.5605 14.4553 53.5667 14.8293C53.5731 15.2137 53.4932 15.4996 53.3272 15.6871C53.1641 15.8727 52.9313 15.9553 52.6288 15.9348C52.3263 15.9143 51.9738 15.7913 51.5713 15.5659C51.1687 15.3404 50.8137 15.0672 50.5062 14.7461C50.1988 14.425 49.9573 14.0769 49.7819 13.7017C49.6095 13.3246 49.5201 12.9439 49.5137 12.5595C49.5075 12.182 49.5831 11.9163 49.7407 11.7621C49.8982 11.6045 50.1224 11.5465 50.4131 11.5882C50.1763 11.3378 49.9905 11.0659 49.8557 10.7723C49.7209 10.4786 49.6509 10.1711 49.6455 9.84955C49.6402 9.52452 49.7099 9.26931 49.8549 9.08389C49.9998 8.89498 50.2113 8.80045 50.4892 8.80031C50.7672 8.80017 51.0922 8.90428 51.4643 9.11264ZM51.4832 10.2555C51.2667 10.1342 51.0955 10.1058 50.9697 10.1704C50.8438 10.2315 50.7827 10.3721 50.7863 10.5923C50.79 10.8125 50.8554 11.024 50.9827 11.2268C51.1099 11.4296 51.2848 11.5934 51.5075 11.718C51.7301 11.8427 51.9028 11.8737 52.0256 11.8109C52.1485 11.7481 52.2081 11.6066 52.2044 11.3865C52.2008 11.1663 52.1338 10.9539 52.0035 10.7494C51.8732 10.5414 51.6997 10.3767 51.4832 10.2555ZM51.5243 12.735C51.262 12.5882 51.062 12.5523 50.9243 12.6275C50.7866 12.7028 50.7199 12.8697 50.7241 13.1283C50.7284 13.3869 50.802 13.6306 50.9447 13.8595C51.0875 14.0883 51.29 14.2762 51.5523 14.4231C51.8146 14.5699 52.0146 14.6075 52.1524 14.5358C52.2902 14.4641 52.3569 14.2989 52.3527 14.0403C52.3484 13.7817 52.2748 13.5362 52.132 13.3039C51.9891 13.0715 51.7866 12.8819 51.5243 12.735ZM57.0039 12.215C57.3882 12.4302 57.7297 12.7098 58.0285 13.0537C58.3273 13.3976 58.5785 13.7928 58.7823 14.2393C58.9109 14.5225 59.0113 14.8349 59.0834 15.1765C59.1586 15.5199 59.1991 15.868 59.2049 16.221C59.2238 17.3603 58.9579 18.0839 58.4071 18.3917C57.8593 18.7013 56.9912 18.5492 55.8027 17.9356C55.7234 17.8947 55.6602 17.816 55.6129 17.6995C55.5687 17.5847 55.5374 17.4252 55.5189 17.2209C55.5118 17.1581 55.5074 17.0778 55.5058 16.9799C55.5008 16.6759 55.5607 16.5536 55.6856 16.6131C56.2401 16.8925 56.6794 17.0589 57.0036 17.1124C57.3307 17.164 57.5731 17.111 57.7306 16.9534C57.8881 16.7958 57.9864 16.5253 58.0253 16.1421C57.8641 16.2595 57.6822 16.3117 57.4795 16.2986C57.2768 16.2821 57.0428 16.1995 56.7775 16.0509C56.439 15.8613 56.1357 15.6101 55.8677 15.2973C55.5996 14.9809 55.3883 14.6324 55.234 14.2516C55.0796 13.8709 54.9993 13.4883 54.9929 13.1039C54.9864 12.7125 55.0675 12.4116 55.2362 12.2015C55.408 11.9895 55.6479 11.885 55.9562 11.8879C56.2643 11.8874 56.6136 11.9964 57.0039 12.215ZM57.0279 13.3866C56.7656 13.2397 56.5565 13.2005 56.4005 13.269C56.2445 13.3339 56.1687 13.4975 56.173 13.7596C56.1775 14.0287 56.2542 14.2811 56.4031 14.5169C56.555 14.7508 56.7606 14.9404 57.0198 15.0856C57.1967 15.1846 57.3532 15.2376 57.4893 15.2446C57.6253 15.2516 57.7304 15.2135 57.8046 15.1304C57.8788 15.0472 57.9145 14.9253 57.9118 14.7645C57.9092 14.6038 57.8716 14.4356 57.7992 14.26C57.7299 14.0862 57.6274 13.9215 57.4919 13.7659C57.3595 13.6121 57.2048 13.4857 57.0279 13.3866ZM61.3726 14.6616C61.5983 14.788 61.8082 14.9696 62.0025 15.2065C62.1968 15.4434 62.3522 15.7035 62.4686 15.9869C62.5851 16.2703 62.6455 16.5413 62.6498 16.7999C62.6541 17.0585 62.6016 17.2663 62.4925 17.4233C62.3833 17.5803 62.2337 17.6696 62.0437 17.6913C61.8537 17.713 61.6459 17.6607 61.4202 17.5343C61.1945 17.4079 60.9846 17.2263 60.7903 16.9894C60.596 16.7525 60.4406 16.4924 60.3242 16.209C60.2077 15.9256 60.1473 15.6546 60.143 15.396C60.1387 15.1374 60.1911 14.9296 60.3003 14.7726C60.4095 14.6156 60.5591 14.5263 60.7491 14.5046C60.9391 14.4829 61.1469 14.5352 61.3726 14.6616ZM64.4073 17.0155C64.4671 16.9797 64.526 16.9781 64.5839 17.0105C64.6266 17.0344 64.6742 17.0819 64.7268 17.1529C64.7823 17.222 64.849 17.3234 64.9267 17.457C65.0635 17.6894 65.1327 17.8545 65.1343 17.9524C65.1354 18.0188 65.1031 18.0716 65.0372 18.111L61.0979 20.2363C61.029 20.2704 60.9686 20.2729 60.9168 20.2439C60.8741 20.22 60.825 20.1734 60.7694 20.1042C60.7169 20.0333 60.6533 19.9319 60.5786 19.8C60.4386 19.5554 60.3678 19.3859 60.3662 19.2916C60.3652 19.2321 60.3991 19.1819 60.4679 19.1408L64.4073 17.0155ZM61.3888 15.6419C61.279 15.5804 61.1853 15.5729 61.1075 15.6193C61.0327 15.664 60.9963 15.7493 60.9984 15.8751C61.0005 16.0009 61.0404 16.1306 61.1182 16.2641C61.1989 16.3959 61.2942 16.4925 61.404 16.554C61.5137 16.6155 61.606 16.6239 61.6808 16.5792C61.7586 16.5328 61.7965 16.4466 61.7944 16.3208C61.7923 16.195 61.7509 16.0662 61.6701 15.9344C61.5924 15.8009 61.4986 15.7034 61.3888 15.6419ZM64.0851 19.7279C64.3108 19.8543 64.5208 20.0359 64.7151 20.2728C64.9093 20.5097 65.0647 20.7699 65.1812 21.0532C65.2977 21.3366 65.3581 21.6076 65.3624 21.8662C65.3667 22.1248 65.3142 22.3326 65.205 22.4896C65.0958 22.6466 64.9463 22.736 64.7563 22.7577C64.5663 22.7794 64.3585 22.727 64.1328 22.6007C63.9071 22.4743 63.6971 22.2926 63.5029 22.0557C63.3086 21.8188 63.1532 21.5587 63.0367 21.2753C62.9202 20.9919 62.8598 20.721 62.8556 20.4623C62.8513 20.2037 62.9037 19.9959 63.0129 19.8389C63.1221 19.682 63.2717 19.5926 63.4617 19.5709C63.6516 19.5492 63.8595 19.6015 64.0851 19.7279ZM64.1014 20.7082C63.9916 20.6467 63.8978 20.6392 63.82 20.6857C63.7453 20.7303 63.7089 20.8156 63.711 20.9414C63.7131 21.0672 63.753 21.1969 63.8307 21.3305C63.9115 21.4622 64.0067 21.5589 64.1165 21.6204C64.2263 21.6818 64.3186 21.6902 64.3934 21.6456C64.4712 21.5991 64.509 21.513 64.5069 21.3872C64.5049 21.2613 64.4634 21.1325 64.3827 21.0008C64.305 20.8672 64.2112 20.7697 64.1014 20.7082Z" fill="white"/>
</svg>
