<svg width="180" height="81" viewBox="0 0 180 81" fill="none" xmlns="http://www.w3.org/2000/svg">
<rect width="180" height="81" rx="4" fill="#1F2937"/>
<rect x="12" y="12" width="24" height="24" rx="4" fill="#374151"/>
<g clip-path="url(#clip0_145_945)">
<path d="M29.25 24.0844L29.625 24.3C30.3 24.6891 30.75 25.418 30.75 26.25V28.5H28.5H19.875H17.25V25.875C17.25 24.7336 17.9789 23.7609 19.0008 23.4L19.5 23.2242V22.6945V22.5023C19.5 20.8453 20.843 19.5023 22.5 19.5023C23.557 19.5023 24.4875 20.0484 25.0219 20.8781L25.3547 21.3938L25.9242 21.1711C26.1984 21.0633 26.4961 21.0047 26.8125 21.0047C28.1578 21.0047 29.25 22.0969 29.25 23.4422V23.6555V24.0891V24.0844ZM18.75 22.6922C17.4398 23.1562 16.5 24.4055 16.5 25.875V28.5V29.25H17.25H19.875H28.5H30.75H31.5V28.5V26.25C31.5 25.1391 30.8977 24.1711 30 23.6508V23.4375C30 21.6773 28.5727 20.25 26.8125 20.25C26.4023 20.25 26.0109 20.3273 25.6523 20.468C24.9844 19.4344 23.8219 18.75 22.5 18.75C20.4281 18.75 18.75 20.4281 18.75 22.5V22.6922Z" fill="#9CA3AF"/>
</g>
<path d="M13.1186 55.8182H14.983L18.2244 63.733H18.3438L21.5852 55.8182H23.4496V66H21.9879V58.6321H21.8935L18.8906 65.9851H17.6776L14.6747 58.6271H14.5803V66H13.1186V55.8182ZM27.786 66.169C27.3021 66.169 26.8646 66.0795 26.4735 65.9006C26.0824 65.7183 25.7725 65.4548 25.5439 65.1101C25.3185 64.7654 25.2058 64.3428 25.2058 63.8423C25.2058 63.4115 25.2886 63.0568 25.4544 62.7784C25.6201 62.5 25.8438 62.2796 26.1255 62.1172C26.4073 61.9548 26.7221 61.8321 27.0701 61.7493C27.4181 61.6664 27.7728 61.6035 28.1341 61.5604C28.5914 61.5073 28.9627 61.4643 29.2477 61.4311C29.5327 61.3946 29.7399 61.3366 29.8691 61.2571C29.9984 61.1776 30.063 61.0483 30.063 60.8693V60.8345C30.063 60.4003 29.9404 60.0639 29.6951 59.8253C29.4532 59.5866 29.0919 59.4673 28.6113 59.4673C28.1109 59.4673 27.7164 59.5784 27.4281 59.8004C27.1431 60.0192 26.9458 60.2628 26.8365 60.5312L25.4395 60.2131C25.6052 59.7491 25.8471 59.3745 26.1653 59.0895C26.4868 58.8011 26.8564 58.5923 27.274 58.4631C27.6916 58.3305 28.1307 58.2642 28.5914 58.2642C28.8964 58.2642 29.2195 58.3007 29.5609 58.3736C29.9056 58.4432 30.2271 58.5724 30.5254 58.7614C30.827 58.9503 31.0739 59.2204 31.2662 59.5717C31.4584 59.9197 31.5545 60.3722 31.5545 60.929V66H30.1028V64.956H30.0431C29.947 65.1482 29.8029 65.3371 29.6106 65.5227C29.4184 65.7083 29.1715 65.8625 28.8699 65.9851C28.5682 66.1077 28.207 66.169 27.786 66.169ZM28.1092 64.9759C28.5202 64.9759 28.8715 64.8946 29.1632 64.7322C29.4582 64.5698 29.6819 64.3577 29.8343 64.0959C29.9901 63.8307 30.068 63.5473 30.068 63.2457V62.2614C30.015 62.3144 29.9122 62.3641 29.7598 62.4105C29.6106 62.4536 29.4399 62.4917 29.2477 62.5249C29.0555 62.5547 28.8682 62.5829 28.6859 62.6094C28.5036 62.6326 28.3511 62.6525 28.2285 62.669C27.9402 62.7055 27.6767 62.7668 27.438 62.853C27.2027 62.9392 27.0138 63.0634 26.8713 63.2259C26.7321 63.3849 26.6625 63.5971 26.6625 63.8622C26.6625 64.2301 26.7984 64.5085 27.0701 64.6974C27.3419 64.883 27.6883 64.9759 28.1092 64.9759ZM35.021 61.4659V66H33.5344V58.3636H34.9613V59.6065H35.0558C35.2314 59.2022 35.5065 58.8774 35.881 58.6321C36.2589 58.3868 36.7345 58.2642 37.3079 58.2642C37.8282 58.2642 38.284 58.3736 38.6751 58.5923C39.0662 58.8078 39.3694 59.1293 39.5849 59.5568C39.8003 59.9844 39.908 60.513 39.908 61.1428V66H38.4215V61.3217C38.4215 60.7682 38.2773 60.3357 37.989 60.0241C37.7006 59.7093 37.3046 59.5518 36.8008 59.5518C36.4561 59.5518 36.1495 59.6264 35.881 59.7756C35.6159 59.9247 35.4054 60.1435 35.2496 60.4318C35.0972 60.7169 35.021 61.0616 35.021 61.4659ZM44.1239 66.169C43.64 66.169 43.2025 66.0795 42.8114 65.9006C42.4203 65.7183 42.1104 65.4548 41.8817 65.1101C41.6564 64.7654 41.5437 64.3428 41.5437 63.8423C41.5437 63.4115 41.6265 63.0568 41.7923 62.7784C41.958 62.5 42.1817 62.2796 42.4634 62.1172C42.7451 61.9548 43.06 61.8321 43.408 61.7493C43.756 61.6664 44.1107 61.6035 44.4719 61.5604C44.9293 61.5073 45.3005 61.4643 45.5856 61.4311C45.8706 61.3946 46.0778 61.3366 46.207 61.2571C46.3363 61.1776 46.4009 61.0483 46.4009 60.8693V60.8345C46.4009 60.4003 46.2783 60.0639 46.033 59.8253C45.7911 59.5866 45.4298 59.4673 44.9492 59.4673C44.4487 59.4673 44.0543 59.5784 43.766 59.8004C43.4809 60.0192 43.2837 60.2628 43.1744 60.5312L41.7773 60.2131C41.9431 59.7491 42.185 59.3745 42.5032 59.0895C42.8247 58.8011 43.1942 58.5923 43.6119 58.4631C44.0295 58.3305 44.4686 58.2642 44.9293 58.2642C45.2343 58.2642 45.5574 58.3007 45.8988 58.3736C46.2435 58.4432 46.565 58.5724 46.8633 58.7614C47.1649 58.9503 47.4118 59.2204 47.604 59.5717C47.7963 59.9197 47.8924 60.3722 47.8924 60.929V66H46.4407V64.956H46.381C46.2849 65.1482 46.1407 65.3371 45.9485 65.5227C45.7563 65.7083 45.5094 65.8625 45.2077 65.9851C44.9061 66.1077 44.5449 66.169 44.1239 66.169ZM44.4471 64.9759C44.8581 64.9759 45.2094 64.8946 45.5011 64.7322C45.796 64.5698 46.0198 64.3577 46.1722 64.0959C46.328 63.8307 46.4059 63.5473 46.4059 63.2457V62.2614C46.3529 62.3144 46.2501 62.3641 46.0977 62.4105C45.9485 62.4536 45.7778 62.4917 45.5856 62.5249C45.3933 62.5547 45.2061 62.5829 45.0238 62.6094C44.8415 62.6326 44.689 62.6525 44.5664 62.669C44.2781 62.7055 44.0146 62.7668 43.7759 62.853C43.5406 62.9392 43.3517 63.0634 43.2092 63.2259C43.07 63.3849 43.0004 63.5971 43.0004 63.8622C43.0004 64.2301 43.1362 64.5085 43.408 64.6974C43.6798 64.883 44.0262 64.9759 44.4471 64.9759ZM53.074 69.0227C52.4675 69.0227 51.9455 68.9432 51.508 68.7841C51.0738 68.625 50.7192 68.4145 50.4441 68.1527C50.169 67.8909 49.9635 67.6042 49.8276 67.2926L51.1053 66.7656C51.1948 66.9115 51.3141 67.0656 51.4632 67.228C51.6157 67.3937 51.8212 67.5346 52.0797 67.6506C52.3416 67.7666 52.678 67.8246 53.089 67.8246C53.6524 67.8246 54.1181 67.687 54.486 67.4119C54.8539 67.1402 55.0378 66.706 55.0378 66.1094V64.608H54.9434C54.8539 64.7704 54.7246 64.951 54.5556 65.1499C54.3899 65.3487 54.1612 65.5211 53.8695 65.6669C53.5778 65.8127 53.1983 65.8857 52.731 65.8857C52.1278 65.8857 51.5842 65.7448 51.1003 65.4631C50.6197 65.178 50.2386 64.7588 49.9569 64.2053C49.6784 63.6484 49.5392 62.964 49.5392 62.152C49.5392 61.34 49.6768 60.6439 49.9519 60.0639C50.2303 59.4839 50.6114 59.0398 51.0953 58.7315C51.5792 58.42 52.1278 58.2642 52.7409 58.2642C53.2149 58.2642 53.5977 58.3438 53.8894 58.5028C54.181 58.6586 54.4081 58.8409 54.5705 59.0497C54.7362 59.2585 54.8638 59.4425 54.9533 59.6016H55.0627V58.3636H56.5194V66.169C56.5194 66.8253 56.3669 67.3639 56.062 67.7848C55.757 68.2057 55.3444 68.5173 54.824 68.7195C54.307 68.9216 53.7237 69.0227 53.074 69.0227ZM53.0591 64.6527C53.4867 64.6527 53.848 64.5533 54.1429 64.3544C54.4412 64.1522 54.6666 63.8639 54.8191 63.4893C54.9748 63.1115 55.0527 62.6591 55.0527 62.1321C55.0527 61.6184 54.9765 61.166 54.824 60.7749C54.6716 60.3838 54.4479 60.0788 54.1529 59.8601C53.8579 59.638 53.4933 59.527 53.0591 59.527C52.6117 59.527 52.2388 59.643 51.9405 59.875C51.6422 60.1037 51.4168 60.4152 51.2644 60.8097C51.1152 61.2041 51.0407 61.6449 51.0407 62.1321C51.0407 62.6326 51.1169 63.0717 51.2694 63.4496C51.4218 63.8274 51.6472 64.1224 51.9455 64.3345C52.2471 64.5466 52.6183 64.6527 53.0591 64.6527ZM61.8042 66.1541C61.0518 66.1541 60.4038 65.9934 59.8603 65.6719C59.32 65.3471 58.9024 64.8913 58.6074 64.3047C58.3158 63.7147 58.1699 63.0237 58.1699 62.2315C58.1699 61.4493 58.3158 60.7599 58.6074 60.1634C58.9024 59.5668 59.3134 59.1011 59.8404 58.7663C60.3707 58.4316 60.9905 58.2642 61.6998 58.2642C62.1306 58.2642 62.5482 58.3355 62.9526 58.478C63.3569 58.6205 63.7199 58.8442 64.0414 59.1491C64.3629 59.4541 64.6164 59.8501 64.802 60.3374C64.9876 60.8213 65.0804 61.4096 65.0804 62.1023V62.6293H59.0101V61.5156H63.6238C63.6238 61.1245 63.5442 60.7782 63.3851 60.4766C63.226 60.1716 63.0023 59.9313 62.714 59.7557C62.4289 59.58 62.0942 59.4922 61.7097 59.4922C61.2921 59.4922 60.9275 59.5949 60.6159 59.8004C60.3077 60.0026 60.0691 60.2678 59.9 60.5959C59.7343 60.9207 59.6515 61.2737 59.6515 61.6548V62.5249C59.6515 63.0353 59.7409 63.4695 59.9199 63.8274C60.1022 64.1854 60.3558 64.4588 60.6806 64.6477C61.0054 64.8333 61.3849 64.9261 61.8191 64.9261C62.1008 64.9261 62.3577 64.8864 62.5897 64.8068C62.8217 64.724 63.0222 64.6013 63.1912 64.4389C63.3603 64.2765 63.4895 64.076 63.579 63.8374L64.986 64.0909C64.8733 64.5052 64.6711 64.8681 64.3794 65.1797C64.0911 65.4879 63.7282 65.7282 63.2907 65.9006C62.8565 66.0696 62.361 66.1541 61.8042 66.1541ZM69.5884 66.1491C68.9719 66.1491 68.4218 65.9917 67.9379 65.6768C67.4573 65.3587 67.0794 64.9062 66.8043 64.3196C66.5326 63.7296 66.3967 63.022 66.3967 62.1967C66.3967 61.3714 66.5342 60.6655 66.8093 60.0788C67.0877 59.4922 67.4689 59.0431 67.9528 58.7315C68.4367 58.42 68.9852 58.2642 69.5984 58.2642C70.0723 58.2642 70.4535 58.3438 70.7418 58.5028C71.0335 58.6586 71.2589 58.8409 71.418 59.0497C71.5804 59.2585 71.7063 59.4425 71.7958 59.6016H71.8853V55.8182H73.3718V66H71.9201V64.8118H71.7958C71.7063 64.9742 71.5771 65.1598 71.408 65.3686C71.2423 65.5774 71.0136 65.7597 70.7219 65.9155C70.4303 66.0713 70.0524 66.1491 69.5884 66.1491ZM69.9165 64.8814C70.3441 64.8814 70.7054 64.7687 71.0004 64.5433C71.2987 64.3146 71.524 63.9981 71.6765 63.5938C71.8323 63.1894 71.9102 62.7187 71.9102 62.1818C71.9102 61.6515 71.8339 61.1875 71.6815 60.7898C71.529 60.392 71.3053 60.0821 71.0103 59.8601C70.7153 59.638 70.3507 59.527 69.9165 59.527C69.4691 59.527 69.0962 59.643 68.7979 59.875C68.4996 60.107 68.2743 60.4235 68.1218 60.8246C67.9727 61.2256 67.8981 61.678 67.8981 62.1818C67.8981 62.6922 67.9743 63.1513 68.1268 63.5589C68.2792 63.9666 68.5046 64.2898 68.8029 64.5284C69.1045 64.7637 69.4757 64.8814 69.9165 64.8814ZM82.614 66H79.3178V55.8182H82.7184C83.716 55.8182 84.5728 56.022 85.2887 56.4297C86.0046 56.834 86.5531 57.4157 86.9343 58.1747C87.3188 58.9304 87.511 59.8369 87.511 60.8942C87.511 61.9548 87.3171 62.8662 86.9293 63.6286C86.5449 64.3909 85.988 64.9775 85.2589 65.3885C84.5297 65.7962 83.6481 66 82.614 66ZM80.854 64.6577H82.5295C83.305 64.6577 83.9497 64.5118 84.4634 64.2202C84.9772 63.9252 85.3616 63.4993 85.6168 62.9425C85.872 62.3823 85.9996 61.6996 85.9996 60.8942C85.9996 60.0954 85.872 59.4176 85.6168 58.8608C85.3649 58.304 84.9888 57.8814 84.4883 57.593C83.9878 57.3047 83.3664 57.1605 82.6239 57.1605H80.854V64.6577ZM92.5932 66.1541C91.8408 66.1541 91.1929 65.9934 90.6493 65.6719C90.1091 65.3471 89.6915 64.8913 89.3965 64.3047C89.1048 63.7147 88.959 63.0237 88.959 62.2315C88.959 61.4493 89.1048 60.7599 89.3965 60.1634C89.6915 59.5668 90.1025 59.1011 90.6294 58.7663C91.1597 58.4316 91.7795 58.2642 92.4888 58.2642C92.9197 58.2642 93.3373 58.3355 93.7417 58.478C94.146 58.6205 94.5089 58.8442 94.8304 59.1491C95.1519 59.4541 95.4055 59.8501 95.5911 60.3374C95.7767 60.8213 95.8695 61.4096 95.8695 62.1023V62.6293H89.7992V61.5156H94.4128C94.4128 61.1245 94.3333 60.7782 94.1742 60.4766C94.0151 60.1716 93.7914 59.9313 93.503 59.7557C93.218 59.58 92.8832 59.4922 92.4988 59.4922C92.0811 59.4922 91.7166 59.5949 91.405 59.8004C91.0968 60.0026 90.8581 60.2678 90.6891 60.5959C90.5234 60.9207 90.4405 61.2737 90.4405 61.6548V62.5249C90.4405 63.0353 90.53 63.4695 90.709 63.8274C90.8913 64.1854 91.1448 64.4588 91.4696 64.6477C91.7944 64.8333 92.1739 64.9261 92.6081 64.9261C92.8899 64.9261 93.1467 64.8864 93.3787 64.8068C93.6107 64.724 93.8113 64.6013 93.9803 64.4389C94.1493 64.2765 94.2786 64.076 94.3681 63.8374L95.775 64.0909C95.6623 64.5052 95.4602 64.8681 95.1685 65.1797C94.8801 65.4879 94.5172 65.7282 94.0797 65.9006C93.6455 66.0696 93.15 66.1541 92.5932 66.1541ZM97.5188 68.8636V58.3636H98.9705V59.6016H99.0948C99.181 59.4425 99.3053 59.2585 99.4677 59.0497C99.6301 58.8409 99.8555 58.6586 100.144 58.5028C100.432 58.3438 100.813 58.2642 101.287 58.2642C101.904 58.2642 102.454 58.42 102.938 58.7315C103.422 59.0431 103.801 59.4922 104.076 60.0788C104.355 60.6655 104.494 61.3714 104.494 62.1967C104.494 63.022 104.356 63.7296 104.081 64.3196C103.806 64.9062 103.428 65.3587 102.948 65.6768C102.467 65.9917 101.919 66.1491 101.302 66.1491C100.838 66.1491 100.459 66.0713 100.164 65.9155C99.872 65.7597 99.6433 65.5774 99.4776 65.3686C99.3119 65.1598 99.1843 64.9742 99.0948 64.8118H99.0053V68.8636H97.5188ZM98.9755 62.1818C98.9755 62.7187 99.0534 63.1894 99.2092 63.5938C99.3649 63.9981 99.5903 64.3146 99.8853 64.5433C100.18 64.7687 100.542 64.8814 100.969 64.8814C101.413 64.8814 101.784 64.7637 102.083 64.5284C102.381 64.2898 102.606 63.9666 102.759 63.5589C102.915 63.1513 102.993 62.6922 102.993 62.1818C102.993 61.678 102.916 61.2256 102.764 60.8246C102.615 60.4235 102.389 60.107 102.088 59.875C101.789 59.643 101.417 59.527 100.969 59.527C100.538 59.527 100.174 59.638 99.8754 59.8601C99.5804 60.0821 99.3567 60.392 99.2042 60.7898C99.0517 61.1875 98.9755 61.6515 98.9755 62.1818ZM107.646 55.8182V66H106.159V55.8182H107.646ZM112.862 66.1541C112.146 66.1541 111.522 65.9901 110.988 65.6619C110.454 65.3338 110.04 64.8748 109.745 64.2848C109.45 63.6948 109.303 63.0054 109.303 62.2166C109.303 61.4245 109.45 60.7318 109.745 60.1385C110.04 59.5452 110.454 59.0845 110.988 58.7564C111.522 58.4283 112.146 58.2642 112.862 58.2642C113.578 58.2642 114.203 58.4283 114.737 58.7564C115.27 59.0845 115.685 59.5452 115.98 60.1385C116.275 60.7318 116.422 61.4245 116.422 62.2166C116.422 63.0054 116.275 63.6948 115.98 64.2848C115.685 64.8748 115.27 65.3338 114.737 65.6619C114.203 65.9901 113.578 66.1541 112.862 66.1541ZM112.867 64.9062C113.331 64.9062 113.716 64.7836 114.021 64.5384C114.326 64.2931 114.551 63.9666 114.697 63.5589C114.846 63.1513 114.921 62.7022 114.921 62.2116C114.921 61.7244 114.846 61.277 114.697 60.8693C114.551 60.4583 114.326 60.1286 114.021 59.88C113.716 59.6314 113.331 59.5071 112.867 59.5071C112.4 59.5071 112.012 59.6314 111.704 59.88C111.399 60.1286 111.172 60.4583 111.023 60.8693C110.877 61.277 110.804 61.7244 110.804 62.2116C110.804 62.7022 110.877 63.1513 111.023 63.5589C111.172 63.9666 111.399 64.2931 111.704 64.5384C112.012 64.7836 112.4 64.9062 112.867 64.9062ZM118.761 68.8636C118.539 68.8636 118.337 68.8454 118.155 68.8089C117.972 68.7758 117.836 68.7393 117.747 68.6996L118.105 67.4815C118.377 67.5545 118.619 67.5859 118.831 67.576C119.043 67.5661 119.23 67.4865 119.393 67.3374C119.558 67.1882 119.704 66.9446 119.83 66.6065L120.014 66.0994L117.22 58.3636H118.811L120.745 64.2898H120.824L122.758 58.3636H124.354L121.207 67.0192C121.061 67.4169 120.876 67.7533 120.65 68.0284C120.425 68.3068 120.157 68.5156 119.845 68.6548C119.533 68.794 119.172 68.8636 118.761 68.8636ZM125.751 66V58.3636H127.178V59.6065H127.273C127.432 59.1856 127.692 58.8575 128.053 58.6222C128.414 58.3835 128.847 58.2642 129.351 58.2642C129.861 58.2642 130.289 58.3835 130.633 58.6222C130.981 58.8608 131.238 59.1889 131.404 59.6065H131.483C131.666 59.1989 131.956 58.8741 132.354 58.6321C132.751 58.3868 133.225 58.2642 133.775 58.2642C134.468 58.2642 135.033 58.4813 135.471 58.9155C135.912 59.3497 136.132 60.0043 136.132 60.8793V66H134.645V61.0185C134.645 60.5014 134.505 60.1269 134.223 59.8949C133.941 59.6629 133.605 59.5469 133.214 59.5469C132.73 59.5469 132.354 59.696 132.085 59.9943C131.817 60.2893 131.682 60.6688 131.682 61.1328V66H130.201V60.924C130.201 60.5097 130.072 60.1766 129.813 59.9247C129.555 59.6728 129.218 59.5469 128.804 59.5469C128.522 59.5469 128.262 59.6214 128.023 59.7706C127.788 59.9164 127.597 60.1203 127.452 60.3821C127.309 60.6439 127.238 60.9472 127.238 61.2919V66H125.751ZM141.415 66.1541C140.663 66.1541 140.015 65.9934 139.472 65.6719C138.931 65.3471 138.514 64.8913 138.219 64.3047C137.927 63.7147 137.781 63.0237 137.781 62.2315C137.781 61.4493 137.927 60.7599 138.219 60.1634C138.514 59.5668 138.925 59.1011 139.452 58.7663C139.982 58.4316 140.602 58.2642 141.311 58.2642C141.742 58.2642 142.16 58.3355 142.564 58.478C142.968 58.6205 143.331 58.8442 143.653 59.1491C143.974 59.4541 144.228 59.8501 144.413 60.3374C144.599 60.8213 144.692 61.4096 144.692 62.1023V62.6293H138.621V61.5156H143.235C143.235 61.1245 143.156 60.7782 142.996 60.4766C142.837 60.1716 142.614 59.9313 142.325 59.7557C142.04 59.58 141.705 59.4922 141.321 59.4922C140.903 59.4922 140.539 59.5949 140.227 59.8004C139.919 60.0026 139.68 60.2678 139.511 60.5959C139.346 60.9207 139.263 61.2737 139.263 61.6548V62.5249C139.263 63.0353 139.352 63.4695 139.531 63.8274C139.714 64.1854 139.967 64.4588 140.292 64.6477C140.617 64.8333 140.996 64.9261 141.43 64.9261C141.712 64.9261 141.969 64.8864 142.201 64.8068C142.433 64.724 142.634 64.6013 142.803 64.4389C142.972 64.2765 143.101 64.076 143.19 63.8374L144.597 64.0909C144.485 64.5052 144.282 64.8681 143.991 65.1797C143.702 65.4879 143.339 65.7282 142.902 65.9006C142.468 66.0696 141.972 66.1541 141.415 66.1541ZM147.828 61.4659V66H146.341V58.3636H147.768V59.6065H147.862C148.038 59.2022 148.313 58.8774 148.688 58.6321C149.066 58.3868 149.541 58.2642 150.115 58.2642C150.635 58.2642 151.091 58.3736 151.482 58.5923C151.873 58.8078 152.176 59.1293 152.392 59.5568C152.607 59.9844 152.715 60.513 152.715 61.1428V66H151.228V61.3217C151.228 60.7682 151.084 60.3357 150.796 60.0241C150.507 59.7093 150.111 59.5518 149.607 59.5518C149.263 59.5518 148.956 59.6264 148.688 59.7756C148.423 59.9247 148.212 60.1435 148.056 60.4318C147.904 60.7169 147.828 61.0616 147.828 61.4659ZM158.273 58.3636V59.5568H154.102V58.3636H158.273ZM155.22 56.5341H156.707V63.7578C156.707 64.0462 156.75 64.2633 156.836 64.4091C156.922 64.5516 157.033 64.6494 157.169 64.7024C157.308 64.7521 157.459 64.777 157.622 64.777C157.741 64.777 157.845 64.7687 157.935 64.7521C158.024 64.7356 158.094 64.7223 158.144 64.7124L158.412 65.9403C158.326 65.9735 158.203 66.0066 158.044 66.0398C157.885 66.0762 157.686 66.0961 157.448 66.0994C157.057 66.1061 156.692 66.0365 156.354 65.8906C156.016 65.7448 155.742 65.5194 155.534 65.2145C155.325 64.9096 155.22 64.5268 155.22 64.0661V56.5341Z" fill="white"/>
<defs>
<clipPath id="clip0_145_945">
<rect width="15" height="15" fill="white" transform="translate(16.5 16.5)"/>
</clipPath>
</defs>
</svg>
