<svg width="180" height="81" viewBox="0 0 180 81" fill="none" xmlns="http://www.w3.org/2000/svg">
<rect width="180" height="81" rx="4" fill="#1F2937"/>
<rect x="12" y="12" width="24" height="24" rx="4" fill="#374151"/>
<g clip-path="url(#clip0_145_970)">
<path d="M23.9996 23.25C22.2629 23.25 20.6996 23.9883 19.6051 25.1648L19.0988 24.6094C20.3293 23.3109 22.0707 22.5 23.9996 22.5C25.9285 22.5 27.6699 23.3109 28.9004 24.6094L28.3941 25.1672C27.2996 23.9883 25.7363 23.25 23.9996 23.25ZM31.427 21.8297L30.9207 22.3852C29.1559 20.6039 26.7066 19.5 23.9996 19.5C21.2926 19.5 18.8434 20.6039 17.0762 22.3852L16.5723 21.8297C18.4707 19.9266 21.098 18.75 23.9996 18.75C26.9012 18.75 29.5285 19.9266 31.427 21.8297ZM24.7496 27.75C24.7496 27.5511 24.6706 27.3603 24.5299 27.2197C24.3893 27.079 24.1985 27 23.9996 27C23.8007 27 23.6099 27.079 23.4693 27.2197C23.3286 27.3603 23.2496 27.5511 23.2496 27.75C23.2496 27.9489 23.3286 28.1397 23.4693 28.2803C23.6099 28.421 23.8007 28.5 23.9996 28.5C24.1985 28.5 24.3893 28.421 24.5299 28.2803C24.6706 28.1397 24.7496 27.9489 24.7496 27.75ZM22.4996 27.75C22.4996 27.3522 22.6576 26.9706 22.9389 26.6893C23.2203 26.408 23.6018 26.25 23.9996 26.25C24.3974 26.25 24.779 26.408 25.0603 26.6893C25.3416 26.9706 25.4996 27.3522 25.4996 27.75C25.4996 28.1478 25.3416 28.5294 25.0603 28.8107C24.779 29.092 24.3974 29.25 23.9996 29.25C23.6018 29.25 23.2203 29.092 22.9389 28.8107C22.6576 28.5294 22.4996 28.1478 22.4996 27.75Z" fill="#9CA3AF"/>
</g>
<path d="M21.9631 60.9091C21.9631 61.9962 21.7642 62.9309 21.3665 63.7131C20.9688 64.492 20.4235 65.0919 19.7308 65.5128C19.0414 65.9304 18.2576 66.1392 17.3793 66.1392C16.4976 66.1392 15.7105 65.9304 15.0178 65.5128C14.3284 65.0919 13.7848 64.4903 13.3871 63.7081C12.9893 62.9259 12.7905 61.9929 12.7905 60.9091C12.7905 59.822 12.9893 58.889 13.3871 58.1101C13.7848 57.3279 14.3284 56.728 15.0178 56.3104C15.7105 55.8894 16.4976 55.679 17.3793 55.679C18.2576 55.679 19.0414 55.8894 19.7308 56.3104C20.4235 56.728 20.9688 57.3279 21.3665 58.1101C21.7642 58.889 21.9631 59.822 21.9631 60.9091ZM20.4418 60.9091C20.4418 60.0805 20.3075 59.3828 20.0391 58.8161C19.7739 58.246 19.4093 57.8151 18.9453 57.5234C18.4846 57.2285 17.9626 57.081 17.3793 57.081C16.7926 57.081 16.2689 57.2285 15.8082 57.5234C15.3475 57.8151 14.983 58.246 14.7145 58.8161C14.4493 59.3828 14.3168 60.0805 14.3168 60.9091C14.3168 61.7377 14.4493 62.437 14.7145 63.0071C14.983 63.5739 15.3475 64.0047 15.8082 64.2997C16.2689 64.5914 16.7926 64.7372 17.3793 64.7372C17.9626 64.7372 18.4846 64.5914 18.9453 64.2997C19.4093 64.0047 19.7739 63.5739 20.0391 63.0071C20.3075 62.437 20.4418 61.7377 20.4418 60.9091ZM25.2456 61.4659V66H23.7591V58.3636H25.1859V59.6065H25.2804C25.456 59.2022 25.7311 58.8774 26.1056 58.6321C26.4835 58.3868 26.9591 58.2642 27.5325 58.2642C28.0529 58.2642 28.5086 58.3736 28.8997 58.5923C29.2908 58.8078 29.594 59.1293 29.8095 59.5568C30.0249 59.9844 30.1326 60.513 30.1326 61.1428V66H28.6461V61.3217C28.6461 60.7682 28.502 60.3357 28.2136 60.0241C27.9252 59.7093 27.5292 59.5518 27.0254 59.5518C26.6807 59.5518 26.3741 59.6264 26.1056 59.7756C25.8405 59.9247 25.63 60.1435 25.4743 60.4318C25.3218 60.7169 25.2456 61.0616 25.2456 61.4659ZM35.9506 66V55.8182H42.3342V57.1406H37.4869V60.2429H42.0011V61.5604H37.4869V64.6776H42.3938V66H35.9506ZM47.1255 66.1491C46.5091 66.1491 45.9589 65.9917 45.475 65.6768C44.9944 65.3587 44.6165 64.9062 44.3414 64.3196C44.0697 63.7296 43.9338 63.022 43.9338 62.1967C43.9338 61.3714 44.0713 60.6655 44.3464 60.0788C44.6248 59.4922 45.006 59.0431 45.4899 58.7315C45.9738 58.42 46.5223 58.2642 47.1355 58.2642C47.6094 58.2642 47.9906 58.3438 48.2789 58.5028C48.5706 58.6586 48.796 58.8409 48.9551 59.0497C49.1175 59.2585 49.2434 59.4425 49.3329 59.6016H49.4224V55.8182H50.9089V66H49.4572V64.8118H49.3329C49.2434 64.9742 49.1142 65.1598 48.9451 65.3686C48.7794 65.5774 48.5507 65.7597 48.2591 65.9155C47.9674 66.0713 47.5895 66.1491 47.1255 66.1491ZM47.4537 64.8814C47.8812 64.8814 48.2425 64.7687 48.5375 64.5433C48.8358 64.3146 49.0611 63.9981 49.2136 63.5938C49.3694 63.1894 49.4473 62.7187 49.4473 62.1818C49.4473 61.6515 49.371 61.1875 49.2186 60.7898C49.0661 60.392 48.8424 60.0821 48.5474 59.8601C48.2524 59.638 47.8878 59.527 47.4537 59.527C47.0062 59.527 46.6333 59.643 46.335 59.875C46.0368 60.107 45.8114 60.4235 45.6589 60.8246C45.5098 61.2256 45.4352 61.678 45.4352 62.1818C45.4352 62.6922 45.5114 63.1513 45.6639 63.5589C45.8163 63.9666 46.0417 64.2898 46.34 64.5284C46.6416 64.7637 47.0128 64.8814 47.4537 64.8814ZM56.2322 69.0227C55.6257 69.0227 55.1037 68.9432 54.6662 68.7841C54.232 68.625 53.8774 68.4145 53.6023 68.1527C53.3272 67.8909 53.1217 67.6042 52.9858 67.2926L54.2635 66.7656C54.353 66.9115 54.4723 67.0656 54.6214 67.228C54.7739 67.3937 54.9794 67.5346 55.2379 67.6506C55.4998 67.7666 55.8362 67.8246 56.2472 67.8246C56.8106 67.8246 57.2763 67.687 57.6442 67.4119C58.0121 67.1402 58.196 66.706 58.196 66.1094V64.608H58.1016C58.0121 64.7704 57.8828 64.951 57.7138 65.1499C57.5481 65.3487 57.3194 65.5211 57.0277 65.6669C56.736 65.8127 56.3565 65.8857 55.8892 65.8857C55.286 65.8857 54.7424 65.7448 54.2585 65.4631C53.7779 65.178 53.3968 64.7588 53.1151 64.2053C52.8366 63.6484 52.6974 62.964 52.6974 62.152C52.6974 61.34 52.835 60.6439 53.1101 60.0639C53.3885 59.4839 53.7696 59.0398 54.2536 58.7315C54.7375 58.42 55.286 58.2642 55.8991 58.2642C56.3731 58.2642 56.7559 58.3438 57.0476 58.5028C57.3393 58.6586 57.5663 58.8409 57.7287 59.0497C57.8944 59.2585 58.022 59.4425 58.1115 59.6016H58.2209V58.3636H59.6776V66.169C59.6776 66.8253 59.5251 67.3639 59.2202 67.7848C58.9152 68.2057 58.5026 68.5173 57.9822 68.7195C57.4652 68.9216 56.8819 69.0227 56.2322 69.0227ZM56.2173 64.6527C56.6449 64.6527 57.0062 64.5533 57.3011 64.3544C57.5994 64.1522 57.8248 63.8639 57.9773 63.4893C58.133 63.1115 58.2109 62.6591 58.2109 62.1321C58.2109 61.6184 58.1347 61.166 57.9822 60.7749C57.8298 60.3838 57.6061 60.0788 57.3111 59.8601C57.0161 59.638 56.6515 59.527 56.2173 59.527C55.7699 59.527 55.397 59.643 55.0987 59.875C54.8004 60.1037 54.575 60.4152 54.4226 60.8097C54.2734 61.2041 54.1989 61.6449 54.1989 62.1321C54.1989 62.6326 54.2751 63.0717 54.4276 63.4496C54.58 63.8274 54.8054 64.1224 55.1037 64.3345C55.4053 64.5466 55.7765 64.6527 56.2173 64.6527ZM64.9624 66.1541C64.21 66.1541 63.562 65.9934 63.0185 65.6719C62.4782 65.3471 62.0606 64.8913 61.7656 64.3047C61.474 63.7147 61.3281 63.0237 61.3281 62.2315C61.3281 61.4493 61.474 60.7599 61.7656 60.1634C62.0606 59.5668 62.4716 59.1011 62.9986 58.7663C63.5289 58.4316 64.1487 58.2642 64.858 58.2642C65.2888 58.2642 65.7064 58.3355 66.1108 58.478C66.5152 58.6205 66.8781 58.8442 67.1996 59.1491C67.5211 59.4541 67.7746 59.8501 67.9602 60.3374C68.1458 60.8213 68.2386 61.4096 68.2386 62.1023V62.6293H62.1683V61.5156H66.782C66.782 61.1245 66.7024 60.7782 66.5433 60.4766C66.3842 60.1716 66.1605 59.9313 65.8722 59.7557C65.5871 59.58 65.2524 59.4922 64.8679 59.4922C64.4503 59.4922 64.0857 59.5949 63.7741 59.8004C63.4659 60.0026 63.2273 60.2678 63.0582 60.5959C62.8925 60.9207 62.8097 61.2737 62.8097 61.6548V62.5249C62.8097 63.0353 62.8991 63.4695 63.0781 63.8274C63.2604 64.1854 63.514 64.4588 63.8388 64.6477C64.1636 64.8333 64.5431 64.9261 64.9773 64.9261C65.259 64.9261 65.5159 64.8864 65.7479 64.8068C65.9799 64.724 66.1804 64.6013 66.3494 64.4389C66.5185 64.2765 66.6477 64.076 66.7372 63.8374L68.1442 64.0909C68.0315 64.5052 67.8293 64.8681 67.5376 65.1797C67.2493 65.4879 66.8864 65.7282 66.4489 65.9006C66.0147 66.0696 65.5192 66.1541 64.9624 66.1541ZM77.0085 66H73.7124V55.8182H77.1129C78.1106 55.8182 78.9673 56.022 79.6832 56.4297C80.3991 56.834 80.9477 57.4157 81.3288 58.1747C81.7133 58.9304 81.9055 59.8369 81.9055 60.8942C81.9055 61.9548 81.7116 62.8662 81.3239 63.6286C80.9394 64.3909 80.3826 64.9775 79.6534 65.3885C78.9242 65.7962 78.0426 66 77.0085 66ZM75.2486 64.6577H76.924C77.6996 64.6577 78.3442 64.5118 78.858 64.2202C79.3717 63.9252 79.7562 63.4993 80.0114 62.9425C80.2666 62.3823 80.3942 61.6996 80.3942 60.8942C80.3942 60.0954 80.2666 59.4176 80.0114 58.8608C79.7595 58.304 79.3833 57.8814 78.8828 57.593C78.3823 57.3047 77.7609 57.1605 77.0185 57.1605H75.2486V64.6577ZM86.9877 66.1541C86.2354 66.1541 85.5874 65.9934 85.0439 65.6719C84.5036 65.3471 84.086 64.8913 83.791 64.3047C83.4993 63.7147 83.3535 63.0237 83.3535 62.2315C83.3535 61.4493 83.4993 60.7599 83.791 60.1634C84.086 59.5668 84.497 59.1011 85.024 58.7663C85.5543 58.4316 86.1741 58.2642 86.8833 58.2642C87.3142 58.2642 87.7318 58.3355 88.1362 58.478C88.5405 58.6205 88.9035 58.8442 89.225 59.1491C89.5465 59.4541 89.8 59.8501 89.9856 60.3374C90.1712 60.8213 90.264 61.4096 90.264 62.1023V62.6293H84.1937V61.5156H88.8074C88.8074 61.1245 88.7278 60.7782 88.5687 60.4766C88.4096 60.1716 88.1859 59.9313 87.8975 59.7557C87.6125 59.58 87.2778 59.4922 86.8933 59.4922C86.4757 59.4922 86.1111 59.5949 85.7995 59.8004C85.4913 60.0026 85.2527 60.2678 85.0836 60.5959C84.9179 60.9207 84.835 61.2737 84.835 61.6548V62.5249C84.835 63.0353 84.9245 63.4695 85.1035 63.8274C85.2858 64.1854 85.5394 64.4588 85.8642 64.6477C86.189 64.8333 86.5685 64.9261 87.0027 64.9261C87.2844 64.9261 87.5413 64.8864 87.7733 64.8068C88.0053 64.724 88.2058 64.6013 88.3748 64.4389C88.5439 64.2765 88.6731 64.076 88.7626 63.8374L90.1696 64.0909C90.0569 64.5052 89.8547 64.8681 89.563 65.1797C89.2747 65.4879 88.9118 65.7282 88.4743 65.9006C88.0401 66.0696 87.5446 66.1541 86.9877 66.1541ZM98.2273 58.3636L95.4581 66H93.8672L91.093 58.3636H92.6889L94.6229 64.2401H94.7024L96.6314 58.3636H98.2273ZM99.6243 66V58.3636H101.111V66H99.6243ZM100.375 57.1854C100.116 57.1854 99.8944 57.0992 99.7088 56.9268C99.5265 56.7512 99.4354 56.5424 99.4354 56.3004C99.4354 56.0552 99.5265 55.8464 99.7088 55.674C99.8944 55.4983 100.116 55.4105 100.375 55.4105C100.634 55.4105 100.854 55.4983 101.036 55.674C101.222 55.8464 101.315 56.0552 101.315 56.3004C101.315 56.5424 101.222 56.7512 101.036 56.9268C100.854 57.0992 100.634 57.1854 100.375 57.1854ZM106.327 66.1541C105.588 66.1541 104.952 65.9867 104.418 65.652C103.888 65.3139 103.48 64.8482 103.195 64.255C102.91 63.6617 102.768 62.9822 102.768 62.2166C102.768 61.4411 102.913 60.7566 103.205 60.1634C103.497 59.5668 103.908 59.1011 104.438 58.7663C104.968 58.4316 105.593 58.2642 106.312 58.2642C106.892 58.2642 107.409 58.3719 107.863 58.5874C108.318 58.7995 108.684 59.0978 108.962 59.4822C109.244 59.8667 109.411 60.3158 109.464 60.8295H108.018C107.938 60.4716 107.756 60.1634 107.471 59.9048C107.189 59.6463 106.811 59.517 106.337 59.517C105.923 59.517 105.56 59.6264 105.248 59.8452C104.94 60.0606 104.7 60.3688 104.528 60.7699C104.355 61.1676 104.269 61.6383 104.269 62.1818C104.269 62.7386 104.354 63.2192 104.523 63.6236C104.692 64.0279 104.93 64.3411 105.238 64.5632C105.55 64.7853 105.916 64.8963 106.337 64.8963C106.619 64.8963 106.874 64.8449 107.103 64.7422C107.335 64.6361 107.529 64.4853 107.684 64.2898C107.844 64.0942 107.955 63.8589 108.018 63.5838H109.464C109.411 64.0777 109.251 64.5185 108.982 64.9062C108.714 65.294 108.354 65.599 107.903 65.821C107.456 66.0431 106.93 66.1541 106.327 66.1541ZM114.345 66.1541C113.593 66.1541 112.945 65.9934 112.401 65.6719C111.861 65.3471 111.443 64.8913 111.148 64.3047C110.857 63.7147 110.711 63.0237 110.711 62.2315C110.711 61.4493 110.857 60.7599 111.148 60.1634C111.443 59.5668 111.854 59.1011 112.381 58.7663C112.912 58.4316 113.531 58.2642 114.241 58.2642C114.672 58.2642 115.089 58.3355 115.494 58.478C115.898 58.6205 116.261 58.8442 116.582 59.1491C116.904 59.4541 117.157 59.8501 117.343 60.3374C117.529 60.8213 117.621 61.4096 117.621 62.1023V62.6293H111.551V61.5156H116.165C116.165 61.1245 116.085 60.7782 115.926 60.4766C115.767 60.1716 115.543 59.9313 115.255 59.7557C114.97 59.58 114.635 59.4922 114.251 59.4922C113.833 59.4922 113.469 59.5949 113.157 59.8004C112.849 60.0026 112.61 60.2678 112.441 60.5959C112.275 60.9207 112.192 61.2737 112.192 61.6548V62.5249C112.192 63.0353 112.282 63.4695 112.461 63.8274C112.643 64.1854 112.897 64.4588 113.222 64.6477C113.546 64.8333 113.926 64.9261 114.36 64.9261C114.642 64.9261 114.899 64.8864 115.131 64.8068C115.363 64.724 115.563 64.6013 115.732 64.4389C115.901 64.2765 116.031 64.076 116.12 63.8374L117.527 64.0909C117.414 64.5052 117.212 64.8681 116.92 65.1797C116.632 65.4879 116.269 65.7282 115.832 65.9006C115.397 66.0696 114.902 66.1541 114.345 66.1541Z" fill="white"/>
<defs>
<clipPath id="clip0_145_970">
<rect width="15" height="15" fill="white" transform="translate(16.5 16.5)"/>
</clipPath>
</defs>
</svg>
