<svg width="355" height="210" viewBox="0 0 355 210" fill="none" xmlns="http://www.w3.org/2000/svg">
<rect y="48.6338" width="345.997" height="301.366" rx="8" fill="#E5E7EB"/>
<rect x="26.3555" y="24.3169" width="345.997" height="301.366" rx="8" fill="#DDD6FE"/>
<rect x="53" width="339" height="327" rx="8" fill="white"/>
<text fill="#111827" xml:space="preserve" style="white-space: pre" font-family="Inter" font-size="12" font-weight="500" letter-spacing="0em"><tspan x="75" y="33.8636">Dedicated Deployments</tspan></text>
<text fill="#4B5563" xml:space="preserve" style="white-space: pre" font-family="Inter" font-size="10" letter-spacing="0em"><tspan x="77" y="64.6364">STATUS</tspan></text>
<text fill="#4B5563" xml:space="preserve" style="white-space: pre" font-family="Inter" font-size="10" letter-spacing="0em"><tspan x="173" y="64.6364">NAME</tspan></text>
<rect x="77" y="83" width="64" height="20" rx="4" fill="#D1FAE5"/>
<path d="M85 93C85 91.6193 86.1193 90.5 87.5 90.5C88.8807 90.5 90 91.6193 90 93C90 94.3807 88.8807 95.5 87.5 95.5C86.1193 95.5 85 94.3807 85 93Z" fill="#047857"/>
<text fill="#047857" xml:space="preserve" style="white-space: pre" font-family="Inter" font-size="10" letter-spacing="0em"><tspan x="94" y="96.6364">Running</tspan></text>
<text fill="#6D28D9" xml:space="preserve" style="white-space: pre" font-family="Inter" font-size="10" letter-spacing="0em"><tspan x="173" y="96.6364">https://deployment1.roboflow.cloud</tspan></text>
<rect x="77" y="119" width="61.8333" height="20" rx="4" fill="#FEF3C7"/>
<path d="M85.875 125.5C85.3919 125.5 85 125.892 85 126.375V131.625C85 132.108 85.3919 132.5 85.875 132.5H86.4583C86.9414 132.5 87.3333 132.108 87.3333 131.625V126.375C87.3333 125.892 86.9414 125.5 86.4583 125.5H85.875ZM89.375 125.5C88.8919 125.5 88.5 125.892 88.5 126.375V131.625C88.5 132.108 88.8919 132.5 89.375 132.5H89.9583C90.4414 132.5 90.8333 132.108 90.8333 131.625V126.375C90.8333 125.892 90.4414 125.5 89.9583 125.5H89.375Z" fill="#B45309"/>
<text fill="#B45309" xml:space="preserve" style="white-space: pre" font-family="Inter" font-size="10" letter-spacing="0em"><tspan x="94.833" y="132.636">Paused</tspan></text>
<text fill="#6D28D9" xml:space="preserve" style="white-space: pre" font-family="Inter" font-size="10" letter-spacing="0em"><tspan x="173" y="132.636">https://deployment2.roboflow.cloud</tspan></text>
<rect x="77" y="155" width="66" height="20" rx="4" fill="#F3F4F6"/>
<path d="M89.75 161.75C89.75 161.551 89.671 161.36 89.5303 161.22C89.3897 161.079 89.1989 161 89 161C88.8011 161 88.6103 161.079 88.4697 161.22C88.329 161.36 88.25 161.551 88.25 161.75C88.25 161.949 88.329 162.14 88.4697 162.28C88.6103 162.421 88.8011 162.5 89 162.5C89.1989 162.5 89.3897 162.421 89.5303 162.28C89.671 162.14 89.75 161.949 89.75 161.75ZM89.75 168.25C89.75 168.051 89.671 167.86 89.5303 167.72C89.3897 167.579 89.1989 167.5 89 167.5C88.8011 167.5 88.6103 167.579 88.4697 167.72C88.329 167.86 88.25 168.051 88.25 168.25C88.25 168.449 88.329 168.64 88.4697 168.78C88.6103 168.921 88.8011 169 89 169C89.1989 169 89.3897 168.921 89.5303 168.78C89.671 168.64 89.75 168.449 89.75 168.25ZM85.75 165.75C85.9489 165.75 86.1397 165.671 86.2803 165.53C86.421 165.39 86.5 165.199 86.5 165C86.5 164.801 86.421 164.61 86.2803 164.47C86.1397 164.329 85.9489 164.25 85.75 164.25C85.5511 164.25 85.3603 164.329 85.2197 164.47C85.079 164.61 85 164.801 85 165C85 165.199 85.079 165.39 85.2197 165.53C85.3603 165.671 85.5511 165.75 85.75 165.75ZM93 165C93 164.801 92.921 164.61 92.7803 164.47C92.6397 164.329 92.4489 164.25 92.25 164.25C92.0511 164.25 91.8603 164.329 91.7197 164.47C91.579 164.61 91.5 164.801 91.5 165C91.5 165.199 91.579 165.39 91.7197 165.53C91.8603 165.671 92.0511 165.75 92.25 165.75C92.4489 165.75 92.6397 165.671 92.7803 165.53C92.921 165.39 93 165.199 93 165ZM87.2328 167.828C87.3025 167.758 87.3577 167.676 87.3954 167.585C87.4331 167.494 87.4525 167.396 87.4525 167.298C87.4525 167.199 87.4331 167.102 87.3954 167.011C87.3577 166.92 87.3025 166.837 87.2328 166.767C87.1632 166.698 87.0804 166.642 86.9894 166.605C86.8984 166.567 86.8009 166.547 86.7023 166.547C86.5034 166.547 86.3126 166.626 86.1719 166.767C86.0312 166.908 85.9521 167.099 85.9521 167.298C85.9521 167.497 86.0312 167.687 86.1719 167.828C86.3126 167.969 86.5034 168.048 86.7023 168.048C86.9013 168.048 87.0921 167.969 87.2328 167.828ZM87.2328 163.231C87.3059 163.162 87.3645 163.08 87.405 162.988C87.4455 162.896 87.4671 162.797 87.4686 162.696C87.4701 162.596 87.4514 162.496 87.4136 162.403C87.3758 162.31 87.3197 162.225 87.2486 162.154C87.1775 162.084 87.0929 162.028 86.9998 161.99C86.9067 161.952 86.807 161.934 86.7066 161.935C86.6061 161.937 86.5071 161.959 86.4152 161.999C86.3234 162.04 86.2406 162.099 86.1719 162.172C86.0312 162.313 85.9521 162.503 85.9521 162.702C85.9521 162.901 86.0312 163.092 86.1719 163.233C86.3126 163.374 86.5034 163.453 86.7023 163.453C86.9013 163.453 87.0921 163.374 87.2328 163.233V163.231ZM90.7672 167.828C90.8368 167.898 90.9196 167.953 91.0106 167.991C91.1016 168.028 91.1991 168.048 91.2977 168.048C91.3962 168.048 91.4937 168.028 91.5847 167.991C91.6758 167.953 91.7585 167.898 91.8281 167.828C91.8978 167.758 91.953 167.676 91.9907 167.585C92.0284 167.494 92.0479 167.396 92.0479 167.298C92.0479 167.199 92.0284 167.102 91.9907 167.011C91.953 166.92 91.8978 166.837 91.8281 166.767C91.7585 166.698 91.6758 166.642 91.5847 166.605C91.4937 166.567 91.3962 166.547 91.2977 166.547C91.1991 166.547 91.1016 166.567 91.0106 166.605C90.9196 166.642 90.8368 166.698 90.7672 166.767C90.6975 166.837 90.6423 166.92 90.6046 167.011C90.5669 167.102 90.5475 167.199 90.5475 167.298C90.5475 167.396 90.5669 167.494 90.6046 167.585C90.6423 167.676 90.6975 167.758 90.7672 167.828Z" fill="#6B7280"/>
<text fill="#6B7280" xml:space="preserve" style="white-space: pre" font-family="Inter" font-size="10" letter-spacing="0em"><tspan x="97" y="168.636">Building</tspan></text>
<text fill="#6D28D9" xml:space="preserve" style="white-space: pre" font-family="Inter" font-size="10" letter-spacing="0em"><tspan x="173" y="168.636">https://deployment3.roboflow.cloud</tspan></text>
</svg>
