<svg width="68" height="68" viewBox="0 0 68 68" fill="none" xmlns="http://www.w3.org/2000/svg">
<rect width="68" height="68" rx="8" fill="white" fill-opacity="0.51"/>
<path d="M44.2794 31.8231C44.8239 30.1888 44.6364 28.3985 43.7657 26.912C42.4561 24.6319 39.8236 23.4589 37.2525 24.0109C36.1087 22.7224 34.4655 21.9896 32.7427 22.0001C30.1146 21.9941 27.7828 23.6861 26.9743 26.1867C25.286 26.5325 23.8287 27.5892 22.976 29.087C21.6567 31.3611 21.9574 34.2276 23.72 36.1777C23.1755 37.8119 23.363 39.6022 24.2337 41.0888C25.5433 43.3688 28.1758 44.5418 30.7469 43.9898C31.8899 45.2784 33.5339 46.0111 35.2567 45.9999C37.8863 46.0066 40.2188 44.3131 41.0273 41.8103C42.7156 41.4645 44.1729 40.4078 45.0257 38.91C46.3435 36.6359 46.042 33.7716 44.2802 31.8216L44.2794 31.8231ZM35.2582 44.4316C34.206 44.4331 33.1867 44.0648 32.3789 43.3906C32.4157 43.3711 32.4794 43.3358 32.5207 43.3103L37.2998 40.5503C37.5443 40.4115 37.6943 40.1512 37.6928 39.87V33.1326L39.7126 34.2989C39.7343 34.3094 39.7486 34.3304 39.7516 34.3544V39.9337C39.7486 42.4148 37.7393 44.4263 35.2582 44.4316ZM25.595 40.3043C25.0678 39.3937 24.878 38.3265 25.0588 37.2907C25.094 37.3117 25.1563 37.3499 25.2005 37.3754L29.9796 40.1355C30.2219 40.2773 30.5219 40.2773 30.7649 40.1355L36.5993 36.7664V39.099C36.6008 39.123 36.5895 39.1462 36.5708 39.1612L31.7399 41.9505C29.5881 43.1896 26.84 42.453 25.5958 40.3043H25.595ZM24.3372 29.8723C24.8623 28.9603 25.691 28.2627 26.678 27.9005C26.678 27.9417 26.6758 28.0145 26.6758 28.0655V33.5864C26.6743 33.8669 26.8243 34.1271 27.068 34.2659L32.9024 37.6342L30.8826 38.8005C30.8624 38.814 30.8369 38.8162 30.8144 38.8065L25.9828 36.0149C23.8355 34.7714 23.099 32.0241 24.3365 29.873L24.3372 29.8723ZM40.9321 33.7341L35.0977 30.365L37.1175 29.1995C37.1378 29.186 37.1633 29.1838 37.1858 29.1935L42.0174 31.9828C44.1684 33.2256 44.9057 35.9774 43.6629 38.1285C43.1371 39.039 42.3091 39.7365 41.3229 40.0995V34.4136C41.3251 34.1331 41.1759 33.8736 40.9328 33.7341H40.9321ZM42.9421 30.7085C42.9069 30.6868 42.8446 30.6493 42.8004 30.6238L38.0213 27.8637C37.779 27.722 37.479 27.722 37.236 27.8637L31.4016 31.2328V28.9003C31.4001 28.8763 31.4114 28.853 31.4301 28.838L36.261 26.0509C38.4128 24.8097 41.1639 25.5484 42.4044 27.701C42.9286 28.61 43.1184 29.6743 42.9406 30.7085H42.9421ZM30.3036 34.8659L28.2831 33.6996C28.2613 33.6891 28.2471 33.6681 28.2441 33.6441V28.0647C28.2456 25.5807 30.2609 23.5676 32.7449 23.5691C33.7957 23.5691 34.8127 23.9382 35.6205 24.6102C35.5837 24.6297 35.5207 24.6649 35.4787 24.6904L30.6996 27.4505C30.4551 27.5892 30.3051 27.8487 30.3066 28.13L30.3036 34.8644V34.8659ZM31.4009 32.5003L33.9997 30.9996L36.5985 32.4996V35.5004L33.9997 37.0004L31.4009 35.5004V32.5003Z" fill="black"/>
</svg>
