<svg width="68" height="68" viewBox="0 0 68 68" fill="none" xmlns="http://www.w3.org/2000/svg">
<rect width="68" height="68" rx="8" fill="white" fill-opacity="0.51"/>
<g clip-path="url(#clip0_93_621)">
<path d="M35.3618 25.5698V29.7366C34.0116 28.7356 31.8002 27.9674 29.6353 27.9674C27.7032 27.9674 26.6324 28.6891 26.6324 29.8297C26.6324 31.0402 27.8661 31.529 30.194 32.1343C33.2435 32.9257 36.549 33.9733 36.549 37.9073C36.549 41.562 33.6857 43.9597 28.774 43.9597C26.1203 43.9597 23.7692 43.238 22.0698 42.0276V37.5116C23.6295 38.885 25.7944 40.0023 28.5645 40.0023C30.7061 40.0023 31.9166 39.2109 31.9166 37.9539C31.9166 36.6037 30.4268 36.1614 27.8661 35.3932C24.7934 34.5319 22 33.3447 22 29.9461C22 26.5475 24.7934 24.0334 29.4491 24.0334C31.6838 24.0334 33.9651 24.6386 35.3618 25.5698Z" fill="url(#paint0_linear_93_621)"/>
<path d="M40.4131 40.8869C40.4131 39.304 41.6236 38.0935 43.2065 38.0935C44.7894 38.0935 45.9999 39.304 45.9999 40.8869C45.9999 42.4698 44.7661 43.6803 43.2065 43.6803C41.6236 43.7036 40.4131 42.4466 40.4131 40.8869Z" fill="#E80000"/>
</g>
<defs>
<linearGradient id="paint0_linear_93_621" x1="29.2745" y1="43.9597" x2="29.2745" y2="24.0334" gradientUnits="userSpaceOnUse">
<stop stop-color="#A381FF"/>
<stop offset="1" stop-color="#9D38FF"/>
</linearGradient>
<clipPath id="clip0_93_621">
<rect width="24" height="19.9333" fill="white" transform="translate(22 24.0334)"/>
</clipPath>
</defs>
</svg>
