<svg width="68" height="68" viewBox="0 0 68 68" fill="none" xmlns="http://www.w3.org/2000/svg">
<rect width="68" height="68" rx="8" fill="white" fill-opacity="0.51"/>
<path d="M44.56 34.25C44.56 33.47 44.49 32.72 44.36 32H34V36.26H39.92C39.66 37.63 38.88 38.79 37.71 39.57V42.34H41.28C43.36 40.42 44.56 37.6 44.56 34.25Z" fill="#4285F4"/>
<path d="M33.9997 45C36.9697 45 39.4597 44.02 41.2797 42.34L37.7097 39.57C36.7297 40.23 35.4797 40.63 33.9997 40.63C31.1397 40.63 28.7097 38.7 27.8397 36.1H24.1797V38.94C25.9897 42.53 29.6997 45 33.9997 45Z" fill="#34A853"/>
<path d="M27.84 36.09C27.62 35.43 27.49 34.73 27.49 34C27.49 33.27 27.62 32.57 27.84 31.91V29.07H24.18C23.43 30.55 23 32.22 23 34C23 35.78 23.43 37.45 24.18 38.93L27.03 36.71L27.84 36.09Z" fill="#FBBC05"/>
<path d="M33.9997 27.38C35.6197 27.38 37.0597 27.94 38.2097 29.02L41.3597 25.87C39.4497 24.09 36.9697 23 33.9997 23C29.6997 23 25.9897 25.47 24.1797 29.07L27.8397 31.91C28.7097 29.31 31.1397 27.38 33.9997 27.38Z" fill="#EA4335"/>
</svg>
