<svg width="133" height="250" viewBox="0 0 133 250" fill="none" xmlns="http://www.w3.org/2000/svg">
<path d="M49.458 47.3853V151.378" stroke="#DDD6FE" stroke-width="2.04724" stroke-miterlimit="10"/>
<path d="M43.2021 47.3853V151.378" stroke="#DDD6FE" stroke-width="2.04724" stroke-miterlimit="10"/>
<path d="M46.3418 49.6261C48.0629 49.6261 49.4581 48.6229 49.4581 47.3853C49.4581 46.1478 48.0629 45.1445 46.3418 45.1445C44.6208 45.1445 43.2256 46.1478 43.2256 47.3853C43.2256 48.6229 44.6208 49.6261 46.3418 49.6261Z" stroke="#DDD6FE" stroke-width="2.04724" stroke-miterlimit="10"/>
<path d="M49.4581 151.306C49.4581 152.534 48.0652 153.546 46.3418 153.546C44.6184 153.546 43.2256 152.559 43.2256 151.306" stroke="#DDD6FE" stroke-width="2.04724" stroke-miterlimit="10"/>
<path d="M49.4581 49.6021C49.4581 49.6021 50.4261 50.2285 52.1258 51.4573C66.0545 61.553 130.008 112.585 124.814 185.713C124.814 185.713 77.0557 148.077 52.0078 146.27C47.9945 145.981 47.0029 146.125 47.0029 146.125C60.1761 109.742 51.3704 63.6251 50.1192 52.5898C49.8831 50.614 49.4581 49.6021 49.4581 49.6021V49.6021Z" stroke="#DDD6FE" stroke-width="2.04724" stroke-linecap="round" stroke-linejoin="round"/>
<path d="M43.2021 47.3853L10.0566 113.573L42.4702 131.5" stroke="#DDD6FE" stroke-width="2.04724" stroke-linecap="round" stroke-linejoin="round"/>
<path d="M35.9777 127.91L14.707 140.559L65.5112 171.208L119.219 181.496" stroke="#DDD6FE" stroke-width="2.04724" stroke-linecap="round" stroke-linejoin="round"/>
<path d="M43.2024 139.378L29.3682 147.763" stroke="#DDD6FE" stroke-width="2.04724" stroke-linecap="round" stroke-linejoin="round"/>
<path d="M43.2023 145.161L32.626 151.378" stroke="#DDD6FE" stroke-width="2.04724" stroke-linecap="round" stroke-linejoin="round"/>
<path d="M7.05859 141.21L9.08887 164.582L62.844 196.435L115.655 203.037L124.649 186.17L63.1509 175.039L7.05859 141.21ZM7.05859 141.21L32.6259 126.054" stroke="#DDD6FE" stroke-width="2.04724" stroke-linecap="round" stroke-linejoin="round"/>
<path d="M63.1504 175.039V196.435" stroke="#DDD6FE" stroke-width="2.04724" stroke-linecap="round" stroke-linejoin="round"/>
<path d="M8.42773 157.112L63.1508 189.375L118.275 198.097" stroke="#DDD6FE" stroke-width="2.04724" stroke-linecap="round" stroke-linejoin="round"/>
<path d="M131 247.693V85.9812L2.02362 12.2598V172.782L131 247.693Z" stroke="#E2C8FE" stroke-width="3.07087" stroke-linejoin="round"/>
<path d="M33.7559 31.7087V19.666L0.99995 1V12.4405L33.7559 31.7087Z" fill="#E2C8FE" stroke="#E2C8FE" stroke-width="1.02362" stroke-linejoin="round"/>
<path d="M12.9538 10.6707C13.0375 10.7176 13.1024 10.7717 13.1483 10.8331C13.1942 10.8905 13.2283 10.969 13.2507 11.0687C13.2766 11.1703 13.2909 11.3051 13.2937 11.473C13.297 11.6689 13.2836 11.804 13.2538 11.8784L11.1698 16.5813C11.1365 16.6538 11.0766 16.6875 10.9901 16.6827C10.9071 16.6837 10.8064 16.6511 10.6877 16.5846C10.5866 16.528 10.4869 16.4583 10.3888 16.3756C10.2311 16.2477 10.101 16.1115 9.99834 15.9669C9.89913 15.8202 9.84853 15.6869 9.84654 15.567C9.84575 15.519 9.85532 15.4709 9.87526 15.4226L11.7559 11.2772L9.84057 10.2046L9.85967 11.356C9.86199 11.4959 9.82349 11.5714 9.74418 11.5824C9.66487 11.5935 9.51706 11.5384 9.30076 11.4173C9.07749 11.2923 8.9148 11.1734 8.8127 11.0608C8.71053 10.9442 8.65832 10.8179 8.65607 10.682L8.62206 8.63099C8.61974 8.49106 8.64424 8.40577 8.69558 8.37511C8.75041 8.3464 8.83713 8.36526 8.95574 8.43168L12.9538 10.6707ZM17.1956 12.9155C17.6526 13.1715 18.0431 13.4813 18.3671 13.8449C18.6946 14.2065 18.943 14.5972 19.1124 15.0168C19.2853 15.4384 19.3754 15.8691 19.3827 16.3089C19.3894 16.7127 19.3153 17.0396 19.1605 17.2895C19.0091 17.5414 18.7639 17.7606 18.4248 17.947L17.0223 18.7241L18.498 19.5505L18.4889 18.9988C18.4866 18.8589 18.5251 18.7834 18.6044 18.7724C18.6837 18.7613 18.8315 18.8164 19.0478 18.9375C19.2711 19.0626 19.4338 19.1834 19.536 19.3C19.6381 19.4127 19.6902 19.5369 19.6925 19.6729L19.7166 21.1241C19.7188 21.2601 19.6943 21.3454 19.643 21.38C19.5917 21.4107 19.505 21.3918 19.3829 21.3234L15.3325 19.0551C15.2488 19.0082 15.184 18.9561 15.1381 18.8987C15.0921 18.8373 15.0562 18.7558 15.0303 18.6542C15.0079 18.5545 14.9954 18.4207 14.9926 18.2528C14.9899 18.0929 14.9967 17.9778 15.0128 17.9076C15.0289 17.8375 15.0609 17.79 15.1089 17.7654L17.3128 16.5459C17.5971 16.3883 17.7917 16.2418 17.8966 16.1064C18.005 15.973 18.0574 15.8024 18.054 15.5945C18.0494 15.3186 17.976 15.0577 17.8336 14.8116C17.6913 14.5655 17.4876 14.3683 17.2224 14.2198C16.9189 14.0498 16.6185 13.9648 16.3213 13.9647L16.3352 14.8042C16.3375 14.9442 16.299 15.0196 16.2197 15.0307C16.1404 15.0417 15.9926 14.9867 15.7763 14.8655C15.553 14.7405 15.3903 14.6217 15.2882 14.509C15.1861 14.3924 15.1338 14.2661 15.1316 14.1302L15.108 12.7089C15.1053 12.545 15.1782 12.4591 15.3267 12.4511C15.6339 12.4291 15.9472 12.46 16.2666 12.5438C16.5859 12.6236 16.8956 12.7475 17.1956 12.9155ZM22.1775 15.7055C22.4356 15.8501 22.6758 16.0579 22.8981 16.3289C23.1203 16.5999 23.2981 16.8975 23.4313 17.2216C23.5646 17.5458 23.6337 17.8558 23.6386 18.1517C23.6435 18.4475 23.5835 18.6852 23.4586 18.8648C23.3337 19.0444 23.1625 19.1466 22.9452 19.1714C22.7279 19.1963 22.4901 19.1364 22.232 18.9918C21.9738 18.8472 21.7336 18.6395 21.5113 18.3684C21.2891 18.0974 21.1114 17.7998 20.9781 17.4757C20.8448 17.1515 20.7758 16.8415 20.7709 16.5457C20.7659 16.2498 20.8259 16.0121 20.9508 15.8325C21.0758 15.6529 21.2469 15.5507 21.4642 15.5259C21.6815 15.501 21.9193 15.5609 22.1775 15.7055ZM25.649 18.3983C25.7175 18.3574 25.7848 18.3555 25.8511 18.3926C25.9 18.42 25.9544 18.4742 26.0145 18.5554C26.0781 18.6346 26.1543 18.7505 26.2432 18.9033C26.3997 19.1692 26.4789 19.3581 26.4808 19.4701C26.482 19.546 26.445 19.6065 26.3697 19.6515L21.8633 22.0828C21.7844 22.1218 21.7153 22.1247 21.656 22.0915C21.6072 22.0641 21.551 22.0109 21.4875 21.9317C21.4274 21.8505 21.3546 21.7345 21.2691 21.5837C21.109 21.3039 21.028 21.11 21.0262 21.002C21.0251 20.9341 21.0639 20.8766 21.1426 20.8296L25.649 18.3983ZM22.1961 16.8269C22.0705 16.7566 21.9632 16.748 21.8742 16.8011C21.7886 16.8522 21.747 16.9498 21.7494 17.0937C21.7518 17.2376 21.7975 17.386 21.8864 17.5388C21.9788 17.6895 22.0878 17.8001 22.2134 17.8704C22.3389 17.9407 22.4445 17.9503 22.5301 17.8992C22.6191 17.8461 22.6624 17.7476 22.66 17.6036C22.6576 17.4597 22.6102 17.3124 22.5179 17.1616C22.4289 17.0088 22.3216 16.8973 22.1961 16.8269ZM25.2805 21.5012C25.5387 21.6458 25.7789 21.8536 26.0011 22.1246C26.2234 22.3956 26.4011 22.6932 26.5344 23.0173C26.6677 23.3415 26.7367 23.6515 26.7416 23.9474C26.7465 24.2432 26.6866 24.4809 26.5616 24.6605C26.4367 24.8401 26.2656 24.9423 26.0483 24.9671C25.8309 24.992 25.5932 24.9321 25.335 24.7875C25.0769 24.6429 24.8367 24.4352 24.6144 24.1641C24.3922 23.8931 24.2144 23.5955 24.0812 23.2714C23.9479 22.9472 23.8788 22.6372 23.8739 22.3414C23.869 22.0455 23.929 21.8078 24.0539 21.6282C24.1788 21.4486 24.35 21.3464 24.5673 21.3216C24.7846 21.2967 25.0224 21.3566 25.2805 21.5012ZM25.2991 22.6226C25.1735 22.5523 25.0663 22.5437 24.9773 22.5968C24.8917 22.6479 24.8501 22.7455 24.8525 22.8894C24.8549 23.0333 24.9006 23.1817 24.9895 23.3345C25.0819 23.4852 25.1908 23.5958 25.3164 23.6661C25.442 23.7364 25.5476 23.746 25.6332 23.6949C25.7222 23.6418 25.7655 23.5433 25.7631 23.3993C25.7607 23.2554 25.7133 23.1081 25.6209 22.9573C25.532 22.8045 25.4247 22.693 25.2991 22.6226Z" fill="white"/>
</svg>
