<svg width="135" height="240" viewBox="0 0 135 240" fill="none" xmlns="http://www.w3.org/2000/svg">
<path d="M2.14746 238.6V76.7565L133 1V161.696L2.14746 238.6Z" stroke="#E2C8FE" stroke-width="2.51739" stroke-linejoin="round"/>
<path d="M1 76.1831V64.7049L32.5652 46.9136V57.8179L1 76.1831Z" fill="#E2C8FE" stroke="#E2C8FE" stroke-width="0.83913" stroke-linejoin="round"/>
<path d="M9.81611 61.5412C9.89041 61.4962 9.94829 61.5052 9.98974 61.568C10.0341 61.6291 10.0649 61.7475 10.0822 61.923C10.0889 61.9755 10.0929 62.0477 10.0945 62.1394C10.0992 62.4246 10.043 62.6049 9.92592 62.6804C9.40019 63.0046 8.96533 63.3259 8.62134 63.6442C8.28022 63.9609 8.0158 64.2909 7.8281 64.6342C7.64326 64.9759 7.52534 65.3496 7.47434 65.7552C7.62551 65.4721 7.79615 65.231 7.98624 65.0319C8.17628 64.8296 8.3957 64.6587 8.64451 64.5194C8.96196 64.3416 9.2464 64.2617 9.49782 64.2797C9.74919 64.2944 9.94725 64.4018 10.092 64.6019C10.2368 64.802 10.3121 65.0823 10.3181 65.4428C10.3242 65.8098 10.2467 66.1857 10.0857 66.5703C9.92744 66.95 9.70383 67.3034 9.41484 67.6307C9.12579 67.9546 8.79823 68.2191 8.43216 68.4241C8.07181 68.6259 7.75155 68.7209 7.47136 68.7091C7.19118 68.6974 6.95553 68.5862 6.76442 68.3757C6.64385 68.2414 6.54831 68.0501 6.4778 67.8018C6.41016 67.5519 6.37359 67.2615 6.3681 66.9305C6.35663 66.2389 6.47976 65.5696 6.73747 64.9225C6.99798 64.2705 7.38761 63.6587 7.90636 63.087C8.42505 62.512 9.06163 61.9968 9.81611 61.5412ZM8.41727 65.6985C8.2514 65.7914 8.10466 65.9067 7.97705 66.0443C7.84944 66.1819 7.75086 66.3297 7.68132 66.4878C7.61178 66.6458 7.57826 66.8002 7.58076 66.951C7.58326 67.1017 7.61703 67.2234 7.68207 67.316C7.74996 67.407 7.84602 67.4557 7.97025 67.4622C8.09734 67.4671 8.24382 67.4231 8.40969 67.3302C8.65565 67.1925 8.85178 67.0099 8.99811 66.7824C9.14438 66.5516 9.21548 66.3133 9.2114 66.0675C9.20721 65.8152 9.13389 65.6578 8.99141 65.5953C8.85175 65.528 8.66037 65.5624 8.41727 65.6985ZM13.5268 59.463C13.8758 59.2676 14.183 59.17 14.4485 59.1701C14.7141 59.1703 14.9191 59.2589 15.0634 59.4361C15.2078 59.61 15.2825 59.8493 15.2875 60.1541C15.2925 60.4556 15.2352 60.744 15.1157 61.0194C14.9961 61.2915 14.8271 61.5465 14.6088 61.7846C14.8824 61.7471 15.0969 61.8023 15.2523 61.9501C15.4106 62.0963 15.4927 62.3447 15.4985 62.6954C15.5045 63.0559 15.4296 63.4138 15.2738 63.7689C15.1209 64.1192 14.9026 64.4449 14.6189 64.746C14.3353 65.0471 14.0047 65.3033 13.6272 65.5148C13.2497 65.7262 12.9168 65.8415 12.6284 65.8607C12.3401 65.88 12.1137 65.8033 11.9492 65.6308C11.7875 65.4535 11.7037 65.1845 11.6977 64.824C11.6918 64.47 11.7628 64.1359 11.9105 63.8216C12.0582 63.504 12.2684 63.211 12.5411 62.9425C12.319 62.9544 12.1448 62.8916 12.0184 62.754C11.892 62.6164 11.8263 62.3968 11.8213 62.0953C11.8162 61.7905 11.8817 61.4727 12.0176 61.1418C12.1535 60.8077 12.3518 60.4932 12.6125 60.1984C12.8731 59.9036 13.1779 59.6584 13.5268 59.463ZM13.5446 60.5347C13.3416 60.6485 13.181 60.8029 13.063 60.998C12.945 61.1898 12.8877 61.3889 12.8911 61.5954C12.8945 61.8019 12.9559 61.9345 13.0752 61.9934C13.1945 62.0523 13.3586 62.0233 13.5674 61.9063C13.7761 61.7894 13.9381 61.6359 14.0533 61.4457C14.1685 61.2554 14.2244 61.0571 14.221 60.8506C14.2175 60.6441 14.1547 60.5123 14.0326 60.455C13.9103 60.3945 13.7477 60.421 13.5446 60.5347ZM13.5832 62.8601C13.3372 62.9978 13.1497 63.1756 13.0205 63.3935C12.8913 63.6114 12.8288 63.8416 12.8328 64.0841C12.8368 64.3266 12.9058 64.4815 13.0397 64.5488C13.1735 64.616 13.3635 64.5808 13.6094 64.4431C13.8554 64.3053 14.043 64.1291 14.1722 63.9145C14.3014 63.6999 14.364 63.4714 14.36 63.2288C14.356 62.9863 14.287 62.8298 14.153 62.7593C14.0191 62.6887 13.8291 62.7223 13.5832 62.8601ZM17.5507 57.2095C17.7624 57.091 17.9593 57.0419 18.1415 57.0623C18.3237 57.0827 18.4694 57.1665 18.5786 57.3137C18.6879 57.4609 18.7445 57.6558 18.7485 57.8983C18.7525 58.1408 18.7033 58.3949 18.6009 58.6607C18.4986 58.9264 18.3583 59.1704 18.1801 59.3925C18.0019 59.6147 17.8071 59.7851 17.5954 59.9036C17.3838 60.0221 17.1869 60.0712 17.0047 60.0508C16.8225 60.0304 16.6768 59.9467 16.5675 59.7994C16.4583 59.6522 16.4017 59.4574 16.3977 59.2148C16.3936 58.9723 16.4428 58.7182 16.5452 58.4524C16.6476 58.1867 16.7879 57.9427 16.966 57.7206C17.1442 57.4984 17.3391 57.3281 17.5507 57.2095ZM20.3966 56.241C20.4527 56.1434 20.508 56.0794 20.5623 56.0489C20.6023 56.0265 20.647 56.0214 20.6963 56.0335C20.7483 56.0407 20.8108 56.0669 20.8837 56.1121C21.012 56.1891 21.0769 56.2735 21.0784 56.3652C21.0795 56.4275 21.0491 56.5123 20.9874 56.6196L17.2932 62.8266C17.2285 62.9323 17.1719 62.9987 17.1233 63.0259C17.0833 63.0484 17.0372 63.056 16.9851 63.0487C16.9359 63.0366 16.8762 63.0072 16.8061 62.9604C16.6748 62.8752 16.6085 62.7883 16.607 62.6998C16.6061 62.6441 16.6379 62.5602 16.7024 62.4479L20.3966 56.241ZM17.566 58.1289C17.463 58.1865 17.3751 58.2788 17.3021 58.4056C17.232 58.5276 17.1979 58.6476 17.1999 58.7656C17.2018 58.8836 17.2393 58.9651 17.3122 59.0103C17.3879 59.0506 17.4772 59.0419 17.5802 58.9843C17.6831 58.9266 17.7697 58.8368 17.8398 58.7148C17.9128 58.588 17.9483 58.4655 17.9463 58.3475C17.9443 58.2296 17.9055 58.1504 17.8298 58.1101C17.7569 58.065 17.6689 58.0712 17.566 58.1289ZM20.0945 59.1738C20.3062 59.0553 20.5031 59.0062 20.6853 59.0266C20.8675 59.047 21.0132 59.1307 21.1224 59.278C21.2317 59.4252 21.2883 59.62 21.2923 59.8626C21.2963 60.1051 21.2471 60.3592 21.1448 60.625C21.0424 60.8907 20.9021 61.1347 20.7239 61.3568C20.5458 61.579 20.3509 61.7493 20.1392 61.8679C19.9276 61.9864 19.7307 62.0355 19.5485 62.0151C19.3663 61.9947 19.2206 61.9109 19.1114 61.7637C19.0021 61.6165 18.9455 61.4216 18.9415 61.1791C18.9374 60.9366 18.9866 60.6825 19.089 60.4167C19.1914 60.151 19.3317 59.907 19.5099 59.6849C19.688 59.4627 19.8829 59.2923 20.0945 59.1738ZM20.1098 60.0931C20.0068 60.1508 19.9189 60.2431 19.8459 60.3699C19.7758 60.4919 19.7417 60.6119 19.7437 60.7299C19.7456 60.8478 19.7831 60.9294 19.856 60.9746C19.9317 61.0149 20.021 61.0062 20.124 60.9485C20.2269 60.8909 20.3135 60.8011 20.3836 60.6791C20.4566 60.5522 20.4921 60.4298 20.4901 60.3118C20.4881 60.1938 20.4493 60.1147 20.3736 60.0744C20.3007 60.0292 20.2127 60.0355 20.1098 60.0931Z" fill="white"/>
<path d="M127.176 152.558C127.176 153.28 127.15 154.003 127.176 154.725C127.253 156.364 126.45 157.441 125.161 158.23C123.05 159.514 120.926 160.785 118.814 162.069C115.453 164.109 112.111 166.196 108.724 168.183C107.701 168.785 106.775 169.554 105.719 170.076C101.729 172.062 97.9988 174.53 94.1582 176.791C88.8798 179.901 83.5561 182.944 78.3101 186.121C75.8749 187.6 73.5174 189.238 70.9527 190.462C67.7209 192.001 64.4567 191.767 61.3804 189.987C56.2121 186.998 51.0956 183.914 45.9727 180.844C39.3601 176.885 32.7735 172.891 26.1609 168.938C21.5432 166.176 16.893 163.467 12.2623 160.732C10.7273 159.829 9.18591 158.932 7.68335 157.983C5.54609 156.638 5.68209 154.371 5.59142 152.21C5.57847 151.943 5.77924 151.655 5.73391 151.401C5.27407 148.525 6.93207 147.033 9.06933 145.782C16.0834 141.669 23.0716 137.529 30.0728 133.395C31.6012 132.492 33.1362 131.609 34.6452 130.68C35.6879 130.038 36.3485 129.235 36.6011 127.85C37.0286 125.529 37.7475 123.249 38.5182 121.015C38.991 119.657 39.25 118.252 39.684 116.881C40.9275 112.941 41.9767 108.935 43.0906 104.955C43.7512 102.574 44.36 100.153 45.066 97.7918C45.8043 95.3237 46.4649 92.8221 47.2162 90.354C47.9221 88.0465 48.5439 85.7054 49.1721 83.3644C49.8586 80.8094 50.6164 78.2744 51.3482 75.7261C52.0153 73.3917 52.6824 71.0574 53.3559 68.7231C54.1331 66.0276 54.8974 63.3187 55.6422 60.6165C56.2639 58.3825 57.0152 56.1819 57.5398 53.9212C58.0126 51.8879 59.3727 50.617 61.0436 49.8679C65.072 48.0553 69.2235 48.1757 73.2325 49.9348C75.5122 50.9314 76.5031 53.1119 77.1184 55.5064C77.8567 58.3825 78.7052 61.2252 79.5406 64.0745C80.1753 66.2416 80.7258 68.4355 81.3541 70.6093C81.8592 72.355 82.468 74.074 82.8437 75.8464C83.3747 78.3346 84.2426 80.7224 84.9162 83.1638C85.3695 84.8025 85.7775 86.4613 86.2827 88.0866C86.9563 90.2336 87.4938 92.4342 88.1156 94.608C88.9057 97.3637 89.7282 100.106 90.4925 102.868C91.451 106.326 92.3448 109.798 93.3098 113.249C94.0222 115.791 94.8123 118.312 95.5377 120.847C96.2048 123.175 96.8719 125.503 97.4612 127.857C97.6814 128.727 97.9794 129.549 98.3032 130.372C98.5169 130.907 98.8861 131.288 99.3718 131.576C104.015 134.298 108.659 137.007 113.283 139.756C116.936 141.93 120.511 144.251 124.216 146.304C126.418 147.528 127.584 149.093 127.182 151.722C127.143 151.996 127.182 152.277 127.182 152.558H127.176ZM97.8693 134.546C97.3641 134.887 96.9496 135.181 96.7812 135.756C96.3473 137.221 95.4535 138.405 94.482 139.502C89.8772 144.706 83.8864 147.107 77.3969 148.578C74.8063 149.167 72.1897 149.327 69.5732 149.495C66.3414 149.702 63.0837 149.628 59.9102 149.127C56.0049 148.511 52.1254 147.562 48.505 145.816C44.6839 143.977 41.1995 141.656 38.6736 138.057C38.0389 137.161 37.4431 136.245 37.1581 135.148C37.0739 134.82 36.8472 134.552 36.4586 134.566C36.0182 134.579 35.9405 134.987 35.9405 135.275C35.9405 136.318 35.3835 137.174 35.1245 138.124C34.3797 140.826 33.6219 143.522 32.8836 146.231C32.2683 148.471 32.1129 150.812 32.767 152.979C33.9328 156.825 36.3356 159.842 39.5026 162.216C42.3329 164.337 45.4351 165.942 48.6864 167.199C50.6811 167.969 52.7536 168.604 54.8456 169.005C58.0579 169.621 61.2897 170.096 64.5863 170.203C69.8258 170.37 75.02 170.116 80.117 168.905C83.174 168.176 86.1597 167.179 89.0288 165.775C92.2994 164.163 95.3758 162.27 97.8304 159.521C100.162 156.912 101.781 153.876 101.671 150.143C101.619 148.424 101.347 146.792 100.81 145.127C99.6956 141.689 98.8602 138.164 97.8757 134.546H97.8693ZM35.254 132.164C34.846 132.325 34.6323 132.372 34.4509 132.479C32.0481 133.924 29.6712 135.402 27.2555 136.82C21.4525 140.238 15.6301 143.615 9.84004 147.047C9.20534 147.428 8.57711 147.876 8.03956 148.445C6.86083 149.695 6.91911 150.759 8.37634 151.668C11.2649 153.454 14.1858 155.193 17.1067 156.926C21.867 159.755 26.6467 162.544 31.4005 165.38C36.491 168.41 41.5622 171.487 46.6462 174.523C51.2705 177.286 55.8883 180.068 60.5514 182.77C62.4879 183.894 64.379 185.118 66.8272 184.991C68.8608 184.891 70.5317 184.148 72.2221 183.118C76.9111 180.269 81.6585 177.52 86.3734 174.717C89.521 172.845 92.6492 170.938 95.7903 169.066C99.3524 166.945 102.927 164.852 106.49 162.731C109.721 160.812 112.947 158.872 116.178 156.946C118.853 155.347 121.56 153.789 124.203 152.13C126.178 150.886 126.198 149.294 124.222 148.043C121.593 146.378 118.892 144.833 116.211 143.254C113.018 141.375 109.806 139.522 106.619 137.629C104.534 136.392 102.487 135.094 100.415 133.837C100.143 133.669 99.7928 133.435 99.5143 133.616C99.1322 133.857 99.2552 134.312 99.3783 134.679C99.5402 135.148 99.8122 135.582 99.9223 136.064C100.57 138.967 101.49 141.783 102.293 144.632C102.72 146.144 103.264 147.669 103.303 149.301C103.387 152.739 102.377 155.815 100.427 158.558C97.3511 162.872 93.1414 165.641 88.4329 167.661C85.4731 168.932 82.4227 169.868 79.2557 170.524C75.7648 171.246 72.2739 171.741 68.7377 171.895C63.9969 172.102 59.3144 171.44 54.6707 170.43C50.3055 169.48 46.1022 168.076 42.2357 165.781C38.434 163.527 34.9561 160.825 32.78 156.772C31.1867 153.802 30.416 150.679 31.1997 147.18C32.3201 142.177 34.0947 137.375 35.254 132.158V132.164ZM42.0285 115.095C40.9534 116.807 40.7914 118.667 40.2345 120.372C39.4055 122.934 38.9262 125.63 38.0583 128.171C37.1516 130.827 37.7216 133.281 38.8614 135.536C40.9016 139.562 44.3471 142.09 48.2654 143.977C50.9337 145.261 53.7057 146.17 56.6072 146.799C60.3506 147.608 64.12 148.117 67.9217 148.037C71.3413 147.97 74.7415 147.522 78.1093 146.752C80.959 146.104 83.6791 145.181 86.2762 143.883C90.6673 141.689 94.4237 138.806 96.0234 133.716C96.5934 131.91 96.6452 130.111 96.1012 128.325C95.2981 125.703 94.6504 123.035 93.8603 120.419C93.4976 119.209 93.0442 118.045 92.8823 116.774C92.8175 116.266 92.4808 115.771 91.8979 115.543C91.6842 116.032 91.5417 116.513 91.2891 116.908C88.1415 121.764 83.5043 124.279 78.2388 125.871C76.3671 126.432 74.4306 126.519 72.5654 126.967C67.695 128.131 62.9348 127.282 58.1875 126.426C55.8948 126.011 53.6539 125.162 51.5101 124.131C47.4817 122.192 44.1204 119.51 42.022 115.095H42.0285ZM47.0284 96.153C46.8405 97.8586 46.2188 99.3301 45.8108 100.862C44.93 104.159 43.9002 107.41 43.1165 110.741C42.715 112.433 43.2072 113.938 43.8289 115.369C44.7486 117.483 46.3613 119.062 48.1812 120.379C50.4545 122.025 52.9415 123.188 55.6227 124.011C58.1486 124.787 60.6809 125.496 63.3169 125.616C68.6924 125.864 74.0356 125.797 79.2233 123.938C82.9279 122.613 86.3799 120.888 88.8798 117.69C90.6479 115.43 91.6518 112.895 90.7904 109.825C90.1816 107.651 89.4238 105.517 88.9316 103.317C88.4005 100.909 87.5068 98.6211 86.9822 96.133C86.0884 96.6681 85.8099 97.551 85.2594 98.1998C81.6973 102.407 76.9176 104.139 71.8141 104.801C66.6264 105.477 61.4387 105.25 56.4388 103.236C53.1357 101.912 50.163 100.206 48.1682 97.0493C47.9351 96.6881 47.6954 96.3002 47.0284 96.1464V96.153ZM53.0645 76.8096C52.514 77.1909 52.1254 77.6524 52.0736 78.1941C51.957 79.485 51.4065 80.6355 51.1151 81.8729C50.4804 84.5684 49.5931 87.1836 48.8483 89.839C48.382 91.5045 48.0322 93.2368 48.6799 94.9157C49.5866 97.2634 51.3353 98.9355 53.3948 100.146C57.4297 102.514 61.8985 103.45 66.4774 103.604C69.7999 103.711 73.09 103.203 76.2959 102.166C78.9254 101.317 81.2699 100.066 83.3294 98.1061C85.6933 95.8521 86.1337 93.1766 85.3242 90.2203C84.5017 87.2037 83.5431 84.2273 82.8048 81.1773C82.5457 80.1138 82.073 79.1038 81.9175 77.9935C81.8657 77.6189 81.6714 77.2377 81.2634 77.1106C80.7194 76.9367 80.7129 77.4852 80.4862 77.7527C78.5432 80.1071 75.985 81.4047 73.1483 82.1605C69.2818 83.1838 65.4088 83.3577 61.5164 82.2608C58.2004 81.3311 55.137 80.0001 53.058 76.8163L53.0645 76.8096ZM58.1097 57.2856C57.4621 59.4861 56.8015 61.6398 56.1992 63.807C55.5062 66.2951 54.9362 68.8301 54.1655 71.2915C53.2264 74.2813 53.615 76.007 56.0308 77.9734C58.4206 79.9198 61.2444 80.8629 64.1912 81.1304C67.3906 81.4181 70.6224 81.4649 73.7635 80.3211C75.9202 79.5386 77.8891 78.5353 79.3981 76.716C80.6028 75.2645 80.7647 73.5656 80.1753 71.8801C79.2751 69.3317 78.6922 66.6964 77.9539 64.1013C77.3256 61.894 76.6974 59.6935 75.998 57.4862C69.9748 61.7268 64.0746 61.8071 58.1227 57.2856H58.1097ZM125.692 153.267C125.025 153.454 124.378 153.688 123.775 154.056C120.149 156.264 116.528 158.491 112.882 160.671C109.242 162.852 105.563 164.959 101.917 167.133C96.697 170.249 91.4963 173.4 86.2762 176.523C81.6131 179.312 76.963 182.135 72.248 184.837C69.774 186.255 67.1769 187.098 64.2365 186.142C62.326 185.519 60.7004 184.423 58.9582 183.493C55.2147 181.48 51.6526 179.152 47.9804 177.025C42.2487 173.714 36.6206 170.223 30.9341 166.818C25.1571 163.36 19.367 159.922 13.5835 156.471C11.783 155.394 9.96309 154.351 8.18852 153.234C7.48905 152.792 7.26885 152.933 7.18465 153.742C7.04217 155.093 7.50848 156.103 8.61597 156.799C10.0732 157.708 11.5175 158.651 13.0135 159.487C18.3178 162.444 23.4667 165.674 28.6933 168.758C34.2178 172.015 39.684 175.373 45.1955 178.657C50.8301 182.015 56.4776 185.346 62.1317 188.67C64.4697 190.048 66.8919 190.563 69.5085 189.452C72.1444 188.335 74.5083 186.697 76.9694 185.265C82.604 181.988 88.1739 178.59 93.7761 175.252C99.4107 171.895 105.045 168.537 110.68 165.193C114.838 162.725 119.048 160.337 123.167 157.789C125.427 156.391 126.366 155.782 125.692 153.26V153.267ZM66.5681 50.0217C65.1174 49.7475 63.4205 50.6304 61.7107 51.1922C60.3118 51.6538 59.1978 52.8042 58.997 54.4095C58.8222 55.8141 59.7418 56.8709 60.8169 57.4862C64.2884 59.4527 67.9735 59.66 71.6846 58.3089C72.9216 57.8608 74.0485 57.0916 74.8451 55.8876C75.2985 55.2054 75.4021 54.4764 75.0783 53.8677C74.6508 53.0651 74.1327 52.2557 73.2843 51.7875C71.3219 50.704 69.2494 50.0686 66.5616 50.0284L66.5681 50.0217Z" fill="#FBCFE8" stroke="#DDD6FE" stroke-width="0.83913" stroke-miterlimit="10"/>
</svg>
