<svg xmlns="http://www.w3.org/2000/svg" width="541" height="246" fill="none" xmlns:v="https://vecta.io/nano"><style><![CDATA[.B{fill:#1f2937}.C{fill:#365314}.D{fill:#f3f4f6}.E{stroke:#1f2937}.F{fill:#7c2d12}]]></style><rect x="14.5" y="46.5" width="59" height="199" rx="1.5" fill="#fff7ed"/><rect x="14.5" y="46.5" width="59" height="199" rx="1.5" stroke="#7c2d12"/><path d="M41.75 99.938h-5.625v3.938h3.976c.777-1.346 2.232-2.25 3.899-2.25a4.5 4.5 0 0 1 3.899 2.25h3.976V98.25h-7.499l-1.951 1.463c-.193.148-.432.225-.675.225zM36.125 105v6.75h15.75V105h-3.516c.091.359.141.738.141 1.125a4.5 4.5 0 1 1-9 0c0-.387.049-.766.141-1.125h-3.516zm5.625-6.187L44 97.125h7.875H53v1.125 13.5 1.125h-1.125-15.75H35v-1.125-11.812-1.125h1.125 5.625zm5.625 7.313c0-.895-.356-1.754-.989-2.386s-1.491-.989-2.386-.989-1.754.356-2.386.989-.989 1.491-.989 2.386.356 1.754.989 2.386 1.491.989 2.386.989 1.754-.356 2.386-.989.989-1.491.989-2.386zm-10.125-9h3.375v1.125H37.25v-1.125z" class="F"/><g clip-path="url(#D)" class="F"><path d="M35 145l.5-.878L39 138l12.878 5.059L53 143.5l-.994.684L45 149l-3.047-1.219-1.484 3.897-.125.322H40h-4v1.5.5h-1v-.5-2-2-.5h1v.5 1.5h3.656l1.369-3.591-5.087-2.034L35 145zm9.875 2.872l6.006-4.128-11.441-4.497-3 5.25 8.438 3.375h-.003zm2.55 1.015l-.309-.131.978-.669 2.616 1.101.978-2.376-1.112-.431.997-.684.494.194.934.359-.381.925-.987 2.4-.381.925-.922-.387-2.906-1.222.003-.004z"/></g><path d="M50.752 179.125V191.5H47.69h-7.376-3.062v-12.375h13.5zm-13.5 13.5h2.436l-1.248 2.25-.626 1.125h1.287 9.802 1.287l-.626-1.125-1.251-2.25h2.436 1.125V191.5v-12.375V178h-1.121-13.5-1.125v1.125V191.5v1.125h1.125zm2.475 2.25l1.252-2.25h6.05l1.252 2.25h-8.55-.004zm7.65-9.563c0 .444-.087.883-.257 1.292s-.418.782-.732 1.095a3.39 3.39 0 0 1-1.095.732c-.41.169-.848.257-1.292.257s-.882-.088-1.291-.257a3.39 3.39 0 0 1-1.095-.732c-.313-.313-.562-.685-.732-1.095s-.257-.848-.257-1.292a3.37 3.37 0 0 1 .257-1.291c.17-.41.418-.782.732-1.095a3.39 3.39 0 0 1 1.095-.732c.409-.169.848-.256 1.291-.256s.882.087 1.292.256a3.39 3.39 0 0 1 1.095.732c.313.313.562.685.732 1.095a3.37 3.37 0 0 1 .257 1.291zm-3.375-4.5a4.5 4.5 0 0 0-3.182 1.319c-.844.843-1.318 1.988-1.318 3.181a4.5 4.5 0 0 0 4.5 4.5 4.5 4.5 0 0 0 4.5-4.5c0-1.193-.474-2.338-1.318-3.181a4.5 4.5 0 0 0-3.182-1.319z" class="F"/><g class="B"><path d="M173.594 14v-1.072h2.784V3.904h-2.784V2.832h6.912v1.072h-2.784v9.024h2.784V14h-6.912zm9.818 0V5.744h1.28v1.344h.064c.085-.203.192-.395.32-.576a2.04 2.04 0 0 1 .464-.496c.192-.139.416-.251.672-.336s.554-.128.896-.128c.864 0 1.557.277 2.08.832.522.544.784 1.317.784 2.32V14h-1.28V8.928c0-.757-.166-1.317-.496-1.68-.331-.373-.816-.56-1.456-.56-.256 0-.507.032-.752.096s-.464.16-.656.288-.347.293-.464.496-.176.437-.176.704V14h-1.28zm9.354-1.088h2.783v-6.08h-2.943V5.744h2.943V4.048c0-.555.145-1.008.433-1.36.298-.352.762-.528 1.392-.528h2.768v1.088h-3.312v2.496h3.312v1.088h-3.312v6.08h2.944V14h-7.008v-1.088zm13.209 1.28c-.597 0-1.136-.101-1.616-.304a3.53 3.53 0 0 1-1.216-.864 4.16 4.16 0 0 1-.768-1.36 5.5 5.5 0 0 1-.272-1.776c0-.661.091-1.259.272-1.792.192-.533.454-.987.784-1.36a3.32 3.32 0 0 1 1.184-.88c.47-.203.987-.304 1.552-.304.555 0 1.056.101 1.504.304a3.33 3.33 0 0 1 1.168.848c.32.352.566.773.736 1.264s.256 1.029.256 1.616v.608h-6.112v.384c0 .363.059.699.176 1.008s.283.576.496.8c.224.224.491.4.8.528.32.117.672.176 1.056.176.555 0 1.035-.128 1.44-.384s.715-.608.928-1.056l.944.64c-.245.555-.656 1.013-1.232 1.376-.565.352-1.258.528-2.08.528zm-.08-7.584c-.352 0-.677.064-.976.192s-.56.304-.784.528a2.58 2.58 0 0 0-.512.8c-.117.299-.176.629-.176.992v.112h4.736v-.176c0-.363-.058-.693-.176-.992-.106-.299-.261-.555-.464-.768a1.85 1.85 0 0 0-.72-.512c-.277-.117-.586-.176-.928-.176zm5.962 6.304h2.416v-6.08h-2.416V5.744h3.696v2.08h.08c.171-.651.491-1.157.96-1.52.48-.373 1.088-.56 1.824-.56h1.152v1.28h-1.552c-.736 0-1.333.213-1.792.64-.448.427-.672.987-.672 1.68v3.568h3.2V14h-6.896v-1.088zm13.306 1.28c-.598 0-1.136-.101-1.616-.304a3.51 3.51 0 0 1-1.216-.864c-.331-.384-.587-.837-.768-1.36-.182-.533-.272-1.125-.272-1.776 0-.661.09-1.259.272-1.792.192-.533.453-.987.784-1.36a3.3 3.3 0 0 1 1.184-.88 3.87 3.87 0 0 1 1.552-.304 3.61 3.61 0 0 1 1.504.304c.458.203.848.485 1.168.848.32.352.565.773.736 1.264s.256 1.029.256 1.616v.608h-6.112v.384c0 .363.058.699.176 1.008a2.34 2.34 0 0 0 .496.8c.224.224.49.4.8.528.32.117.672.176 1.056.176.554 0 1.034-.128 1.44-.384s.714-.608.928-1.056l.944.64c-.246.555-.656 1.013-1.232 1.376-.566.352-1.259.528-2.08.528zm-.08-7.584a2.45 2.45 0 0 0-.976.192c-.299.128-.56.304-.784.528a2.56 2.56 0 0 0-.512.8c-.118.299-.176.629-.176.992v.112h4.736v-.176c0-.363-.059-.693-.176-.992-.107-.299-.262-.555-.464-.768a1.85 1.85 0 0 0-.72-.512c-.278-.117-.587-.176-.928-.176zM231.381 14V5.744h1.28v1.344h.064c.085-.203.192-.395.32-.576a2.04 2.04 0 0 1 .464-.496c.192-.139.416-.251.672-.336s.554-.128.896-.128c.864 0 1.557.277 2.08.832.522.544.784 1.317.784 2.32V14h-1.28V8.928c0-.757-.166-1.317-.496-1.68-.331-.373-.816-.56-1.456-.56-.256 0-.507.032-.752.096s-.464.16-.656.288-.347.293-.464.496-.176.437-.176.704V14h-1.28zm13.113.192c-.597 0-1.13-.101-1.6-.304a3.42 3.42 0 0 1-1.168-.88c-.32-.373-.565-.827-.736-1.36-.16-.533-.24-1.125-.24-1.776s.086-1.243.256-1.776.416-.987.736-1.36a3.17 3.17 0 0 1 1.168-.88c.459-.203.982-.304 1.568-.304.8 0 1.451.176 1.952.528a3.09 3.09 0 0 1 1.104 1.376L246.51 8a1.91 1.91 0 0 0-.752-.992c-.341-.235-.768-.352-1.28-.352-.373 0-.709.064-1.008.192-.288.117-.533.288-.736.512s-.357.491-.464.8c-.096.309-.144.645-.144 1.008v1.408c0 .363.048.699.144 1.008.107.309.262.576.464.8s.454.4.752.528c.299.117.64.176 1.024.176.555 0 1.014-.128 1.376-.384s.651-.608.864-1.056l.912.624c-.245.555-.629 1.013-1.152 1.376-.512.363-1.184.544-2.016.544zm9.45 0c-.597 0-1.136-.101-1.616-.304a3.52 3.52 0 0 1-1.216-.864c-.331-.384-.587-.837-.768-1.36a5.5 5.5 0 0 1-.272-1.776c0-.661.091-1.259.272-1.792.192-.533.453-.987.784-1.36a3.31 3.31 0 0 1 1.184-.88c.469-.203.987-.304 1.552-.304.555 0 1.056.101 1.504.304a3.33 3.33 0 0 1 1.168.848c.32.352.565.773.736 1.264s.256 1.029.256 1.616v.608h-6.112v.384c0 .363.059.699.176 1.008s.283.576.496.8c.224.224.491.4.8.528.32.117.672.176 1.056.176.555 0 1.035-.128 1.44-.384a2.48 2.48 0 0 0 .928-1.056l.944.64c-.245.555-.656 1.013-1.232 1.376-.565.352-1.259.528-2.08.528zm-.08-7.584c-.352 0-.677.064-.976.192s-.56.304-.784.528a2.58 2.58 0 0 0-.512.8c-.117.299-.176.629-.176.992v.112h4.736v-.176c0-.363-.059-.693-.176-.992-.107-.299-.261-.555-.464-.768a1.85 1.85 0 0 0-.72-.512 2.36 2.36 0 0 0-.928-.176zm19.092 7.584c-1.003 0-1.824-.181-2.464-.544-.64-.373-1.168-.848-1.584-1.424l.976-.8c.437.544.896.949 1.376 1.216.49.267 1.072.4 1.744.4.81 0 1.429-.187 1.856-.56s.64-.896.64-1.568c0-.544-.155-.965-.464-1.264-.31-.309-.848-.528-1.616-.656l-1.248-.208c-.544-.096-1.003-.24-1.376-.432-.363-.192-.656-.421-.88-.688-.224-.277-.384-.576-.48-.896-.096-.331-.144-.672-.144-1.024 0-1.024.336-1.797 1.007-2.32s1.579-.784 2.721-.784c.896 0 1.648.149 2.256.448.618.299 1.114.72 1.488 1.264l-.944.816c-.31-.405-.683-.736-1.12-.992s-1.003-.384-1.696-.384c-.758 0-1.339.16-1.744.48s-.608.8-.608 1.44c0 .501.149.912.448 1.232.309.309.858.533 1.648.672l1.2.208c.544.096 1.002.24 1.376.432s.672.421.896.688c.234.267.4.565.496.896a3.71 3.71 0 0 1 .144 1.04c0 1.035-.342 1.845-1.024 2.432-.672.587-1.632.88-2.88.88zm9.769 0c-.597 0-1.136-.101-1.616-.304a3.53 3.53 0 0 1-1.216-.864 4.16 4.16 0 0 1-.768-1.36 5.5 5.5 0 0 1-.272-1.776c0-.661.091-1.259.272-1.792.192-.533.454-.987.784-1.36a3.32 3.32 0 0 1 1.184-.88c.47-.203.987-.304 1.552-.304.555 0 1.056.101 1.504.304a3.33 3.33 0 0 1 1.168.848c.32.352.566.773.736 1.264s.256 1.029.256 1.616v.608h-6.112v.384c0 .363.059.699.176 1.008s.283.576.496.8c.224.224.491.4.8.528.32.117.672.176 1.056.176.555 0 1.035-.128 1.44-.384s.715-.608.928-1.056l.944.64c-.245.555-.656 1.013-1.232 1.376-.565.352-1.258.528-2.08.528zm-.08-7.584c-.352 0-.677.064-.976.192s-.56.304-.784.528a2.58 2.58 0 0 0-.512.8c-.117.299-.176.629-.176.992v.112h4.736v-.176c0-.363-.058-.693-.176-.992-.106-.299-.261-.555-.464-.768a1.85 1.85 0 0 0-.72-.512c-.277-.117-.586-.176-.928-.176zm5.962 6.304h2.416v-6.08h-2.416V5.744h3.696v2.08h.08c.171-.651.491-1.157.96-1.52.48-.373 1.088-.56 1.824-.56h1.152v1.28h-1.552c-.736 0-1.333.213-1.792.64-.448.427-.672.987-.672 1.68v3.568h3.2V14h-6.896v-1.088zM300.953 14l-2.96-8.256h1.296l1.184 3.456 1.28 3.728h.064l1.28-3.728 1.184-3.456h1.264L302.585 14h-1.632zm10.554.192c-.598 0-1.136-.101-1.616-.304-.47-.203-.875-.491-1.217-.864a4.14 4.14 0 0 1-.767-1.36c-.182-.533-.272-1.125-.272-1.776 0-.661.09-1.259.272-1.792.192-.533.453-.987.784-1.36a3.3 3.3 0 0 1 1.184-.88 3.87 3.87 0 0 1 1.552-.304 3.61 3.61 0 0 1 1.504.304c.458.203.848.485 1.168.848.32.352.565.773.736 1.264s.256 1.029.256 1.616v.608h-6.112v.384c0 .363.058.699.176 1.008a2.34 2.34 0 0 0 .496.8c.224.224.49.4.8.528.32.117.672.176 1.056.176.554 0 1.034-.128 1.44-.384s.714-.608.928-1.056l.944.64c-.246.555-.656 1.013-1.232 1.376-.566.352-1.259.528-2.08.528zm-.08-7.584a2.45 2.45 0 0 0-.976.192c-.299.128-.56.304-.784.528a2.56 2.56 0 0 0-.512.8c-.118.299-.176.629-.176.992v.112h4.736v-.176c0-.363-.059-.693-.176-.992-.107-.299-.262-.555-.464-.768a1.85 1.85 0 0 0-.72-.512c-.278-.117-.587-.176-.928-.176zm5.961 6.304h2.416v-6.08h-2.416V5.744h3.696v2.08h.08c.171-.651.491-1.157.96-1.52.48-.373 1.088-.56 1.824-.56h1.152v1.28h-1.552c-.736 0-1.333.213-1.792.64-.448.427-.672.987-.672 1.68v3.568h3.2V14h-6.896v-1.088z"/><path d="M378.893 14V2.832h6.88V4h-5.536v3.76h5.344v1.168h-5.344v3.904h5.536V14h-6.88zm9.13 0l3.072-4.192-2.992-4.064h1.536l1.248 1.744.992 1.376h.064l.96-1.376 1.232-1.744h1.472l-3.024 4.048L395.687 14h-1.536l-1.392-1.936-.944-1.312h-.064l-.912 1.312L389.495 14h-1.472zm13.818 0c-.63 0-1.094-.176-1.392-.528-.288-.352-.432-.805-.432-1.36v-5.28h-2.752V5.744h2.048c.277 0 .469-.053.576-.16.117-.117.176-.315.176-.592v-2.16h1.232v2.912h3.76v1.088h-3.76v6.08h3.76V14h-3.216zm9.337.192c-.597 0-1.136-.101-1.616-.304a3.53 3.53 0 0 1-1.216-.864 4.16 4.16 0 0 1-.768-1.36 5.5 5.5 0 0 1-.272-1.776c0-.661.091-1.259.272-1.792.192-.533.454-.987.784-1.36a3.32 3.32 0 0 1 1.184-.88c.47-.203.987-.304 1.552-.304.555 0 1.056.101 1.504.304a3.33 3.33 0 0 1 1.168.848c.32.352.566.773.736 1.264s.256 1.029.256 1.616v.608h-6.112v.384c0 .363.059.699.176 1.008s.283.576.496.8c.224.224.491.4.8.528.32.117.672.176 1.056.176.555 0 1.035-.128 1.44-.384s.715-.608.928-1.056l.944.64c-.245.555-.656 1.013-1.232 1.376-.565.352-1.258.528-2.08.528zm-.08-7.584c-.352 0-.677.064-.976.192s-.56.304-.784.528a2.58 2.58 0 0 0-.512.8c-.117.299-.176.629-.176.992v.112h4.736v-.176c0-.363-.058-.693-.176-.992-.106-.299-.261-.555-.464-.768a1.85 1.85 0 0 0-.72-.512c-.277-.117-.586-.176-.928-.176zm5.962 6.304h2.416v-6.08h-2.416V5.744h3.696v2.08h.08c.171-.651.491-1.157.96-1.52.48-.373 1.088-.56 1.824-.56h1.152v1.28h-1.552c-.736 0-1.333.213-1.792.64-.448.427-.672.987-.672 1.68v3.568h3.2V14h-6.896v-1.088zM426.99 14V5.744h1.28v1.344h.064c.085-.203.192-.395.32-.576a2.06 2.06 0 0 1 .464-.496c.192-.139.416-.251.672-.336s.555-.128.896-.128c.864 0 1.557.277 2.08.832.523.544.784 1.317.784 2.32V14h-1.28V8.928c0-.757-.165-1.317-.496-1.68-.331-.373-.816-.56-1.456-.56-.256 0-.507.032-.752.096s-.464.16-.656.288-.347.293-.464.496-.176.437-.176.704V14h-1.28zm15.946 0c-.502 0-.859-.128-1.072-.384s-.347-.576-.4-.96h-.08c-.182.48-.475.859-.88 1.136-.395.267-.928.4-1.6.4-.864 0-1.552-.224-2.064-.672s-.768-1.061-.768-1.84c0-.768.277-1.36.832-1.776.565-.416 1.472-.624 2.72-.624h1.76v-.816c0-.608-.171-1.061-.512-1.36-.342-.309-.827-.464-1.456-.464-.555 0-1.008.112-1.36.336-.352.213-.635.507-.848.88l-.864-.64a2.81 2.81 0 0 1 .432-.624c.181-.203.405-.379.672-.528.266-.16.57-.283.912-.368.341-.096.72-.144 1.136-.144.97 0 1.738.245 2.304.736.576.491.864 1.173.864 2.048v4.544h1.152V14h-.88zm-3.808-.88c.33 0 .629-.037.896-.112.277-.085.517-.192.72-.32.202-.139.357-.299.464-.48a1.15 1.15 0 0 0 .176-.608v-1.36h-1.76c-.768 0-1.328.107-1.68.32a1.02 1.02 0 0 0-.528.928v.336c0 .427.149.752.448.976.309.213.73.32 1.264.32zm6.761-.208h2.88V3.248h-2.88V2.16h4.16v10.752h2.88V14h-7.04v-1.088zm22.676 1.28c-1.003 0-1.824-.181-2.464-.544-.64-.373-1.168-.848-1.584-1.424l.976-.8c.437.544.896.949 1.376 1.216.491.267 1.072.4 1.744.4.811 0 1.429-.187 1.856-.56s.64-.896.64-1.568c0-.544-.155-.965-.464-1.264-.309-.309-.848-.528-1.616-.656l-1.248-.208c-.544-.096-1.003-.24-1.376-.432-.363-.192-.656-.421-.88-.688-.224-.277-.384-.576-.48-.896-.096-.331-.144-.672-.144-1.024 0-1.024.336-1.797 1.008-2.32s1.579-.784 2.72-.784c.896 0 1.648.149 2.256.448.619.299 1.115.72 1.488 1.264l-.944.816a3.83 3.83 0 0 0-1.12-.992c-.437-.256-1.003-.384-1.696-.384-.757 0-1.339.16-1.744.48s-.608.8-.608 1.44c0 .501.149.912.448 1.232.309.309.859.533 1.648.672l1.2.208c.544.096 1.003.24 1.376.432s.672.421.896.688a2.32 2.32 0 0 1 .496.896 3.71 3.71 0 0 1 .144 1.04c0 1.035-.341 1.845-1.024 2.432-.672.587-1.632.88-2.88.88zm9.77 0c-.598 0-1.136-.101-1.616-.304a3.51 3.51 0 0 1-1.216-.864c-.331-.384-.587-.837-.768-1.36-.182-.533-.272-1.125-.272-1.776 0-.661.09-1.259.272-1.792.192-.533.453-.987.784-1.36a3.3 3.3 0 0 1 1.184-.88 3.87 3.87 0 0 1 1.552-.304 3.61 3.61 0 0 1 1.504.304c.458.203.848.485 1.168.848.32.352.565.773.736 1.264s.256 1.029.256 1.616v.608h-6.112v.384c0 .363.058.699.176 1.008a2.34 2.34 0 0 0 .496.8c.224.224.49.4.8.528.32.117.672.176 1.056.176.554 0 1.034-.128 1.44-.384s.714-.608.928-1.056l.944.64c-.246.555-.656 1.013-1.232 1.376-.566.352-1.259.528-2.08.528zm-.08-7.584a2.45 2.45 0 0 0-.976.192c-.299.128-.56.304-.784.528a2.56 2.56 0 0 0-.512.8c-.118.299-.176.629-.176.992v.112h4.736v-.176c0-.363-.059-.693-.176-.992-.107-.299-.262-.555-.464-.768a1.85 1.85 0 0 0-.72-.512c-.278-.117-.587-.176-.928-.176zm5.961 6.304h2.416v-6.08h-2.416V5.744h3.696v2.08h.08c.171-.651.491-1.157.96-1.52.48-.373 1.088-.56 1.824-.56h1.152v1.28h-1.552c-.736 0-1.333.213-1.792.64-.448.427-.672.987-.672 1.68v3.568h3.2V14h-6.896v-1.088zM496.562 14l-2.96-8.256h1.296l1.184 3.456 1.28 3.728h.064l1.28-3.728 1.184-3.456h1.264L498.194 14h-1.632zm10.922-10.08c-.373 0-.635-.075-.784-.224-.149-.16-.224-.357-.224-.592v-.256a.78.78 0 0 1 .224-.576c.149-.16.411-.24.784-.24s.635.08.784.24a.78.78 0 0 1 .224.576v.256c0 .235-.075.432-.224.592-.149.149-.411.224-.784.224zm-3.616 8.992h2.976v-6.08h-2.976V5.744h4.256v7.168h2.784V14h-7.04v-1.088zm12.986 1.28c-.598 0-1.131-.101-1.6-.304a3.41 3.41 0 0 1-1.168-.88c-.32-.373-.566-.827-.736-1.36-.16-.533-.24-1.125-.24-1.776s.085-1.243.256-1.776.416-.987.736-1.36c.32-.384.709-.677 1.168-.88s.981-.304 1.568-.304c.8 0 1.45.176 1.952.528s.869.811 1.104 1.376L518.87 8c-.15-.427-.4-.757-.752-.992-.342-.235-.768-.352-1.28-.352a2.53 2.53 0 0 0-1.008.192c-.288.117-.534.288-.736.512s-.358.491-.464.8c-.096.309-.144.645-.144 1.008v1.408c0 .363.048.699.144 1.008.106.309.261.576.464.8a2.12 2.12 0 0 0 .752.528c.298.117.64.176 1.024.176.554 0 1.013-.128 1.376-.384a2.67 2.67 0 0 0 .864-1.056l.912.624c-.246.555-.63 1.013-1.152 1.376-.512.363-1.184.544-2.016.544zm9.449 0c-.597 0-1.136-.101-1.616-.304a3.53 3.53 0 0 1-1.216-.864 4.16 4.16 0 0 1-.768-1.36 5.5 5.5 0 0 1-.272-1.776c0-.661.091-1.259.272-1.792.192-.533.454-.987.784-1.36a3.32 3.32 0 0 1 1.184-.88c.47-.203.987-.304 1.552-.304.555 0 1.056.101 1.504.304a3.33 3.33 0 0 1 1.168.848c.32.352.566.773.736 1.264s.256 1.029.256 1.616v.608h-6.112v.384c0 .363.059.699.176 1.008s.283.576.496.8c.224.224.491.4.8.528.32.117.672.176 1.056.176.555 0 1.035-.128 1.44-.384s.715-.608.928-1.056l.944.64c-.245.555-.656 1.013-1.232 1.376-.565.352-1.258.528-2.08.528zm-.08-7.584c-.352 0-.677.064-.976.192s-.56.304-.784.528a2.58 2.58 0 0 0-.512.8c-.117.299-.176.629-.176.992v.112h4.736v-.176c0-.363-.058-.693-.176-.992-.106-.299-.261-.555-.464-.768a1.85 1.85 0 0 0-.72-.512c-.277-.117-.586-.176-.928-.176zm9.626 7.584c-.864 0-1.611-.144-2.24-.432a5.01 5.01 0 0 1-1.584-1.184l.864-.752c.395.416.827.736 1.296.96s1.035.336 1.696.336c.64 0 1.163-.112 1.568-.336.416-.235.624-.597.624-1.088 0-.213-.043-.389-.128-.528a.85.85 0 0 0-.32-.352 1.64 1.64 0 0 0-.464-.192 4.08 4.08 0 0 0-.544-.128l-1.296-.192-.944-.176c-.331-.075-.635-.192-.912-.352a2.35 2.35 0 0 1-.704-.672c-.181-.277-.272-.64-.272-1.088 0-.416.08-.773.24-1.072.171-.309.405-.565.704-.768a2.98 2.98 0 0 1 1.056-.464c.405-.107.848-.16 1.328-.16.747 0 1.392.117 1.936.352.555.235 1.029.56 1.424.976l-.832.784a2.36 2.36 0 0 0-.368-.352c-.139-.128-.315-.24-.528-.336-.203-.107-.443-.192-.72-.256s-.597-.096-.96-.096c-.651 0-1.152.112-1.504.336-.341.224-.512.549-.512.976 0 .213.037.395.112.544.085.139.197.251.336.336s.293.155.464.208l.544.112 1.296.192.944.176a2.97 2.97 0 0 1 .912.368 2.02 2.02 0 0 1 .688.656c.192.277.288.64.288 1.088 0 .821-.32 1.456-.96 1.904-.629.448-1.472.672-2.528.672z"/><path d="M5.496 14.192c-1.365 0-2.384-.496-3.056-1.488-.661-.992-.992-2.421-.992-4.288s.331-3.296.992-4.288c.672-.992 1.691-1.488 3.056-1.488.512 0 .955.069 1.328.208s.693.325.96.56.491.501.672.8c.181.288.341.581.48.88l-1.152.528c-.096-.245-.208-.475-.336-.688-.128-.224-.283-.416-.464-.576-.171-.171-.379-.304-.624-.4-.235-.096-.523-.144-.864-.144-.885 0-1.547.336-1.984 1.008-.427.672-.64 1.568-.64 2.688v1.824c0 1.12.213 2.016.64 2.688.437.672 1.099 1.008 1.984 1.008.341 0 .629-.048.864-.144.245-.096.453-.224.624-.384.181-.171.336-.363.464-.576.128-.224.24-.459.336-.704l1.152.528c-.139.309-.299.608-.48.896a3.59 3.59 0 0 1-.672.784c-.267.235-.587.421-.96.56s-.816.208-1.328.208zM17.842 14c-.501 0-.859-.128-1.072-.384s-.347-.576-.4-.96h-.08a2.34 2.34 0 0 1-.88 1.136c-.395.267-.928.4-1.6.4-.864 0-1.552-.224-2.064-.672s-.768-1.061-.768-1.84c0-.768.277-1.36.832-1.776.565-.416 1.472-.624 2.72-.624h1.76v-.816c0-.608-.171-1.061-.512-1.36-.341-.309-.827-.464-1.456-.464-.555 0-1.008.112-1.36.336a2.4 2.4 0 0 0-.848.88l-.864-.64a2.85 2.85 0 0 1 .432-.624c.181-.203.405-.379.672-.528a3.33 3.33 0 0 1 .912-.368 4.19 4.19 0 0 1 1.136-.144c.971 0 1.739.245 2.304.736.576.491.864 1.173.864 2.048v4.544h1.152V14h-.88zm-3.808-.88a3.32 3.32 0 0 0 .896-.112 2.99 2.99 0 0 0 .72-.32c.203-.139.357-.299.464-.48.117-.192.176-.395.176-.608v-1.36h-1.76c-.768 0-1.328.107-1.68.32a1.02 1.02 0 0 0-.528.928v.336c0 .427.149.752.448.976.309.213.731.32 1.264.32zm6.346.88V5.744h1.184v.96h.064c.128-.32.309-.592.544-.816s.581-.336 1.04-.336c.48 0 .837.123 1.072.368.235.235.379.544.432.928h.048c.149-.373.363-.683.64-.928s.661-.368 1.152-.368c.672 0 1.12.235 1.344.704.235.469.352 1.141.352 2.016V14h-1.184V8.48c0-.704-.075-1.189-.224-1.456-.139-.277-.4-.416-.784-.416-.341 0-.619.112-.832.336-.213.213-.32.544-.32.992V14h-1.184V8.48c0-.704-.075-1.189-.224-1.456-.139-.277-.395-.416-.768-.416-.341 0-.624.112-.848.336-.213.213-.32.544-.32.992V14H20.38zm13.674.192c-.597 0-1.136-.101-1.616-.304a3.52 3.52 0 0 1-1.216-.864c-.331-.384-.587-.837-.768-1.36-.181-.533-.272-1.125-.272-1.776 0-.661.091-1.259.272-1.792.192-.533.453-.987.784-1.36a3.31 3.31 0 0 1 1.184-.88c.469-.203.987-.304 1.552-.304.555 0 1.056.101 1.504.304a3.33 3.33 0 0 1 1.168.848c.32.352.565.773.736 1.264s.256 1.029.256 1.616v.608h-6.112v.384c0 .363.059.699.176 1.008s.283.576.496.8a2.43 2.43 0 0 0 .8.528c.32.117.672.176 1.056.176.555 0 1.035-.128 1.44-.384s.715-.608.928-1.056l.944.64c-.245.555-.656 1.013-1.232 1.376-.565.352-1.259.528-2.08.528zm-.08-7.584a2.45 2.45 0 0 0-.976.192c-.299.128-.56.304-.784.528a2.57 2.57 0 0 0-.512.8 2.69 2.69 0 0 0-.176.992v.112h4.736v-.176c0-.363-.059-.693-.176-.992a2.15 2.15 0 0 0-.464-.768 1.85 1.85 0 0 0-.72-.512 2.36 2.36 0 0 0-.928-.176zm5.962 6.304h2.416v-6.08h-2.416V5.744h3.696v2.08h.08c.171-.651.491-1.157.96-1.52.48-.373 1.088-.56 1.824-.56h1.152v1.28h-1.552c-.736 0-1.333.213-1.792.64-.448.427-.672.987-.672 1.68v3.568h3.2V14h-6.896v-1.088zM56.217 14c-.501 0-.859-.128-1.072-.384s-.347-.576-.4-.96h-.08a2.34 2.34 0 0 1-.88 1.136c-.395.267-.928.4-1.6.4-.864 0-1.552-.224-2.064-.672s-.768-1.061-.768-1.84c0-.768.277-1.36.832-1.776.565-.416 1.472-.624 2.72-.624h1.76v-.816c0-.608-.171-1.061-.512-1.36-.341-.309-.827-.464-1.456-.464-.555 0-1.008.112-1.36.336a2.4 2.4 0 0 0-.848.88l-.864-.64a2.85 2.85 0 0 1 .432-.624c.181-.203.405-.379.672-.528a3.33 3.33 0 0 1 .912-.368 4.19 4.19 0 0 1 1.136-.144c.971 0 1.739.245 2.304.736.576.491.864 1.173.864 2.048v4.544h1.152V14h-.88zm-3.808-.88a3.32 3.32 0 0 0 .896-.112 2.99 2.99 0 0 0 .72-.32c.203-.139.357-.299.464-.48.117-.192.176-.395.176-.608v-1.36h-1.76c-.768 0-1.328.107-1.68.32a1.02 1.02 0 0 0-.528.928v.336c0 .427.149.752.448.976.309.213.731.32 1.264.32zm8.762-4.096c0-.779.085-1.525.256-2.24.181-.725.421-1.397.72-2.016.309-.619.667-1.173 1.072-1.664a7.52 7.52 0 0 1 1.28-1.264h1.296c-.469.352-.912.763-1.328 1.232-.405.459-.768.965-1.088 1.52a7.98 7.98 0 0 0-.736 1.776c-.181.629-.272 1.285-.272 1.968v1.376c0 .683.091 1.344.272 1.984.181.629.427 1.221.736 1.776.32.544.683 1.045 1.088 1.504a8.97 8.97 0 0 0 1.328 1.232h-1.296c-.448-.331-.875-.747-1.28-1.248s-.763-1.061-1.072-1.68a10.57 10.57 0 0 1-.72-2 9.82 9.82 0 0 1-.256-2.256zm11.21 5.168c-.864 0-1.611-.144-2.24-.432-.619-.299-1.147-.693-1.584-1.184l.864-.752c.395.416.827.736 1.296.96s1.035.336 1.696.336c.64 0 1.163-.112 1.568-.336.416-.235.624-.597.624-1.088 0-.213-.043-.389-.128-.528a.85.85 0 0 0-.32-.352 1.64 1.64 0 0 0-.464-.192 4.07 4.07 0 0 0-.544-.128l-1.296-.192-.944-.176a3.24 3.24 0 0 1-.912-.352c-.277-.171-.512-.395-.704-.672-.181-.277-.272-.64-.272-1.088 0-.416.08-.773.24-1.072.171-.309.405-.565.704-.768.299-.213.651-.368 1.056-.464a5.21 5.21 0 0 1 1.328-.16c.747 0 1.392.117 1.936.352.555.235 1.029.56 1.424.976l-.832.784c-.096-.117-.219-.235-.368-.352-.139-.128-.315-.24-.528-.336a2.99 2.99 0 0 0-.72-.256c-.277-.064-.597-.096-.96-.096-.651 0-1.152.112-1.504.336-.341.224-.512.549-.512.976 0 .213.037.395.112.544a1.01 1.01 0 0 0 .336.336c.139.085.293.155.464.208l.544.112 1.296.192.944.176a2.98 2.98 0 0 1 .912.368 2.02 2.02 0 0 1 .688.656c.192.277.288.64.288 1.088 0 .821-.32 1.456-.96 1.904-.629.448-1.472.672-2.528.672zm11.018-5.168c0 .779-.091 1.531-.272 2.256-.171.715-.411 1.381-.72 2a8.61 8.61 0 0 1-1.056 1.68 7.03 7.03 0 0 1-1.28 1.248h-1.296c.459-.352.896-.763 1.312-1.232.416-.459.779-.96 1.088-1.504.32-.555.571-1.147.752-1.776a7.24 7.24 0 0 0 .272-1.984V8.336a7.07 7.07 0 0 0-.272-1.968c-.181-.64-.432-1.232-.752-1.776a8.19 8.19 0 0 0-1.088-1.52c-.416-.469-.853-.88-1.312-1.232h1.296c.448.341.875.763 1.28 1.264a8.18 8.18 0 0 1 1.056 1.664c.309.619.549 1.291.72 2.016a9.07 9.07 0 0 1 .272 2.24z"/></g><rect x="219.5" y="46.5" width="59" height="199" rx="1.5" fill="#faf5ff"/><rect x="219.5" y="46.5" width="59" height="199" rx="1.5" stroke="#581c87"/><path d="M240.25 138.5v5h17.5v-5h-17.5zm-1.25-1.25h1.25 17.5H259v1.25 5 1.25h-1.25-17.5H239v-1.25-5-1.25zm1.25 11.25v5h17.5v-5h-17.5zm-1.25-1.25h1.25 17.5H259v1.25 5 1.25h-1.25-17.5H239v-1.25-5-1.25zm11.875 3.75c0-.249.099-.487.275-.663s.414-.275.662-.275.488.099.663.275.275.414.275.663-.099.487-.275.663-.414.275-.663.275-.487-.099-.662-.275-.275-.414-.275-.663zm.937-10.938c.249 0 .488.099.663.275s.275.414.275.663-.099.487-.275.663-.414.275-.663.275-.487-.099-.662-.275-.275-.414-.275-.663.099-.487.275-.663.414-.275.662-.275zM254 151c0-.249.099-.487.275-.663s.414-.275.663-.275.487.099.662.275.275.414.275.663-.099.487-.275.663-.414.275-.662.275-.488-.099-.663-.275-.275-.414-.275-.663zm.938-10.938c.248 0 .487.099.662.275s.275.414.275.663-.099.487-.275.663-.414.275-.662.275-.488-.099-.663-.275-.275-.414-.275-.663.099-.487.275-.663.414-.275.663-.275z" fill="#4c1d95"/><g clip-path="url(#E)"><rect x="424" y="46" width="70" height="200" rx="2" fill="#f7fee7"/><path d="M439.152 60.718h1.872c.804 0 1.398.267 1.782.801.39.534.585 1.314.585 2.34s-.195 1.806-.585 2.34c-.384.534-.978.801-1.782.801h-1.872v-6.282zm1.809 5.454c.462 0 .804-.153 1.026-.459.228-.312.342-.756.342-1.332v-1.044c0-.576-.114-1.017-.342-1.323-.222-.312-.564-.468-1.026-.468h-.81v4.626h.81zm7.008.828l-.477-1.674h-1.998L445.017 67h-1.026l1.836-6.282h1.377L449.04 67h-1.071zm-1.44-5.265h-.072l-.774 2.754h1.62l-.774-2.754zm5.882-.171V67h-1.008v-5.436h-1.971v-.846h4.95v.846h-1.971zM458.762 67l-.477-1.674h-1.998L455.81 67h-1.026l1.836-6.282h1.377L459.833 67h-1.071zm-1.44-5.265h-.072l-.774 2.754h1.62l-.774-2.754zm3.425-1.017h2.169c.57 0 1.011.147 1.323.441.318.294.477.696.477 1.206 0 .366-.09.657-.27.873s-.423.369-.729.459v.045c.366.084.66.246.882.486.222.234.333.567.333.999 0 .258-.042.495-.126.711s-.204.405-.36.567c-.156.156-.345.279-.567.369a1.97 1.97 0 0 1-.72.126h-2.412v-6.282zm2.106 5.508c.336 0 .594-.069.774-.207s.27-.36.27-.666v-.324c0-.306-.09-.528-.27-.666s-.438-.207-.774-.207h-1.116v2.07h1.116zm-.144-2.808c.318 0 .558-.06.72-.18.168-.126.252-.333.252-.621v-.324c0-.288-.084-.492-.252-.612-.162-.126-.402-.189-.72-.189h-.972v1.926h.972zM469.554 67l-.477-1.674h-1.998L466.602 67h-1.026l1.836-6.282h1.377L470.625 67h-1.071zm-1.44-5.265h-.072l-.774 2.754h1.62l-.774-2.754zm5.325 5.373c-.546 0-1.005-.096-1.377-.288a2.66 2.66 0 0 1-.918-.765l.648-.621c.24.288.495.501.765.639.27.132.576.198.918.198.396 0 .699-.09.909-.27.216-.18.324-.438.324-.774 0-.27-.078-.477-.234-.621-.156-.15-.423-.258-.801-.324l-.684-.108a2.44 2.44 0 0 1-.756-.234c-.204-.114-.369-.246-.495-.396-.126-.156-.219-.327-.279-.513-.054-.192-.081-.393-.081-.603 0-.594.192-1.044.576-1.35.384-.312.912-.468 1.584-.468.498 0 .921.081 1.269.243.354.156.639.378.855.666l-.63.63c-.174-.21-.381-.378-.621-.504-.234-.132-.525-.198-.873-.198-.372 0-.657.081-.855.243-.192.156-.288.387-.288.693 0 .258.075.462.225.612.156.144.429.249.819.315l.666.117c.564.102.975.309 1.233.621.258.306.387.681.387 1.125 0 .288-.051.552-.153.792-.096.24-.243.444-.441.612-.192.168-.432.3-.72.396-.282.09-.606.135-.972.135zm3.524-.108v-6.282h3.933v.846h-2.925v1.827h2.817v.846h-2.817v1.917h2.925V67h-3.933z" class="C"/><g clip-path="url(#F)" class="C"><path d="M452.5 81.953l3.441 1.965.145.082h.164 7.5.164l.145-.082 3.441-1.965v3.559l-3.914 2.238h-7.168l-3.918-2.238v-3.559zm0-1.441v-2.695l4.109-2.566h6.782l4.109 2.566v2.695l-3.914 2.238h-7.168l-3.918-2.238zm0 9.672v-3.23l3.441 1.965.145.082h.164 7.5.164l.145-.082 3.441-1.965v3.23l-4.109 2.566h-6.782l-4.109-2.566zM456.25 74l-5 3.125v13.75l5 3.125h7.5l5-3.125v-13.75l-5-3.125h-7.5z"/></g><path d="M447.283 117v-6.282h3.933v.846h-2.925v1.827h2.817v.846h-2.817v1.917h2.925V117h-3.933zm8.627-3.006l.027-1.89h-.072l-1.26 3.231-1.26-3.231h-.072l.027 1.89V117h-.891v-6.282h1.233l.963 2.493h.063l.972-2.493h1.161V117h-.891v-3.006zm5.55 3.006l-.477-1.674h-1.998l-.477 1.674h-1.026l1.836-6.282h1.377l1.836 6.282h-1.071zm-1.44-5.265h-.072l-.774 2.754h1.62l-.774-2.754zm3.398 5.265v-.765h1.476v-4.752h-1.476v-.765h3.96v.765h-1.476v4.752h1.476V117h-3.96zm5.649 0v-6.282h1.008v5.436h2.862V117h-3.87z" class="C"/><g clip-path="url(#G)" class="C"><path d="M450.75 128.219l8.75 6.015 8.75-6.015v-2.469h-17.5v2.469zm17.5 1.515l-8.75 6.016-8.75-6.016v8.516h17.5v-8.516zm-18.75 8.516v-9.375-3.125-1.25h1.25 17.5 1.25v1.25 3.125 9.375 1.25h-1.25-17.5-1.25v-1.25z"/></g><g class="C"><path d="M453.161 164v-6.282h2.349c.6 0 1.056.168 1.368.504.318.336.477.798.477 1.386s-.159 1.05-.477 1.386c-.312.336-.768.504-1.368.504h-1.341V164h-1.008zm1.008-3.339h1.188c.624 0 .936-.288.936-.864v-.387c0-.57-.312-.855-.936-.855h-1.188v2.106zm4.605 3.339v-6.282h1.008v5.436h2.862V164h-3.87zm7.304.108c-.798 0-1.392-.282-1.782-.846-.384-.564-.576-1.365-.576-2.403s.192-1.839.576-2.403c.39-.564.984-.846 1.782-.846.306 0 .57.042.792.126.228.078.423.189.585.333a1.81 1.81 0 0 1 .405.495 2.91 2.91 0 0 1 .279.603l-.909.306a3.56 3.56 0 0 0-.162-.405c-.06-.126-.135-.234-.225-.324a1.02 1.02 0 0 0-.324-.216c-.12-.054-.27-.081-.45-.081-.444 0-.768.171-.972.513-.204.336-.306.792-.306 1.368v1.062c0 .576.102 1.035.306 1.377.204.336.528.504.972.504.18 0 .33-.027.45-.081a1.02 1.02 0 0 0 .324-.216c.09-.09.165-.198.225-.324a3.56 3.56 0 0 0 .162-.405l.909.306a3.14 3.14 0 0 1-.279.612c-.108.186-.243.351-.405.495a1.91 1.91 0 0 1-.585.333c-.222.078-.486.117-.792.117zM451.25 177.25v12h17.5v-12h-17.5zM450 176h1.25 17.5H470v1.25 12 1.25h-1.25-17.5H450v-1.25-12V176zm4.25 4.25v6h6.5v-6h-6.5zM453 179h1.25 6.5H462v1.25 6 1.25h-1.25-6.5H453v-1.25-6V179zm11 .5h.417 2.166.417v1.25h-.417-2.166H464v-1.25zm0 3.25h.417 2.166.417V184h-.417-2.166H464v-1.25zm0 3.25h.417 2.166.417v1.25h-.417-2.166H464V186z"/><use href="#H"/><path d="M457 177v-.833-4.334V171h1v.833 4.334.833h-1z"/><use href="#I"/><path d="M459.5 177v-.417-2.166V174h1v.417 2.166.417h-1zm5 0v-.417-2.166V174h1v.417 2.166.417h-1z"/><path d="M453.25 172.25v4h13.5v-4h-13.5zM452 171h1.25 13.5H468v1.25 4 .25h-1.25-13.5H452v-.25-4V171z"/><use href="#J"/><path d="M455.707 173.293c-.187-.188-.442-.293-.707-.293s-.52.105-.707.293-.293.442-.293.707.105.52.293.707.442.293.707.293.52-.105.707-.293.293-.442.293-.707-.105-.52-.293-.707zm5 0c-.187-.188-.442-.293-.707-.293s-.52.105-.707.293-.293.442-.293.707.105.52.293.707.442.293.707.293.52-.105.707-.293.293-.442.293-.707-.105-.52-.293-.707z"/><use href="#K"/><path d="M463 190v.833 4.334.833h-1v-.833-4.334V190h1z"/><use href="#L"/><path d="M460.5 190v.417 2.166.417h-1v-.417-2.166V190h1zm-5 0v.417 2.166.417h-1v-.417-2.166V190h1z"/><path d="M466.75 194.75v-4h-13.5v4h13.5zM468 196h-1.25-13.5H452v-1.25-4-.25h1.25 13.5H468v.25 4V196z"/><use href="#M"/><path d="M464.293 193.707c.187.188.442.293.707.293s.52-.105.707-.293.293-.442.293-.707-.105-.52-.293-.707-.442-.293-.707-.293-.52.105-.707.293-.293.442-.293.707.105.52.293.707zm-5 0c.187.188.442.293.707.293s.52-.105.707-.293.293-.442.293-.707-.105-.52-.293-.707-.442-.293-.707-.293-.52.105-.707.293-.293.442-.293.707.105.52.293.707z"/></g><path fill-rule="evenodd" d="M465.333 222.498c-.396 0-.741-.072-1.035-.216-.288-.15-.528-.363-.72-.639-.186-.276-.324-.615-.414-1.017s-.135-.861-.135-1.377c0-.51.045-.966.135-1.368.09-.408.228-.75.414-1.026.192-.276.432-.486.72-.63.294-.15.639-.225 1.035-.225s.738.075 1.026.225a1.82 1.82 0 0 1 .72.63c.192.276.333.618.423 1.026.09.402.135.858.135 1.368 0 .516-.045.975-.135 1.377s-.231.741-.423 1.017c-.186.276-.426.489-.72.639-.288.144-.63.216-1.026.216zm0-.837c.45 0 .768-.168.954-.504.186-.342.279-.804.279-1.386v-1.053c0-.576-.093-1.032-.279-1.368-.186-.342-.504-.513-.954-.513s-.768.171-.954.513c-.186.336-.279.792-.279 1.368v1.062c0 .576.093 1.035.279 1.377.186.336.504.504.954.504zm4.362.621c.294.144.639.216 1.035.216s.738-.072 1.026-.216c.294-.15.534-.363.72-.639.192-.276.333-.615.423-1.017s.135-.861.135-1.377c0-.51-.045-.966-.135-1.368-.09-.408-.231-.75-.423-1.026a1.82 1.82 0 0 0-.72-.63c-.288-.15-.63-.225-1.026-.225s-.741.075-1.035.225c-.288.144-.528.354-.72.63-.186.276-.324.618-.414 1.026-.09.402-.135.858-.135 1.368 0 .516.045.975.135 1.377s.228.741.414 1.017c.192.276.432.489.72.639zm1.989-1.125c-.186.336-.504.504-.954.504s-.768-.168-.954-.504c-.186-.342-.279-.801-.279-1.377v-1.062c0-.576.093-1.032.279-1.368.186-.342.504-.513.954-.513s.768.171.954.513c.186.336.279.792.279 1.368v1.053c0 .582-.093 1.044-.279 1.386zm3.452-.711l.756-.945 1.683 2.889h1.152l-2.151-3.636 2.07-2.646h-1.161l-1.539 1.962-.765 1.044h-.045v-3.006h-1.008v6.282h1.008v-1.944zm-16.243-.819h2.088v2.763h1.008v-6.282h-1.008v2.673h-2.088v-2.673h-1.008v6.282h1.008v-2.763zm-6.306-3.519h2.169c.57 0 1.011.147 1.323.441.318.294.477.696.477 1.206 0 .366-.09.657-.27.873s-.423.369-.729.459v.045c.366.084.66.246.882.486.222.234.333.567.333.999 0 .258-.042.495-.126.711s-.204.405-.36.567c-.156.156-.345.279-.567.369a1.97 1.97 0 0 1-.72.126h-2.412v-6.282zm2.106 5.508c.336 0 .594-.069.774-.207s.27-.36.27-.666v-.324c0-.306-.09-.528-.27-.666s-.438-.207-.774-.207h-1.116v2.07h1.116zm-.144-2.808c.318 0 .558-.06.72-.18.168-.126.252-.333.252-.621v-.324c0-.288-.084-.492-.252-.612-.162-.126-.402-.189-.72-.189h-.972v1.926h.972zm-7.331-2.7v6.282h3.933v-.846h-2.925v-1.917h2.817v-.846h-2.817v-1.827h2.925v-.846h-3.933zm-5.496 6.282l-.45-6.282h.882l.225 3.654.099 1.611h.072l.711-3.744h.999l.711 3.744h.072l.099-1.611.234-3.654h.846l-.45 6.282h-1.35l-.639-3.636h-.072l-.639 3.636h-1.35zm16.971 15.203c-1.055-.664-1.758-1.836-1.758-3.203a3.75 3.75 0 1 1 7.5 0c0 .103-.011.206-.021.304l-.018.243 1.211.195c.039-.234.078-.468.078-.742a5.04 5.04 0 0 0-5-5c-2.773 0-5 2.266-5 5a5.05 5.05 0 0 0 1.836 3.906l-2.344 3.711-.224-.043c-.174-.036-.355-.074-.518-.074-1.406 0-2.5 1.133-2.5 2.5 0 1.406 1.094 2.5 2.5 2.5 1.367 0 2.5-1.094 2.5-2.5 0-.664-.273-1.25-.703-1.719l2.656-4.218.313-.547-.508-.313zm-4.258 5.547a1.29 1.29 0 0 1 1.25 1.25 1.26 1.26 0 0 1-1.25 1.25c-.703 0-1.25-.547-1.25-1.25a1.26 1.26 0 0 1 1.25-1.25zm7.5-8.75a1.26 1.26 0 0 1-1.25 1.25c-.703 0-1.25-.547-1.25-1.25a1.26 1.26 0 0 1 1.25-1.25 1.29 1.29 0 0 1 1.25 1.25zm-1.25-2.5c-1.406 0-2.5 1.133-2.5 2.5 0 1.406 1.094 2.5 2.5 2.5.234 0 .508-.039.742-.117l2.656 4.258.313.547.547-.352a3.74 3.74 0 0 1 1.992-.586 3.75 3.75 0 1 1 0 7.5c-.937 0-1.797-.312-2.422-.859l-.82.937c.859.742 1.992 1.172 3.242 1.172a5.01 5.01 0 0 0 5-5 5.04 5.04 0 0 0-5-5c-.781 0-1.484.195-2.109.469l-2.344-3.711c.43-.469.703-1.055.703-1.758a2.52 2.52 0 0 0-2.5-2.5zm-10 12.5c0-1.445.82-2.734 2.07-3.32l-.586-1.133c-1.64.82-2.734 2.5-2.734 4.453 0 2.774 2.227 5 5 5 2.539 0 4.648-1.875 4.961-4.375h5.117c.274 1.094 1.25 1.875 2.422 1.875 1.367 0 2.5-1.094 2.5-2.5a2.52 2.52 0 0 0-2.5-2.5 2.52 2.52 0 0 0-2.422 1.875h-5.703-.625v.625a3.75 3.75 0 1 1-7.5 0zm17.5 0a1.26 1.26 0 0 1-1.25 1.25c-.703 0-1.25-.547-1.25-1.25a1.26 1.26 0 0 1 1.25-1.25 1.29 1.29 0 0 1 1.25 1.25z" fill="url(#B)"/></g><rect x="424.5" y="46.5" width="69" height="199" rx="1.5" stroke="#365314"/><path d="M89 145.5a.5.5 0 1 0 0 1v-1zm115.354.854a.5.5 0 0 0 0-.708l-3.182-3.182a.5.5 0 1 0-.708.708l2.829 2.828-2.829 2.828a.5.5 0 1 0 .708.708l3.182-3.182zM89 146.5h115v-1H89v1z" class="B"/><rect x="122.5" y="136.5" width="49" height="19" rx="1.5" class="D"/><rect x="122.5" y="136.5" width="49" height="19" rx="1.5" class="E"/><path d="M133.689 144.045v.853h-3.083v-.853h3.083zm-2.238 5.455v-6.087c0-.341.075-.623.224-.848s.347-.397.593-.508.514-.171.803-.171a2.4 2.4 0 0 1 .547.054 2.52 2.52 0 0 1 .337.092l-.249.859-.191-.049a1.07 1.07 0 0 0-.285-.032c-.258 0-.442.064-.554.191s-.163.313-.163.554v5.945h-1.062zm3.333 0v-5.455h1.026v.867h.057c.1-.294.275-.524.526-.693a1.51 1.51 0 0 1 .859-.255l.235.007.216.018v1.015a1.8 1.8 0 0 0-.227-.039 2.25 2.25 0 0 0-.327-.025 1.39 1.39 0 0 0-.671.16 1.19 1.19 0 0 0-.462.437c-.113.185-.17.395-.17.632v3.331h-1.062zm5.377.121c-.346 0-.659-.064-.938-.192a1.56 1.56 0 0 1-.664-.565c-.163-.247-.242-.548-.242-.905 0-.308.06-.561.178-.76s.278-.356.479-.472.427-.204.675-.263a6.82 6.82 0 0 1 .76-.135l.796-.092c.203-.027.351-.068.443-.125s.139-.149.139-.277v-.025c0-.31-.088-.55-.263-.721s-.431-.255-.774-.255c-.357 0-.639.079-.845.238s-.345.33-.423.522l-.998-.228c.119-.331.292-.598.519-.802s.493-.355.792-.448a3.11 3.11 0 0 1 .941-.142 3.26 3.26 0 0 1 .692.079c.246.049.476.142.689.277s.392.327.529.578.206.572.206.97v3.622h-1.037v-.746h-.042c-.069.138-.172.273-.309.405a1.64 1.64 0 0 1-.529.33c-.215.087-.474.132-.774.132zm.23-.853c.294 0 .545-.058.753-.174s.371-.267.48-.454a1.18 1.18 0 0 0 .166-.607v-.703c-.037.037-.111.073-.22.106a3.12 3.12 0 0 1-.365.082l-.402.06-.326.043a2.66 2.66 0 0 0-.565.131c-.168.062-.303.15-.405.266a.67.67 0 0 0-.149.455c0 .263.097.462.291.597s.442.198.742.198zm3.876.732v-5.455h1.019v.888h.067c.114-.3.3-.535.558-.703s.567-.256.927-.256.67.086.916.256a1.51 1.51 0 0 1 .55.703h.057c.13-.291.337-.523.621-.696s.623-.263 1.016-.263c.495 0 .898.155 1.211.466s.472.777.472 1.402v3.658h-1.062v-3.558c0-.37-.1-.637-.301-.803s-.442-.248-.721-.248c-.346 0-.615.106-.806.319s-.288.482-.288.813v3.477h-1.058v-3.626a.95.95 0 0 0-.277-.713c-.185-.18-.425-.27-.721-.27a1.04 1.04 0 0 0-.558.159 1.18 1.18 0 0 0-.408.437c-.102.187-.153.404-.153.65v3.363h-1.061zm11.188.11c-.537 0-1-.115-1.388-.344a2.34 2.34 0 0 1-.895-.977c-.208-.421-.313-.915-.313-1.481 0-.558.105-1.051.313-1.477s.504-.759.881-.998.821-.359 1.328-.359c.307 0 .606.051.895.153a2.17 2.17 0 0 1 .777.48c.23.217.411.5.544.848s.198.766.198 1.261v.376h-4.335v-.795h3.295c0-.279-.057-.527-.17-.742a1.29 1.29 0 0 0-.48-.515c-.203-.126-.443-.188-.717-.188a1.38 1.38 0 0 0-.781.22c-.221.144-.391.334-.512.568s-.177.484-.177.756v.622c0 .364.064.674.191.93s.312.451.544.586.503.199.813.199a1.68 1.68 0 0 0 .55-.085 1.19 1.19 0 0 0 .43-.263c.121-.116.213-.259.277-.43l1.005.181c-.081.296-.225.556-.433.778a2.09 2.09 0 0 1-.778.515c-.313.123-.664.181-1.062.181zm7.606-4.233l-.962.171a1.16 1.16 0 0 0-.192-.352c-.085-.111-.201-.202-.348-.273s-.33-.107-.551-.107c-.3 0-.551.068-.752.202s-.302.305-.302.515c0 .183.067.329.202.441s.353.202.653.273l.867.199c.502.116.876.295 1.122.536s.369.555.369.941c0 .327-.094.618-.284.874s-.448.452-.784.596-.721.217-1.162.217c-.61 0-1.109-.13-1.495-.391s-.622-.635-.71-1.118l1.026-.156c.064.267.196.47.395.607s.458.202.777.202c.348 0 .626-.072.835-.216s.312-.326.312-.537c0-.17-.064-.313-.192-.429s-.318-.204-.578-.263l-.924-.202c-.509-.116-.885-.301-1.129-.554s-.362-.575-.362-.963c0-.322.09-.603.27-.845s.428-.43.745-.565.681-.206 1.091-.206c.589 0 1.053.128 1.392.384a1.79 1.79 0 0 1 .671 1.019zM294 132.5a.5.5 0 1 0 0 1v-1zm115.354.854a.5.5 0 0 0 0-.708l-3.182-3.182a.501.501 0 1 0-.708.708l2.829 2.828-2.829 2.828a.501.501 0 1 0 .708.708l3.182-3.182zM294 133.5h115v-1H294v1z" class="B"/><rect x="322.5" y="122.5" width="59" height="19" rx="1.5" class="D"/><rect x="322.5" y="122.5" width="59" height="19" rx="1.5" class="E"/><path d="M331.132 135.5v-5.455h1.019v.888h.067c.114-.3.3-.535.558-.703s.567-.256.927-.256.67.086.916.256a1.51 1.51 0 0 1 .55.703h.057c.13-.291.338-.523.622-.696s.622-.263 1.015-.263c.495 0 .899.155 1.211.466s.473.777.473 1.402v3.658h-1.062v-3.558c0-.37-.101-.637-.302-.803s-.442-.248-.721-.248c-.346 0-.614.106-.806.319s-.288.482-.288.813v3.477h-1.058v-3.626c0-.296-.092-.534-.277-.713s-.425-.27-.721-.27c-.201 0-.387.053-.557.159a1.18 1.18 0 0 0-.409.437c-.102.187-.152.404-.152.65v3.363h-1.062zm11.188.11c-.537 0-1-.115-1.388-.344a2.34 2.34 0 0 1-.895-.977c-.208-.421-.312-.915-.312-1.481 0-.558.104-1.051.312-1.477s.504-.759.881-.998.821-.359 1.328-.359a2.67 2.67 0 0 1 .895.153 2.17 2.17 0 0 1 .778.48c.229.217.41.5.543.848s.199.766.199 1.261v.376h-4.336v-.795h3.295c0-.279-.057-.527-.17-.742a1.29 1.29 0 0 0-.48-.515c-.203-.126-.442-.188-.717-.188-.298 0-.559.073-.781.22a1.48 1.48 0 0 0-.512.568c-.118.232-.177.484-.177.756v.622c0 .364.064.674.192.93a1.37 1.37 0 0 0 .543.586c.232.135.503.199.813.199a1.69 1.69 0 0 0 .551-.085c.165-.059.309-.147.429-.263a1.15 1.15 0 0 0 .277-.43l1.005.181c-.08.296-.225.556-.433.778a2.09 2.09 0 0 1-.778.515c-.313.123-.664.181-1.062.181zm7.606-4.233l-.962.171c-.04-.124-.104-.241-.192-.352a.97.97 0 0 0-.348-.273 1.26 1.26 0 0 0-.55-.107c-.301 0-.552.068-.753.202s-.302.305-.302.515c0 .183.067.329.202.441s.353.202.654.273l.866.199c.502.116.876.295 1.122.536s.37.555.37.941c0 .327-.095.618-.284.874a1.86 1.86 0 0 1-.785.596c-.334.145-.721.217-1.161.217-.611 0-1.11-.13-1.495-.391a1.65 1.65 0 0 1-.711-1.118l1.027-.156c.064.267.195.47.394.607s.458.202.777.202c.348 0 .627-.072.835-.216s.312-.326.312-.537c0-.17-.063-.313-.191-.429s-.319-.204-.579-.263l-.923-.202c-.509-.116-.886-.301-1.13-.554s-.362-.575-.362-.963c0-.322.09-.603.27-.845a1.76 1.76 0 0 1 .746-.565c.318-.135.68-.206 1.09-.206.589 0 1.053.128 1.392.384a1.78 1.78 0 0 1 .671 1.019zm5.361 0l-.962.171c-.04-.124-.104-.241-.192-.352a.97.97 0 0 0-.348-.273 1.26 1.26 0 0 0-.55-.107c-.301 0-.552.068-.753.202s-.302.305-.302.515c0 .183.068.329.203.441s.352.202.653.273l.867.199c.501.116.875.295 1.122.536s.369.555.369.941c0 .327-.095.618-.284.874a1.86 1.86 0 0 1-.785.596c-.334.145-.721.217-1.161.217-.611 0-1.109-.13-1.495-.391s-.623-.635-.71-1.118l1.026-.156c.064.267.195.47.394.607s.458.202.778.202c.348 0 .626-.072.834-.216s.313-.326.313-.537c0-.17-.064-.313-.192-.429s-.318-.204-.579-.263l-.923-.202c-.509-.116-.886-.301-1.129-.554s-.363-.575-.363-.963c0-.322.09-.603.27-.845s.429-.43.746-.565.681-.206 1.09-.206c.59 0 1.054.128 1.392.384a1.79 1.79 0 0 1 .671 1.019zm2.862 4.244c-.346 0-.658-.064-.938-.192a1.58 1.58 0 0 1-.664-.565c-.161-.246-.241-.548-.241-.905 0-.308.059-.561.177-.76a1.31 1.31 0 0 1 .48-.472c.201-.116.426-.204.674-.263a6.82 6.82 0 0 1 .76-.135l.796-.092c.203-.027.351-.068.444-.125s.138-.149.138-.277v-.025c0-.31-.087-.55-.263-.721s-.43-.255-.774-.255c-.357 0-.639.079-.845.238s-.344.33-.422.522l-.998-.228a1.92 1.92 0 0 1 .518-.802 2.12 2.12 0 0 1 .792-.448 3.11 3.11 0 0 1 .941-.142c.218 0 .449.026.693.079a2.01 2.01 0 0 1 .688.277c.216.134.392.327.53.578s.206.572.206.97v3.622h-1.037v-.746h-.043c-.069.138-.172.273-.309.405a1.64 1.64 0 0 1-.529.33c-.215.087-.474.132-.774.132zm.231-.853c.293 0 .544-.058.752-.174s.371-.267.48-.454a1.18 1.18 0 0 0 .167-.607v-.703c-.038.037-.112.073-.22.106s-.229.058-.366.082l-.401.06-.327.043c-.206.026-.394.07-.565.131s-.303.15-.405.266a.67.67 0 0 0-.149.455c0 .263.097.462.291.597s.442.198.743.198zm6.162 2.891c-.434 0-.806-.057-1.119-.17s-.563-.264-.76-.451a1.88 1.88 0 0 1-.44-.615l.912-.376c.064.104.15.214.256.33s.256.219.44.302.428.124.721.124c.403 0 .735-.098.998-.294s.394-.505.394-.931v-1.072h-.067c-.064.116-.156.245-.277.387s-.282.265-.49.369-.479.156-.813.156c-.431 0-.819-.1-1.165-.302s-.616-.503-.817-.898-.298-.887-.298-1.467.098-1.077.295-1.491.471-.732.816-.952a2.13 2.13 0 0 1 1.176-.334c.338 0 .612.057.82.171a1.49 1.49 0 0 1 .487.391 3.11 3.11 0 0 1 .273.394h.078v-.885h1.041v5.576c0 .468-.109.853-.327 1.154a1.92 1.92 0 0 1-.884.667 3.4 3.4 0 0 1-1.25.217zm-.011-3.121c.305 0 .564-.071.774-.213s.374-.351.483-.618.167-.593.167-.97c0-.367-.054-.69-.163-.969s-.269-.497-.48-.654-.471-.238-.781-.238c-.32 0-.586.083-.799.249s-.374.386-.483.668a2.66 2.66 0 0 0-.16.944c0 .358.055.671.164.941a1.39 1.39 0 0 0 .483.632c.215.152.48.228.795.228zm6.247 1.072c-.538 0-1.001-.115-1.389-.344a2.34 2.34 0 0 1-.895-.977c-.208-.421-.312-.915-.312-1.481 0-.558.104-1.051.312-1.477s.504-.759.881-.998.821-.359 1.328-.359a2.67 2.67 0 0 1 .895.153 2.17 2.17 0 0 1 .778.48c.229.217.41.5.543.848s.199.766.199 1.261v.376h-4.336v-.795h3.295c0-.279-.057-.527-.17-.742a1.29 1.29 0 0 0-.48-.515c-.203-.126-.442-.188-.717-.188-.298 0-.559.073-.781.22a1.48 1.48 0 0 0-.512.568c-.118.232-.177.484-.177.756v.622c0 .364.064.674.192.93a1.37 1.37 0 0 0 .543.586c.232.135.503.199.813.199a1.69 1.69 0 0 0 .551-.085c.165-.059.309-.147.429-.263a1.15 1.15 0 0 0 .277-.43l1.005.181c-.08.296-.225.556-.433.778a2.09 2.09 0 0 1-.778.515c-.313.123-.664.181-1.061.181zM294 81.5a.5.5 0 1 0 0 1v-1zm115.354.854a.5.5 0 0 0 0-.707l-3.182-3.182a.5.5 0 1 0-.708.707L408.293 82l-2.829 2.828a.5.5 0 1 0 .708.707l3.182-3.182zM294 82.5h115v-1H294v1z" class="B"/><rect x="331.5" y="72.5" width="41" height="19" rx="1.5" class="D"/><rect x="331.5" y="72.5" width="41" height="19" rx="1.5" class="E"/><path d="M342.447 85.61c-.537 0-1-.115-1.388-.344s-.684-.558-.895-.977-.312-.915-.312-1.481c0-.559.104-1.051.312-1.477s.504-.759.881-.998.821-.359 1.328-.359a2.67 2.67 0 0 1 .895.153 2.17 2.17 0 0 1 .777.479c.229.217.411.501.544.849s.199.766.199 1.261v.376h-4.336v-.795h3.295c0-.279-.057-.527-.17-.742a1.29 1.29 0 0 0-.48-.515c-.203-.126-.442-.188-.717-.188-.298 0-.559.073-.781.22a1.48 1.48 0 0 0-.512.568c-.118.232-.177.484-.177.756v.621c0 .365.064.675.192.93s.311.451.543.586a1.61 1.61 0 0 0 .813.199c.201 0 .385-.029.551-.085s.308-.147.429-.263a1.14 1.14 0 0 0 .277-.43l1.005.181a1.82 1.82 0 0 1-.433.778c-.206.22-.465.392-.778.515s-.664.181-1.062.181zm4.581-3.349V85.5h-1.062v-5.454h1.019v.888h.067a1.56 1.56 0 0 1 .59-.696c.27-.175.609-.263 1.019-.263a1.97 1.97 0 0 1 .977.234 1.56 1.56 0 0 1 .649.689c.153.306.231.683.231 1.133V85.5h-1.062v-3.342c0-.395-.102-.704-.308-.927s-.489-.337-.849-.337a1.33 1.33 0 0 0-.657.16 1.14 1.14 0 0 0-.451.469c-.111.206-.163.45-.163.739zm7.46-2.216v.852h-2.979v-.852h2.979zm-2.18-1.307h1.062v5.16c0 .206.031.361.092.465a.47.47 0 0 0 .238.21c.097.038.207.053.323.053a1.25 1.25 0 0 0 .224-.018l.149-.028.192.877c-.062.024-.149.047-.263.071a2.29 2.29 0 0 1-.426.043c-.279.005-.54-.045-.781-.149a1.34 1.34 0 0 1-.586-.483c-.149-.218-.224-.491-.224-.82v-5.38zm3.355 6.761v-5.454h1.026v.866h.057a1.32 1.32 0 0 1 .526-.692 1.5 1.5 0 0 1 .859-.256l.234.007.217.018v1.016a1.89 1.89 0 0 0-.227-.039 2.17 2.17 0 0 0-.327-.025c-.251 0-.475.053-.671.16a1.19 1.19 0 0 0-.462.437c-.113.185-.17.395-.17.632V85.5h-1.062zm4.675 2.046a2.21 2.21 0 0 1-.433-.039c-.13-.024-.227-.05-.291-.078l.255-.87c.194.052.367.075.519.067a.62.62 0 0 0 .401-.17c.118-.107.223-.281.313-.522l.131-.362-1.996-5.525h1.137l1.381 4.233h.057l1.381-4.233h1.14l-2.248 6.182c-.104.284-.237.524-.397.721a1.55 1.55 0 0 1-.576.447c-.223.099-.48.149-.774.149zM294 181.5a.5.5 0 1 0 0 1v-1zm115.354.854a.5.5 0 0 0 0-.708l-3.182-3.182a.501.501 0 1 0-.708.708l2.829 2.828-2.829 2.828a.501.501 0 1 0 .708.708l3.182-3.182zM294 182.5h115v-1H294v1z" class="B"/><rect x="320.5" y="172.5" width="63" height="19" rx="1.5" class="D"/><rect x="320.5" y="172.5" width="63" height="19" rx="1.5" class="E"/><path d="M331.359 185.61c-.528 0-.982-.119-1.364-.359s-.67-.574-.873-.997-.306-.91-.306-1.456c0-.554.105-1.043.313-1.467a2.39 2.39 0 0 1 .881-.998c.378-.239.825-.359 1.338-.359a2.55 2.55 0 0 1 1.108.231c.325.152.586.365.785.639s.321.596.359.963h-1.034c-.056-.256-.187-.476-.39-.661s-.471-.277-.81-.277c-.296 0-.555.078-.778.235s-.391.374-.514.66-.185.62-.185 1.009c0 .397.06.741.181 1.03s.291.512.511.671.484.238.785.238c.201 0 .384-.037.547-.11a1.11 1.11 0 0 0 .415-.324c.114-.139.193-.307.238-.504h1.034c-.038.353-.153.668-.345.945s-.448.495-.77.653-.695.238-1.126.238zm5.674 0c-.512 0-.958-.117-1.339-.351a2.38 2.38 0 0 1-.888-.984c-.21-.422-.316-.914-.316-1.477s.106-1.061.316-1.485.507-.753.888-.987.827-.352 1.339-.352.957.118 1.339.352.677.563.887.987.316.919.316 1.485-.105 1.055-.316 1.477-.506.749-.887.984-.828.351-1.339.351zm.003-.891c.332 0 .606-.088.824-.263s.379-.408.483-.7a2.77 2.77 0 0 0 .16-.962 2.76 2.76 0 0 0-.16-.959c-.104-.293-.265-.529-.483-.706s-.492-.267-.824-.267-.61.089-.831.267-.38.413-.486.706-.156.611-.156.959.052.671.156.962a1.56 1.56 0 0 0 .486.7c.221.175.498.263.831.263zm3.725.781v-5.455h1.019v.888h.067c.114-.3.3-.535.558-.703s.567-.256.927-.256.67.086.916.256.432.405.55.703h.057a1.53 1.53 0 0 1 .622-.696c.284-.175.622-.263 1.015-.263.495 0 .899.155 1.211.466s.472.777.472 1.402v3.658h-1.061v-3.558c0-.37-.101-.637-.302-.803s-.442-.248-.721-.248c-.346 0-.614.106-.806.319s-.288.482-.288.813v3.477h-1.058v-3.626c0-.296-.092-.534-.277-.713s-.425-.27-.721-.27c-.201 0-.387.053-.557.159s-.305.25-.409.437-.153.404-.153.65v3.363h-1.061zm8.838 0v-5.455h1.019v.888h.067c.114-.3.3-.535.558-.703s.567-.256.927-.256.67.086.916.256.432.405.55.703h.057c.13-.291.337-.523.621-.696s.623-.263 1.016-.263c.495 0 .899.155 1.211.466s.472.777.472 1.402v3.658h-1.061v-3.558c0-.37-.101-.637-.302-.803s-.442-.248-.721-.248c-.346 0-.615.106-.806.319s-.288.482-.288.813v3.477h-1.058v-3.626a.95.95 0 0 0-.277-.713c-.185-.18-.425-.27-.721-.27a1.04 1.04 0 0 0-.558.159 1.18 1.18 0 0 0-.408.437c-.102.187-.153.404-.153.65v3.363h-1.061zm10.425.121c-.346 0-.658-.064-.938-.192a1.58 1.58 0 0 1-.664-.565c-.161-.246-.241-.548-.241-.905 0-.308.059-.561.177-.76a1.31 1.31 0 0 1 .48-.472c.201-.116.426-.204.674-.263a6.82 6.82 0 0 1 .76-.135l.796-.092c.203-.027.351-.068.444-.125s.138-.149.138-.277v-.025c0-.31-.087-.55-.263-.721s-.43-.255-.774-.255c-.357 0-.639.079-.845.238s-.344.33-.422.522l-.998-.228a1.92 1.92 0 0 1 .518-.802 2.12 2.12 0 0 1 .792-.448 3.11 3.11 0 0 1 .941-.142c.218 0 .449.026.693.079a2.01 2.01 0 0 1 .688.277c.216.134.392.327.53.578s.206.572.206.97v3.622h-1.037v-.746h-.043c-.069.138-.172.273-.309.405s-.314.243-.529.33-.474.132-.774.132zm.231-.853c.293 0 .544-.058.752-.174s.371-.267.48-.454a1.18 1.18 0 0 0 .167-.607v-.703c-.038.037-.112.073-.22.106s-.229.058-.366.082l-.401.06-.327.043c-.206.026-.394.07-.565.131s-.303.15-.405.266a.67.67 0 0 0-.149.455c0 .263.097.462.291.597s.442.198.743.198zm4.937-2.507v3.239h-1.062v-5.455h1.019v.888h.067a1.56 1.56 0 0 1 .59-.696c.27-.175.61-.263 1.019-.263.372 0 .697.079.977.235s.496.383.65.689.23.683.23 1.133v3.469h-1.061v-3.342c0-.395-.103-.704-.309-.926s-.489-.338-.849-.338c-.246 0-.465.053-.657.16s-.34.263-.451.469-.163.45-.163.738zm6.956 3.346c-.44 0-.833-.113-1.179-.338s-.613-.55-.809-.969-.292-.927-.292-1.517.099-1.093.295-1.512.471-.74.817-.963.737-.334 1.175-.334c.339 0 .611.057.817.171a1.45 1.45 0 0 1 .483.391c.116.149.206.28.27.394h.064v-2.703h1.062v7.273h-1.037v-.849h-.089c-.064.116-.156.249-.277.398s-.282.279-.49.391-.478.167-.81.167zm.235-.906c.305 0 .563-.08.774-.241a1.5 1.5 0 0 0 .483-.679c.111-.289.167-.625.167-1.008a2.77 2.77 0 0 0-.164-.995 1.46 1.46 0 0 0-.479-.664c-.211-.158-.471-.238-.781-.238-.32 0-.586.083-.799.249s-.374.392-.483.678a2.76 2.76 0 0 0-.16.97c0 .364.054.692.163.983s.27.522.483.693.481.252.796.252z" class="B"/><mask id="A" maskUnits="userSpaceOnUse" x="292" y="222" width="118" height="20" mask-type="alpha"><path transform="rotate(270 292 242)" fill="url(#C)" d="M292 242h20v118h-20z"/></mask><g mask="url(#A)"><path d="M294 231.5a.5.5 0 1 0 0 1v-1zm115.354.854a.5.5 0 0 0 0-.708l-3.182-3.182a.5.5 0 1 0-.708.708l2.829 2.828-2.829 2.828a.5.5 0 1 0 .708.708l3.182-3.182zM294 232.5h115v-1H294v1z" class="B"/><rect x="333.5" y="222.5" width="37" height="19" rx="1.5" class="D"/><rect x="333.5" y="222.5" width="37" height="19" rx="1.5" class="E"/><path d="M344.072 235.607c-.44 0-.833-.113-1.179-.338s-.613-.55-.81-.969-.291-.927-.291-1.517.099-1.093.295-1.512.471-.74.817-.963.737-.334 1.175-.334c.339 0 .611.057.817.171a1.45 1.45 0 0 1 .483.391c.116.149.206.28.27.394h.064v-2.703h1.062v7.273h-1.037v-.849h-.089c-.064.116-.156.249-.277.398s-.282.279-.49.391-.478.167-.81.167zm.234-.906c.306 0 .564-.08.775-.241a1.5 1.5 0 0 0 .483-.679c.111-.289.166-.625.166-1.008s-.054-.711-.163-.995-.269-.505-.479-.664-.471-.238-.782-.238c-.319 0-.585.083-.799.249s-.374.392-.482.678a2.76 2.76 0 0 0-.16.97c0 .364.054.692.163.983s.27.522.483.693.481.252.795.252zm5.571.92c-.345 0-.658-.064-.937-.192s-.501-.318-.664-.565-.242-.548-.242-.905c0-.308.059-.561.178-.76s.278-.356.479-.472a2.49 2.49 0 0 1 .675-.263 6.82 6.82 0 0 1 .76-.135l.795-.092c.204-.027.352-.068.444-.125s.139-.149.139-.277v-.025c0-.31-.088-.55-.263-.721s-.431-.255-.774-.255c-.358 0-.639.079-.845.238s-.345.33-.423.522l-.998-.228c.119-.331.291-.598.519-.802s.493-.355.792-.448a3.11 3.11 0 0 1 .941-.142c.217 0 .448.026.692.079s.476.142.689.277.392.327.529.578.206.572.206.97v3.622h-1.037v-.746h-.042c-.069.138-.172.273-.309.405a1.63 1.63 0 0 1-.53.33 2.04 2.04 0 0 1-.774.132zm.231-.853c.294 0 .545-.058.753-.174s.37-.267.479-.454a1.17 1.17 0 0 0 .167-.607v-.703c-.038.037-.111.073-.22.106a3.38 3.38 0 0 1-.366.082l-.401.06-.327.043a2.65 2.65 0 0 0-.564.131c-.168.062-.303.15-.405.266s-.149.266-.149.455c0 .263.097.462.291.597s.441.198.742.198zm6.421-4.723v.853h-2.979v-.853h2.979zm-2.18-1.306h1.062v5.159c0 .206.031.361.092.466s.141.171.238.209.207.053.323.053a1.23 1.23 0 0 0 .224-.017l.149-.029.192.877c-.062.024-.149.048-.263.071a2.06 2.06 0 0 1-.426.043c-.279.005-.54-.045-.781-.149s-.437-.265-.586-.483-.224-.491-.224-.82v-5.38zm4.942 6.882c-.345 0-.658-.064-.937-.192s-.501-.318-.664-.565-.242-.548-.242-.905c0-.308.06-.561.178-.76s.278-.356.479-.472.426-.204.675-.263a6.82 6.82 0 0 1 .76-.135l.795-.092c.204-.027.352-.068.444-.125s.139-.149.139-.277v-.025c0-.31-.088-.55-.263-.721s-.431-.255-.774-.255c-.358 0-.639.079-.845.238s-.345.33-.423.522l-.998-.228c.119-.331.291-.598.519-.802s.493-.355.792-.448a3.11 3.11 0 0 1 .941-.142c.217 0 .448.026.692.079s.476.142.689.277.392.327.529.578.206.572.206.97v3.622h-1.037v-.746h-.042c-.069.138-.172.273-.309.405s-.314.243-.529.33a2.05 2.05 0 0 1-.775.132zm.231-.853c.294 0 .545-.058.753-.174s.371-.267.479-.454a1.17 1.17 0 0 0 .167-.607v-.703c-.038.037-.111.073-.22.106a3.38 3.38 0 0 1-.366.082l-.401.06-.327.043a2.65 2.65 0 0 0-.564.131c-.168.062-.303.15-.405.266a.67.67 0 0 0-.149.455c0 .263.097.462.291.597s.442.198.742.198z" class="B"/></g><defs><linearGradient id="B" x1="460" y1="202" x2="460" y2="243.5" gradientUnits="userSpaceOnUse"><stop stop-color="#365314"/><stop offset="1" stop-color="#f7fee7"/></linearGradient><linearGradient id="C" x1="295.226" y1="301" x2="312" y2="301" gradientUnits="userSpaceOnUse"><stop stop-color="#fff" stop-opacity=".2"/><stop offset="1" stop-color="#fff" stop-opacity=".7"/></linearGradient><clipPath id="D"><path fill="#fff" transform="translate(35 138)" d="M0 0h18v16H0z"/></clipPath><clipPath id="E"><rect x="424" y="46" width="70" height="200" rx="2" fill="#fff"/></clipPath><clipPath id="F"><path fill="#fff" transform="translate(451.25 74)" d="M0 0h17.5v20H0z"/></clipPath><clipPath id="G"><path fill="#fff" transform="translate(449.5 122)" d="M0 0h20v20H0z"/></clipPath><path id="H" d="M462 177v-.833-4.334V171h1v.833 4.334.833h-1z"/><path id="I" d="M454.5 177v-.417-2.166V174h1v.417 2.166.417h-1z"/><path id="J" d="M465.707 173.293c-.187-.188-.442-.293-.707-.293s-.52.105-.707.293-.293.442-.293.707.105.52.293.707.442.293.707.293.52-.105.707-.293.293-.442.293-.707-.105-.52-.293-.707z"/><path id="K" d="M458 190v.833 4.334.833h-1v-.833-4.334V190h1z"/><path id="L" d="M465.5 190v.417 2.166.417h-1v-.417-2.166V190h1z"/><path id="M" d="M454.293 193.707c.187.188.442.293.707.293s.52-.105.707-.293.293-.442.293-.707-.105-.52-.293-.707-.442-.293-.707-.293-.52.105-.707.293-.293.442-.293.707.105.52.293.707z"/></defs></svg>