<svg xmlns="http://www.w3.org/2000/svg" width="326" height="206" fill="none" xmlns:v="https://vecta.io/nano"><path d="M5.496 14.192c-1.365 0-2.384-.496-3.056-1.488-.661-.992-.992-2.421-.992-4.288s.331-3.296.992-4.288c.672-.992 1.691-1.488 3.056-1.488.512 0 .955.069 1.328.208s.693.325.96.56a3.42 3.42 0 0 1 .672.8c.181.288.341.581.48.88l-1.152.528c-.096-.245-.208-.475-.336-.688-.128-.224-.283-.416-.464-.576-.171-.171-.379-.304-.624-.4-.235-.096-.523-.144-.864-.144-.885 0-1.547.336-1.984 1.008-.427.672-.64 1.568-.64 2.688v1.824c0 1.12.213 2.016.64 2.688.437.672 1.099 1.008 1.984 1.008.341 0 .629-.048.864-.144.245-.096.453-.224.624-.384a2.71 2.71 0 0 0 .464-.576c.128-.224.24-.459.336-.704l1.152.528c-.139.309-.299.608-.48.896a3.59 3.59 0 0 1-.672.784c-.267.235-.587.421-.96.56s-.816.208-1.328.208zm5.706-1.28h2.88V3.248h-2.88V2.16h4.16v10.752h2.88V14h-7.04v-1.088zM24.828 3.92c-.373 0-.635-.075-.784-.224-.149-.16-.224-.357-.224-.592v-.256a.78.78 0 0 1 .224-.576c.149-.16.411-.24.784-.24s.635.08.784.24a.78.78 0 0 1 .224.576v.256c0 .235-.075.432-.224.592-.149.149-.411.224-.784.224zm-3.616 8.992h2.976v-6.08h-2.976V5.744h4.256v7.168h2.784V14h-7.04v-1.088zm12.842 1.28c-.597 0-1.136-.101-1.616-.304a3.52 3.52 0 0 1-1.216-.864c-.331-.384-.587-.837-.768-1.36-.181-.533-.272-1.125-.272-1.776 0-.661.091-1.259.272-1.792.192-.533.453-.987.784-1.36a3.31 3.31 0 0 1 1.184-.88c.469-.203.987-.304 1.552-.304.555 0 1.056.101 1.504.304a3.33 3.33 0 0 1 1.168.848c.32.352.565.773.736 1.264s.256 1.029.256 1.616v.608h-6.112v.384c0 .363.059.699.176 1.008a2.36 2.36 0 0 0 .496.8 2.43 2.43 0 0 0 .8.528c.32.117.672.176 1.056.176.555 0 1.035-.128 1.44-.384a2.48 2.48 0 0 0 .928-1.056l.944.64c-.245.555-.656 1.013-1.232 1.376-.565.352-1.259.528-2.08.528zm-.08-7.584a2.45 2.45 0 0 0-.976.192c-.299.128-.56.304-.784.528a2.57 2.57 0 0 0-.512.8 2.69 2.69 0 0 0-.176.992v.112h4.736v-.176c0-.363-.059-.693-.176-.992a2.15 2.15 0 0 0-.464-.768 1.85 1.85 0 0 0-.72-.512 2.36 2.36 0 0 0-.928-.176zM40.271 14V5.744h1.28v1.344h.064a3.05 3.05 0 0 1 .32-.576c.128-.192.283-.357.464-.496.192-.139.416-.251.672-.336s.555-.128.896-.128c.864 0 1.557.277 2.08.832.523.544.784 1.317.784 2.32V14h-1.28V8.928c0-.757-.165-1.317-.496-1.68-.331-.373-.816-.56-1.456-.56-.256 0-.507.032-.752.096a2.15 2.15 0 0 0-.656.288 1.47 1.47 0 0 0-.464.496 1.38 1.38 0 0 0-.176.704V14h-1.28zm13.226 0c-.629 0-1.093-.176-1.392-.528-.288-.352-.432-.805-.432-1.36v-5.28h-2.752V5.744h2.048c.277 0 .469-.053.576-.16.117-.117.176-.315.176-.592v-2.16h1.232v2.912h3.76v1.088h-3.76v6.08h3.76V14h-3.216zm7.674-4.976c0-.779.085-1.525.256-2.24a10.43 10.43 0 0 1 .72-2.016 8.73 8.73 0 0 1 1.072-1.664 7.52 7.52 0 0 1 1.28-1.264h1.296a9 9 0 0 0-1.328 1.232 9.34 9.34 0 0 0-1.088 1.52 7.98 7.98 0 0 0-.736 1.776 7.08 7.08 0 0 0-.272 1.968v1.376c0 .683.091 1.344.272 1.984a8.43 8.43 0 0 0 .736 1.776 9.7 9.7 0 0 0 1.088 1.504 8.97 8.97 0 0 0 1.328 1.232h-1.296a7.04 7.04 0 0 1-1.28-1.248c-.405-.501-.763-1.061-1.072-1.68a10.57 10.57 0 0 1-.72-2 9.82 9.82 0 0 1-.256-2.256zm11.21 5.168c-.864 0-1.611-.144-2.24-.432a5.01 5.01 0 0 1-1.584-1.184l.864-.752c.395.416.827.736 1.296.96s1.035.336 1.696.336c.64 0 1.163-.112 1.568-.336.416-.235.624-.597.624-1.088 0-.213-.043-.389-.128-.528a.85.85 0 0 0-.32-.352 1.64 1.64 0 0 0-.464-.192 4.07 4.07 0 0 0-.544-.128l-1.296-.192-.944-.176a3.24 3.24 0 0 1-.912-.352c-.277-.171-.512-.395-.704-.672-.181-.277-.272-.64-.272-1.088 0-.416.08-.773.24-1.072a2.21 2.21 0 0 1 .704-.768c.299-.213.651-.368 1.056-.464a5.21 5.21 0 0 1 1.328-.16c.747 0 1.392.117 1.936.352.555.235 1.029.56 1.424.976l-.832.784a2.36 2.36 0 0 0-.368-.352c-.139-.128-.315-.24-.528-.336a2.99 2.99 0 0 0-.72-.256c-.277-.064-.597-.096-.96-.096-.651 0-1.152.112-1.504.336-.341.224-.512.549-.512.976 0 .213.037.395.112.544a1.01 1.01 0 0 0 .336.336c.139.085.293.155.464.208l.544.112 1.296.192.944.176a2.98 2.98 0 0 1 .912.368 2.02 2.02 0 0 1 .688.656c.192.277.288.64.288 1.088 0 .821-.32 1.456-.96 1.904-.629.448-1.472.672-2.528.672zm11.018-5.168a9.28 9.28 0 0 1-.272 2.256c-.171.715-.411 1.381-.72 2a8.61 8.61 0 0 1-1.056 1.68 7.03 7.03 0 0 1-1.28 1.248h-1.296a9.43 9.43 0 0 0 1.312-1.232 8.44 8.44 0 0 0 1.088-1.504c.32-.555.571-1.147.752-1.776a7.24 7.24 0 0 0 .272-1.984V8.336a7.07 7.07 0 0 0-.272-1.968c-.181-.64-.432-1.232-.752-1.776a8.19 8.19 0 0 0-1.088-1.52 9.43 9.43 0 0 0-1.312-1.232h1.296c.448.341.875.763 1.28 1.264a8.18 8.18 0 0 1 1.056 1.664 9.25 9.25 0 0 1 .72 2.016 9.07 9.07 0 0 1 .272 2.24zM173.594 14v-1.072h2.784V3.904h-2.784V2.832h6.912v1.072h-2.784v9.024h2.784V14h-6.912zm9.818 0V5.744h1.28v1.344h.064c.085-.203.192-.395.32-.576a2.04 2.04 0 0 1 .464-.496c.192-.139.416-.251.672-.336s.554-.128.896-.128c.864 0 1.557.277 2.08.832.522.544.784 1.317.784 2.32V14h-1.28V8.928c0-.757-.166-1.317-.496-1.68-.331-.373-.816-.56-1.456-.56-.256 0-.507.032-.752.096s-.464.16-.656.288a1.47 1.47 0 0 0-.464.496c-.117.203-.176.437-.176.704V14h-1.28zm9.354-1.088h2.783v-6.08h-2.943V5.744h2.943V4.048c0-.555.145-1.008.433-1.36.298-.352.762-.528 1.392-.528h2.768v1.088h-3.312v2.496h3.312v1.088h-3.312v6.08h2.944V14h-7.008v-1.088zm13.209 1.28c-.597 0-1.136-.101-1.616-.304a3.53 3.53 0 0 1-1.216-.864 4.16 4.16 0 0 1-.768-1.36 5.5 5.5 0 0 1-.272-1.776c0-.661.091-1.259.272-1.792.192-.533.454-.987.784-1.36a3.32 3.32 0 0 1 1.184-.88c.47-.203.987-.304 1.552-.304.555 0 1.056.101 1.504.304a3.33 3.33 0 0 1 1.168.848 3.61 3.61 0 0 1 .736 1.264c.17.491.256 1.029.256 1.616v.608h-6.112v.384c0 .363.059.699.176 1.008a2.36 2.36 0 0 0 .496.8c.224.224.491.4.8.528.32.117.672.176 1.056.176.555 0 1.035-.128 1.44-.384a2.48 2.48 0 0 0 .928-1.056l.944.64c-.245.555-.656 1.013-1.232 1.376-.565.352-1.258.528-2.08.528zm-.08-7.584c-.352 0-.677.064-.976.192s-.56.304-.784.528a2.58 2.58 0 0 0-.512.8c-.117.299-.176.629-.176.992v.112h4.736v-.176c0-.363-.058-.693-.176-.992-.106-.299-.261-.555-.464-.768a1.85 1.85 0 0 0-.72-.512c-.277-.117-.586-.176-.928-.176zm5.962 6.304h2.416v-6.08h-2.416V5.744h3.696v2.08h.08c.171-.651.491-1.157.96-1.52.48-.373 1.088-.56 1.824-.56h1.152v1.28h-1.552c-.736 0-1.333.213-1.792.64-.448.427-.672.987-.672 1.68v3.568h3.2V14h-6.896v-1.088zm13.306 1.28c-.598 0-1.136-.101-1.616-.304a3.51 3.51 0 0 1-1.216-.864c-.331-.384-.587-.837-.768-1.36-.182-.533-.272-1.125-.272-1.776 0-.661.09-1.259.272-1.792.192-.533.453-.987.784-1.36a3.3 3.3 0 0 1 1.184-.88 3.87 3.87 0 0 1 1.552-.304 3.61 3.61 0 0 1 1.504.304c.458.203.848.485 1.168.848.32.352.565.773.736 1.264s.256 1.029.256 1.616v.608h-6.112v.384c0 .363.058.699.176 1.008a2.34 2.34 0 0 0 .496.8c.224.224.49.4.8.528.32.117.672.176 1.056.176.554 0 1.034-.128 1.44-.384a2.48 2.48 0 0 0 .928-1.056l.944.64c-.246.555-.656 1.013-1.232 1.376-.566.352-1.259.528-2.08.528zm-.08-7.584a2.45 2.45 0 0 0-.976.192c-.299.128-.56.304-.784.528a2.56 2.56 0 0 0-.512.8c-.118.299-.176.629-.176.992v.112h4.736v-.176c0-.363-.059-.693-.176-.992-.107-.299-.262-.555-.464-.768a1.85 1.85 0 0 0-.72-.512 2.37 2.37 0 0 0-.928-.176zM231.381 14V5.744h1.28v1.344h.064c.085-.203.192-.395.32-.576a2.04 2.04 0 0 1 .464-.496c.192-.139.416-.251.672-.336s.554-.128.896-.128c.864 0 1.557.277 2.08.832.522.544.784 1.317.784 2.32V14h-1.28V8.928c0-.757-.166-1.317-.496-1.68-.331-.373-.816-.56-1.456-.56-.256 0-.507.032-.752.096s-.464.16-.656.288a1.47 1.47 0 0 0-.464.496c-.117.203-.176.437-.176.704V14h-1.28zm13.113.192c-.597 0-1.13-.101-1.6-.304a3.42 3.42 0 0 1-1.168-.88c-.32-.373-.565-.827-.736-1.36-.16-.533-.24-1.125-.24-1.776s.086-1.243.256-1.776.416-.987.736-1.36a3.17 3.17 0 0 1 1.168-.88c.459-.203.982-.304 1.568-.304.8 0 1.451.176 1.952.528a3.09 3.09 0 0 1 1.104 1.376L246.51 8a1.91 1.91 0 0 0-.752-.992c-.341-.235-.768-.352-1.28-.352-.373 0-.709.064-1.008.192a1.99 1.99 0 0 0-.736.512 2.29 2.29 0 0 0-.464.8c-.096.309-.144.645-.144 1.008v1.408c0 .363.048.699.144 1.008.107.309.262.576.464.8a2.13 2.13 0 0 0 .752.528c.299.117.64.176 1.024.176.555 0 1.014-.128 1.376-.384s.651-.608.864-1.056l.912.624c-.245.555-.629 1.013-1.152 1.376-.512.363-1.184.544-2.016.544zm9.45 0c-.597 0-1.136-.101-1.616-.304a3.52 3.52 0 0 1-1.216-.864c-.331-.384-.587-.837-.768-1.36a5.5 5.5 0 0 1-.272-1.776c0-.661.091-1.259.272-1.792.192-.533.453-.987.784-1.36a3.31 3.31 0 0 1 1.184-.88c.469-.203.987-.304 1.552-.304.555 0 1.056.101 1.504.304a3.33 3.33 0 0 1 1.168.848c.32.352.565.773.736 1.264s.256 1.029.256 1.616v.608h-6.112v.384c0 .363.059.699.176 1.008a2.36 2.36 0 0 0 .496.8c.224.224.491.4.8.528.32.117.672.176 1.056.176.555 0 1.035-.128 1.44-.384a2.48 2.48 0 0 0 .928-1.056l.944.64c-.245.555-.656 1.013-1.232 1.376-.565.352-1.259.528-2.08.528zm-.08-7.584c-.352 0-.677.064-.976.192s-.56.304-.784.528a2.58 2.58 0 0 0-.512.8c-.117.299-.176.629-.176.992v.112h4.736v-.176c0-.363-.059-.693-.176-.992-.107-.299-.261-.555-.464-.768a1.85 1.85 0 0 0-.72-.512 2.36 2.36 0 0 0-.928-.176zm19.092 7.584c-1.003 0-1.824-.181-2.464-.544-.64-.373-1.168-.848-1.584-1.424l.976-.8c.437.544.896.949 1.376 1.216.49.267 1.072.4 1.744.4.81 0 1.429-.187 1.856-.56s.64-.896.64-1.568c0-.544-.155-.965-.464-1.264-.31-.309-.848-.528-1.616-.656l-1.248-.208c-.544-.096-1.003-.24-1.376-.432-.363-.192-.656-.421-.88-.688a2.61 2.61 0 0 1-.48-.896c-.096-.331-.144-.672-.144-1.024 0-1.024.336-1.797 1.007-2.32s1.579-.784 2.721-.784c.896 0 1.648.149 2.256.448a3.75 3.75 0 0 1 1.488 1.264l-.944.816a3.85 3.85 0 0 0-1.12-.992c-.437-.256-1.003-.384-1.696-.384-.758 0-1.339.16-1.744.48s-.608.8-.608 1.44c0 .501.149.912.448 1.232.309.309.858.533 1.648.672l1.2.208c.544.096 1.002.24 1.376.432s.672.421.896.688c.234.267.4.565.496.896a3.71 3.71 0 0 1 .144 1.04c0 1.035-.342 1.845-1.024 2.432-.672.587-1.632.88-2.88.88zm9.769 0c-.597 0-1.136-.101-1.616-.304a3.53 3.53 0 0 1-1.216-.864 4.16 4.16 0 0 1-.768-1.36 5.5 5.5 0 0 1-.272-1.776c0-.661.091-1.259.272-1.792.192-.533.454-.987.784-1.36a3.32 3.32 0 0 1 1.184-.88c.47-.203.987-.304 1.552-.304.555 0 1.056.101 1.504.304a3.33 3.33 0 0 1 1.168.848 3.61 3.61 0 0 1 .736 1.264c.17.491.256 1.029.256 1.616v.608h-6.112v.384c0 .363.059.699.176 1.008a2.36 2.36 0 0 0 .496.8c.224.224.491.4.8.528.32.117.672.176 1.056.176.555 0 1.035-.128 1.44-.384a2.48 2.48 0 0 0 .928-1.056l.944.64c-.245.555-.656 1.013-1.232 1.376-.565.352-1.258.528-2.08.528zm-.08-7.584c-.352 0-.677.064-.976.192s-.56.304-.784.528a2.58 2.58 0 0 0-.512.8c-.117.299-.176.629-.176.992v.112h4.736v-.176c0-.363-.058-.693-.176-.992-.106-.299-.261-.555-.464-.768a1.85 1.85 0 0 0-.72-.512c-.277-.117-.586-.176-.928-.176zm5.962 6.304h2.416v-6.08h-2.416V5.744h3.696v2.08h.08c.171-.651.491-1.157.96-1.52.48-.373 1.088-.56 1.824-.56h1.152v1.28h-1.552c-.736 0-1.333.213-1.792.64-.448.427-.672.987-.672 1.68v3.568h3.2V14h-6.896v-1.088zM300.953 14l-2.96-8.256h1.296l1.184 3.456 1.28 3.728h.064l1.28-3.728 1.184-3.456h1.264L302.585 14h-1.632zm10.554.192c-.598 0-1.136-.101-1.616-.304a3.53 3.53 0 0 1-1.217-.864 4.14 4.14 0 0 1-.767-1.36c-.182-.533-.272-1.125-.272-1.776 0-.661.09-1.259.272-1.792.192-.533.453-.987.784-1.36a3.3 3.3 0 0 1 1.184-.88 3.87 3.87 0 0 1 1.552-.304 3.61 3.61 0 0 1 1.504.304c.458.203.848.485 1.168.848.32.352.565.773.736 1.264s.256 1.029.256 1.616v.608h-6.112v.384c0 .363.058.699.176 1.008a2.34 2.34 0 0 0 .496.8c.224.224.49.4.8.528.32.117.672.176 1.056.176.554 0 1.034-.128 1.44-.384a2.48 2.48 0 0 0 .928-1.056l.944.64c-.246.555-.656 1.013-1.232 1.376-.566.352-1.259.528-2.08.528zm-.08-7.584a2.45 2.45 0 0 0-.976.192c-.299.128-.56.304-.784.528a2.56 2.56 0 0 0-.512.8c-.118.299-.176.629-.176.992v.112h4.736v-.176c0-.363-.059-.693-.176-.992-.107-.299-.262-.555-.464-.768a1.85 1.85 0 0 0-.72-.512 2.37 2.37 0 0 0-.928-.176zm5.961 6.304h2.416v-6.08h-2.416V5.744h3.696v2.08h.08c.171-.651.491-1.157.96-1.52.48-.373 1.088-.56 1.824-.56h1.152v1.28h-1.552c-.736 0-1.333.213-1.792.64-.448.427-.672.987-.672 1.68v3.568h3.2V14h-6.896v-1.088z" fill="#1f2937"/><rect x="219.5" y="46.5" width="59" height="159" rx="1.5" fill="#faf5ff"/><rect x="219.5" y="46.5" width="59" height="159" rx="1.5" stroke="#581c87"/><path d="M240.25 118.5v5h17.5v-5h-17.5zm-1.25-1.25h1.25 17.5H259v1.25 5 1.25h-1.25-17.5H239v-1.25-5-1.25zm1.25 11.25v5h17.5v-5h-17.5zm-1.25-1.25h1.25 17.5H259v1.25 5 1.25h-1.25-17.5H239v-1.25-5-1.25zm11.875 3.75c0-.249.099-.487.275-.663s.414-.275.662-.275.488.099.663.275.275.414.275.663-.099.487-.275.663-.414.275-.663.275-.487-.099-.662-.275-.275-.414-.275-.663zm.937-10.938c.249 0 .488.099.663.275s.275.414.275.663-.099.487-.275.663-.414.275-.663.275-.487-.099-.662-.275-.275-.414-.275-.663.099-.487.275-.663.414-.275.662-.275zM254 131c0-.249.099-.487.275-.663s.414-.275.663-.275.487.099.662.275.275.414.275.663-.099.487-.275.663-.414.275-.662.275-.488-.099-.663-.275-.275-.414-.275-.663zm.938-10.938c.248 0 .487.099.662.275s.275.414.275.663-.099.487-.275.663-.414.275-.662.275-.488-.099-.663-.275-.275-.414-.275-.663.099-.487.275-.663.414-.275.663-.275z" fill="#4c1d95"/><path d="M89 100.5a.5.5 0 1 0 0 1v-1zm115.354.854a.5.5 0 0 0 0-.708l-3.182-3.181a.5.5 0 1 0-.708.707l2.829 2.828-2.829 2.828a.5.5 0 1 0 .708.708l3.182-3.182zM89 101.5h115v-1H89v1z" fill="#1f2937"/><rect x="124.5" y="91.5" width="45" height="19" rx="1.5" fill="#f3f4f6"/><rect x="124.5" y="91.5" width="45" height="19" rx="1.5" stroke="#1f2937"/><path d="M133.183 104.5v-5.454h1.061v5.454h-1.061zm.536-6.296a.67.67 0 0 1-.476-.185.6.6 0 0 1-.195-.447c0-.175.065-.324.195-.447s.291-.188.476-.188.342.063.472.188a.6.6 0 0 1 .199.447.59.59 0 0 1-.199.447.66.66 0 0 1-.472.185zm1.954 6.296v-5.454h1.019v.888h.067a1.41 1.41 0 0 1 .558-.703c.258-.168.567-.256.927-.256s.67.085.916.256.432.405.55.703h.057c.13-.291.338-.523.622-.696s.622-.263 1.015-.263c.495 0 .899.155 1.211.465s.473.777.473 1.402v3.658h-1.062v-3.558c0-.37-.101-.637-.302-.803a1.1 1.1 0 0 0-.721-.248c-.346 0-.614.107-.806.319s-.288.482-.288.813v3.477h-1.058v-3.626c0-.296-.092-.534-.277-.713s-.425-.27-.721-.27c-.201 0-.387.053-.557.159a1.18 1.18 0 0 0-.409.437c-.102.187-.152.404-.152.65v3.363h-1.062zm10.425.121a2.22 2.22 0 0 1-.937-.192c-.28-.13-.501-.318-.665-.565s-.241-.548-.241-.905c0-.308.059-.561.178-.76s.278-.356.479-.472a2.49 2.49 0 0 1 .675-.263 6.78 6.78 0 0 1 .76-.135l.795-.092c.204-.027.352-.068.444-.125s.138-.149.138-.277v-.025c0-.31-.087-.55-.262-.721s-.431-.255-.774-.255c-.358 0-.64.079-.846.238s-.344.33-.422.522l-.998-.228c.118-.331.291-.599.518-.802a2.11 2.11 0 0 1 .792-.447c.299-.095.612-.142.941-.142a3.33 3.33 0 0 1 .693.078 2.03 2.03 0 0 1 .689.277 1.54 1.54 0 0 1 .529.579c.137.249.206.572.206.97v3.622h-1.037v-.746h-.043c-.068.138-.171.273-.309.405a1.64 1.64 0 0 1-.529.33 2.04 2.04 0 0 1-.774.132zm.231-.853c.293 0 .544-.058.753-.174a1.22 1.22 0 0 0 .479-.454 1.18 1.18 0 0 0 .167-.607v-.703c-.038.037-.111.073-.22.106a3.14 3.14 0 0 1-.366.082l-.401.06-.327.043c-.206.026-.394.07-.565.131s-.303.15-.404.266-.15.266-.15.455a.68.68 0 0 0 .292.597c.194.132.441.198.742.198zm6.162 2.891c-.433 0-.806-.057-1.119-.17s-.563-.264-.76-.451a1.88 1.88 0 0 1-.44-.615l.913-.376c.064.104.149.214.255.33a1.32 1.32 0 0 0 .441.302c.187.083.427.124.721.124.402 0 .735-.098.997-.294s.395-.505.395-.931v-1.072h-.068c-.064.116-.156.245-.277.387s-.282.265-.49.369-.479.156-.813.156c-.431 0-.819-.1-1.165-.302s-.615-.503-.817-.898-.298-.887-.298-1.467.098-1.077.295-1.491.471-.732.817-.952a2.12 2.12 0 0 1 1.175-.334c.339 0 .612.057.82.171s.371.241.487.391.209.281.273.394h.078v-.884h1.041v5.575c0 .468-.109.853-.327 1.154s-.512.523-.884.667-.786.217-1.25.217zm-.011-3.121c.306 0 .564-.071.774-.213s.374-.351.483-.618.167-.593.167-.97c0-.367-.054-.69-.163-.969s-.269-.497-.479-.654-.472-.238-.782-.238c-.319 0-.586.083-.799.249s-.374.386-.483.668a2.66 2.66 0 0 0-.159.944c0 .358.054.671.163.941a1.39 1.39 0 0 0 .483.632c.215.152.48.228.795.228zm6.247 1.072c-.538 0-1-.115-1.389-.344a2.34 2.34 0 0 1-.895-.977c-.208-.421-.312-.915-.312-1.481 0-.558.104-1.051.312-1.477a2.41 2.41 0 0 1 .881-.998c.376-.239.822-.359 1.328-.359a2.67 2.67 0 0 1 .895.153 2.17 2.17 0 0 1 .778.479c.229.218.41.501.543.849s.199.766.199 1.261v.376h-4.336v-.795h3.295c0-.279-.056-.527-.17-.742s-.273-.39-.479-.515a1.34 1.34 0 0 0-.718-.188c-.298 0-.558.073-.781.22a1.47 1.47 0 0 0-.511.568 1.63 1.63 0 0 0-.178.756v.622c0 .364.064.674.192.93a1.37 1.37 0 0 0 .543.586c.232.135.503.199.813.199.202 0 .385-.028.551-.085a1.19 1.19 0 0 0 .43-.263c.12-.116.213-.259.276-.43l1.005.181c-.08.296-.224.556-.433.778s-.465.392-.777.515-.665.181-1.062.181zM204 151.5a.5.5 0 1 0 0-1v1zm-115.353-.854a.5.5 0 0 0 0 .708l3.182 3.182a.5.5 0 1 0 .707-.708L89.707 151l2.828-2.828a.5.5 0 1 0-.707-.708l-3.182 3.182zM204 150.5H89v1h115v-1z" fill="#1f2937"/><rect x="116.5" y="141.5" width="60" height="19" rx="1.5" fill="#f3f4f6"/><rect x="116.5" y="141.5" width="60" height="19" rx="1.5" stroke="#1f2937"/><path d="M125.075 154.5v-5.455h1.026v.867h.057c.1-.294.275-.524.526-.693s.54-.255.859-.255l.235.007.216.018v1.015a1.8 1.8 0 0 0-.227-.039 2.25 2.25 0 0 0-.327-.025 1.39 1.39 0 0 0-.671.16 1.19 1.19 0 0 0-.462.437c-.113.185-.17.395-.17.632v3.331h-1.062zm5.994.11c-.538 0-1.001-.115-1.389-.344a2.34 2.34 0 0 1-.895-.977c-.208-.421-.312-.915-.312-1.481 0-.558.104-1.051.312-1.477s.504-.759.881-.998.821-.359 1.328-.359a2.67 2.67 0 0 1 .895.153 2.17 2.17 0 0 1 .778.48c.229.217.41.5.543.848s.199.766.199 1.261v.376h-4.336v-.795h3.295c0-.279-.057-.527-.17-.742a1.29 1.29 0 0 0-.48-.515c-.203-.126-.442-.188-.717-.188-.298 0-.559.073-.781.22a1.48 1.48 0 0 0-.512.568c-.118.232-.177.484-.177.756v.622c0 .364.064.674.192.93s.311.451.543.586.503.199.813.199a1.69 1.69 0 0 0 .551-.085c.165-.059.309-.147.429-.263s.213-.259.277-.43l1.005.181c-.08.296-.225.556-.433.778s-.465.392-.778.515-.664.181-1.061.181zm7.605-4.233l-.962.171c-.04-.124-.104-.241-.192-.352s-.201-.202-.348-.273a1.26 1.26 0 0 0-.55-.107c-.301 0-.552.068-.753.202s-.302.305-.302.515c0 .183.067.329.202.441s.353.202.654.273l.866.199c.502.116.876.295 1.122.536s.37.555.37.941c0 .327-.095.618-.284.874a1.86 1.86 0 0 1-.785.596c-.334.145-.721.217-1.161.217-.611 0-1.11-.13-1.495-.391a1.65 1.65 0 0 1-.711-1.118l1.027-.156c.064.267.195.47.394.607s.458.202.778.202c.348 0 .626-.072.834-.216s.313-.326.313-.537c0-.17-.064-.313-.192-.429s-.319-.204-.579-.263l-.923-.202c-.509-.116-.886-.301-1.13-.554s-.362-.575-.362-.963c0-.322.09-.603.27-.845s.429-.43.746-.565.68-.206 1.09-.206c.589 0 1.053.128 1.392.384a1.78 1.78 0 0 1 .671 1.019zm1.274 6.168v-7.5h1.037v.885h.089c.061-.114.15-.245.266-.394s.277-.28.483-.391.478-.171.817-.171c.44 0 .833.112 1.179.334s.617.544.813.963.298.923.298 1.512-.098 1.095-.294 1.517-.467.742-.81.969-.735.338-1.175.338c-.332 0-.603-.056-.814-.167s-.371-.242-.49-.391-.209-.282-.273-.398h-.064v2.894h-1.062zm1.041-4.772a2.78 2.78 0 0 0 .167 1.008c.111.289.272.515.482.679s.469.241.775.241c.317 0 .582-.084.795-.252s.374-.401.483-.693.167-.619.167-.983-.054-.683-.163-.97-.268-.512-.483-.678-.48-.249-.799-.249c-.308 0-.569.08-.782.238s-.37.38-.479.664-.163.616-.163.995zm7.429 2.837c-.512 0-.958-.117-1.339-.351a2.38 2.38 0 0 1-.888-.984c-.211-.422-.316-.914-.316-1.477s.105-1.061.316-1.485.507-.753.888-.987.827-.352 1.339-.352.957.118 1.338.352.677.563.888.987.316.919.316 1.485-.105 1.055-.316 1.477-.506.749-.888.984-.827.351-1.338.351zm.003-.891c.332 0 .606-.088.824-.263s.379-.408.483-.7a2.77 2.77 0 0 0 .16-.962 2.76 2.76 0 0 0-.16-.959c-.104-.293-.265-.529-.483-.706s-.492-.267-.824-.267-.611.089-.831.267-.38.413-.486.706-.157.611-.157.959.053.671.157.962.268.525.486.7.497.263.831.263zm4.786-2.458v3.239h-1.062v-5.455h1.02v.888h.067a1.56 1.56 0 0 1 .59-.696c.269-.175.609-.263 1.019-.263.371 0 .697.079.976.235s.496.383.65.689.231.683.231 1.133v3.469h-1.062v-3.342c0-.395-.103-.704-.309-.926s-.489-.338-.848-.338a1.32 1.32 0 0 0-.657.16c-.19.107-.34.263-.451.469s-.164.45-.164.738zm9.002-.884l-.962.171c-.04-.124-.104-.241-.192-.352s-.201-.202-.348-.273a1.26 1.26 0 0 0-.55-.107c-.301 0-.552.068-.753.202s-.302.305-.302.515c0 .183.068.329.203.441s.352.202.653.273l.866.199c.502.116.876.295 1.123.536s.369.555.369.941c0 .327-.095.618-.284.874a1.86 1.86 0 0 1-.785.596c-.334.145-.721.217-1.161.217-.611 0-1.109-.13-1.495-.391s-.623-.635-.71-1.118l1.026-.156c.064.267.195.47.394.607s.458.202.778.202c.348 0 .626-.072.834-.216s.313-.326.313-.537c0-.17-.064-.313-.192-.429s-.319-.204-.579-.263l-.923-.202c-.509-.116-.886-.301-1.129-.554s-.363-.575-.363-.963c0-.322.09-.603.27-.845s.429-.43.746-.565.681-.206 1.09-.206c.59 0 1.054.128 1.392.384a1.78 1.78 0 0 1 .671 1.019zm3.625 4.233c-.537 0-1-.115-1.388-.344s-.685-.558-.895-.977-.313-.915-.313-1.481c0-.558.104-1.051.313-1.477s.504-.759.88-.998.822-.359 1.329-.359c.307 0 .606.051.894.153s.549.262.778.48.411.5.543.848.199.766.199 1.261v.376h-4.336v-.795h3.296c0-.279-.057-.527-.171-.742a1.28 1.28 0 0 0-.479-.515c-.204-.126-.443-.188-.717-.188-.299 0-.559.073-.782.22a1.48 1.48 0 0 0-.511.568c-.118.232-.177.484-.177.756v.622c0 .364.063.674.191.93s.312.451.544.586.503.199.813.199a1.68 1.68 0 0 0 .55-.085 1.19 1.19 0 0 0 .43-.263c.121-.116.213-.259.277-.43l1.005.181c-.081.296-.225.556-.433.778s-.466.392-.778.515-.664.181-1.062.181z" fill="#1f2937"/><rect x="14.5" y="46.5" width="59" height="159" rx="1.5" fill="#ecfeff"/><rect x="14.5" y="46.5" width="59" height="159" rx="1.5" stroke="#0e7490"/><path d="M52.889 82.222H35.111V90h17.778v-7.778zM54 90v1.111 3.333 1.111h-1.111-6.288l.371 2.222H49h.556v1.111H49h-2.5-5H39h-.556v-1.111H39h2.028l.371-2.222h-6.288H34v-1.111-3.333V90v-7.778-1.111h1.111 17.778H54v1.111V90zm-18.889 1.111v3.333h6.934.021 3.871.021 6.931v-3.333H35.111zm7.045 6.667h3.688l-.372-2.222h-2.948l-.371 2.222h.003zm6.344 22.236v10.125h-9v-10.125h9zm0 11.25v4.5h-9v-4.5h9zm-9-12.375h-1.125v1.125 15.75 1.125H39.5h9 1.125v-1.125-15.75-1.125H48.5h-9zm5.344 14.625c0-.224-.089-.439-.247-.597s-.373-.247-.597-.247-.438.089-.597.247a.84.84 0 0 0 0 1.193.84.84 0 0 0 1.193 0c.158-.158.247-.373.247-.596zM51 157.889H37v9h-1v-9-1h1 14 1v1 9h-1v-9zm-15.084 12h16.172l.913-.916v-.084H35v.084l.916.916zm18.084-2v1 .5l-1.5 1.5h-17l-1.5-1.5v-.5-1h1 18 1z" fill="#164e63"/></svg>