<svg xmlns="http://www.w3.org/2000/svg" width="497" height="206" fill="none" xmlns:v="https://vecta.io/nano"><g fill="#1f2937"><path d="M5.496 14.192c-1.365 0-2.384-.496-3.056-1.488-.661-.992-.992-2.421-.992-4.288s.331-3.296.992-4.288c.672-.992 1.691-1.488 3.056-1.488.512 0 .955.069 1.328.208s.693.325.96.56a3.42 3.42 0 0 1 .672.8c.181.288.341.581.48.88l-1.152.528c-.096-.245-.208-.475-.336-.688-.128-.224-.283-.416-.464-.576-.171-.171-.379-.304-.624-.4-.235-.096-.523-.144-.864-.144-.885 0-1.547.336-1.984 1.008-.427.672-.64 1.568-.64 2.688v1.824c0 1.12.213 2.016.64 2.688.437.672 1.099 1.008 1.984 1.008.341 0 .629-.048.864-.144.245-.096.453-.224.624-.384a2.71 2.71 0 0 0 .464-.576c.128-.224.24-.459.336-.704l1.152.528c-.139.309-.299.608-.48.896a3.59 3.59 0 0 1-.672.784c-.267.235-.587.421-.96.56s-.816.208-1.328.208zm5.706-1.28h2.88V3.248h-2.88V2.16h4.16v10.752h2.88V14h-7.04v-1.088zM24.828 3.92c-.373 0-.635-.075-.784-.224-.149-.16-.224-.357-.224-.592v-.256a.78.78 0 0 1 .224-.576c.149-.16.411-.24.784-.24s.635.08.784.24a.78.78 0 0 1 .224.576v.256c0 .235-.075.432-.224.592-.149.149-.411.224-.784.224zm-3.616 8.992h2.976v-6.08h-2.976V5.744h4.256v7.168h2.784V14h-7.04v-1.088zm12.842 1.28c-.597 0-1.136-.101-1.616-.304a3.52 3.52 0 0 1-1.216-.864c-.331-.384-.587-.837-.768-1.36-.181-.533-.272-1.125-.272-1.776 0-.661.091-1.259.272-1.792.192-.533.453-.987.784-1.36a3.31 3.31 0 0 1 1.184-.88c.469-.203.987-.304 1.552-.304.555 0 1.056.101 1.504.304a3.33 3.33 0 0 1 1.168.848c.32.352.565.773.736 1.264s.256 1.029.256 1.616v.608h-6.112v.384c0 .363.059.699.176 1.008a2.36 2.36 0 0 0 .496.8 2.43 2.43 0 0 0 .8.528c.32.117.672.176 1.056.176.555 0 1.035-.128 1.44-.384a2.48 2.48 0 0 0 .928-1.056l.944.64c-.245.555-.656 1.013-1.232 1.376-.565.352-1.259.528-2.08.528zm-.08-7.584a2.45 2.45 0 0 0-.976.192c-.299.128-.56.304-.784.528a2.57 2.57 0 0 0-.512.8 2.69 2.69 0 0 0-.176.992v.112h4.736v-.176c0-.363-.059-.693-.176-.992a2.15 2.15 0 0 0-.464-.768 1.85 1.85 0 0 0-.72-.512 2.36 2.36 0 0 0-.928-.176zM40.271 14V5.744h1.28v1.344h.064a3.05 3.05 0 0 1 .32-.576c.128-.192.283-.357.464-.496.192-.139.416-.251.672-.336s.555-.128.896-.128c.864 0 1.557.277 2.08.832.523.544.784 1.317.784 2.32V14h-1.28V8.928c0-.757-.165-1.317-.496-1.68-.331-.373-.816-.56-1.456-.56-.256 0-.507.032-.752.096a2.15 2.15 0 0 0-.656.288 1.47 1.47 0 0 0-.464.496 1.38 1.38 0 0 0-.176.704V14h-1.28zm13.226 0c-.629 0-1.093-.176-1.392-.528-.288-.352-.432-.805-.432-1.36v-5.28h-2.752V5.744h2.048c.277 0 .469-.053.576-.16.117-.117.176-.315.176-.592v-2.16h1.232v2.912h3.76v1.088h-3.76v6.08h3.76V14h-3.216zm7.674-4.976c0-.779.085-1.525.256-2.24a10.43 10.43 0 0 1 .72-2.016 8.73 8.73 0 0 1 1.072-1.664 7.52 7.52 0 0 1 1.28-1.264h1.296a9 9 0 0 0-1.328 1.232 9.34 9.34 0 0 0-1.088 1.52 7.98 7.98 0 0 0-.736 1.776 7.08 7.08 0 0 0-.272 1.968v1.376c0 .683.091 1.344.272 1.984a8.43 8.43 0 0 0 .736 1.776 9.7 9.7 0 0 0 1.088 1.504 8.97 8.97 0 0 0 1.328 1.232h-1.296a7.04 7.04 0 0 1-1.28-1.248c-.405-.501-.763-1.061-1.072-1.68a10.57 10.57 0 0 1-.72-2 9.82 9.82 0 0 1-.256-2.256zm11.21 5.168c-.864 0-1.611-.144-2.24-.432a5.01 5.01 0 0 1-1.584-1.184l.864-.752c.395.416.827.736 1.296.96s1.035.336 1.696.336c.64 0 1.163-.112 1.568-.336.416-.235.624-.597.624-1.088 0-.213-.043-.389-.128-.528a.85.85 0 0 0-.32-.352 1.64 1.64 0 0 0-.464-.192 4.07 4.07 0 0 0-.544-.128l-1.296-.192-.944-.176a3.24 3.24 0 0 1-.912-.352c-.277-.171-.512-.395-.704-.672-.181-.277-.272-.64-.272-1.088 0-.416.08-.773.24-1.072a2.21 2.21 0 0 1 .704-.768c.299-.213.651-.368 1.056-.464a5.21 5.21 0 0 1 1.328-.16c.747 0 1.392.117 1.936.352.555.235 1.029.56 1.424.976l-.832.784a2.36 2.36 0 0 0-.368-.352c-.139-.128-.315-.24-.528-.336a2.99 2.99 0 0 0-.72-.256c-.277-.064-.597-.096-.96-.096-.651 0-1.152.112-1.504.336-.341.224-.512.549-.512.976 0 .213.037.395.112.544a1.01 1.01 0 0 0 .336.336c.139.085.293.155.464.208l.544.112 1.296.192.944.176a2.98 2.98 0 0 1 .912.368 2.02 2.02 0 0 1 .688.656c.192.277.288.64.288 1.088 0 .821-.32 1.456-.96 1.904-.629.448-1.472.672-2.528.672zm11.018-5.168a9.28 9.28 0 0 1-.272 2.256c-.171.715-.411 1.381-.72 2a8.61 8.61 0 0 1-1.056 1.68 7.03 7.03 0 0 1-1.28 1.248h-1.296a9.43 9.43 0 0 0 1.312-1.232 8.44 8.44 0 0 0 1.088-1.504c.32-.555.571-1.147.752-1.776a7.24 7.24 0 0 0 .272-1.984V8.336a7.07 7.07 0 0 0-.272-1.968c-.181-.64-.432-1.232-.752-1.776a8.19 8.19 0 0 0-1.088-1.52 9.43 9.43 0 0 0-1.312-1.232h1.296c.448.341.875.763 1.28 1.264a8.18 8.18 0 0 1 1.056 1.664 9.25 9.25 0 0 1 .72 2.016 9.07 9.07 0 0 1 .272 2.24zM174.594 14v-1.072h2.784V3.904h-2.784V2.832h6.912v1.072h-2.784v9.024h2.784V14h-6.912zm9.818 0V5.744h1.28v1.344h.064c.085-.203.192-.395.32-.576a2.04 2.04 0 0 1 .464-.496c.192-.139.416-.251.672-.336s.554-.128.896-.128c.864 0 1.557.277 2.08.832.522.544.784 1.317.784 2.32V14h-1.28V8.928c0-.757-.166-1.317-.496-1.68-.331-.373-.816-.56-1.456-.56-.256 0-.507.032-.752.096s-.464.16-.656.288a1.47 1.47 0 0 0-.464.496c-.117.203-.176.437-.176.704V14h-1.28zm9.354-1.088h2.783v-6.08h-2.943V5.744h2.943V4.048c0-.555.145-1.008.433-1.36.298-.352.762-.528 1.392-.528h2.768v1.088h-3.312v2.496h3.312v1.088h-3.312v6.08h2.944V14h-7.008v-1.088zm13.209 1.28c-.597 0-1.136-.101-1.616-.304a3.53 3.53 0 0 1-1.216-.864 4.16 4.16 0 0 1-.768-1.36 5.5 5.5 0 0 1-.272-1.776c0-.661.091-1.259.272-1.792.192-.533.454-.987.784-1.36a3.32 3.32 0 0 1 1.184-.88c.47-.203.987-.304 1.552-.304.555 0 1.056.101 1.504.304a3.33 3.33 0 0 1 1.168.848 3.61 3.61 0 0 1 .736 1.264c.17.491.256 1.029.256 1.616v.608h-6.112v.384c0 .363.059.699.176 1.008a2.36 2.36 0 0 0 .496.8c.224.224.491.4.8.528.32.117.672.176 1.056.176.555 0 1.035-.128 1.44-.384a2.48 2.48 0 0 0 .928-1.056l.944.64c-.245.555-.656 1.013-1.232 1.376-.565.352-1.258.528-2.08.528zm-.08-7.584c-.352 0-.677.064-.976.192s-.56.304-.784.528a2.58 2.58 0 0 0-.512.8c-.117.299-.176.629-.176.992v.112h4.736v-.176c0-.363-.058-.693-.176-.992-.106-.299-.261-.555-.464-.768a1.85 1.85 0 0 0-.72-.512c-.277-.117-.586-.176-.928-.176zm5.962 6.304h2.416v-6.08h-2.416V5.744h3.696v2.08h.08c.171-.651.491-1.157.96-1.52.48-.373 1.088-.56 1.824-.56h1.152v1.28h-1.552c-.736 0-1.333.213-1.792.64-.448.427-.672.987-.672 1.68v3.568h3.2V14h-6.896v-1.088zm13.306 1.28c-.598 0-1.136-.101-1.616-.304a3.51 3.51 0 0 1-1.216-.864c-.331-.384-.587-.837-.768-1.36-.182-.533-.272-1.125-.272-1.776 0-.661.09-1.259.272-1.792.192-.533.453-.987.784-1.36a3.3 3.3 0 0 1 1.184-.88 3.87 3.87 0 0 1 1.552-.304 3.61 3.61 0 0 1 1.504.304c.458.203.848.485 1.168.848.32.352.565.773.736 1.264s.256 1.029.256 1.616v.608h-6.112v.384c0 .363.058.699.176 1.008a2.34 2.34 0 0 0 .496.8c.224.224.49.4.8.528.32.117.672.176 1.056.176.554 0 1.034-.128 1.44-.384a2.48 2.48 0 0 0 .928-1.056l.944.64c-.246.555-.656 1.013-1.232 1.376-.566.352-1.259.528-2.08.528zm-.08-7.584a2.45 2.45 0 0 0-.976.192c-.299.128-.56.304-.784.528a2.56 2.56 0 0 0-.512.8c-.118.299-.176.629-.176.992v.112h4.736v-.176c0-.363-.059-.693-.176-.992-.107-.299-.262-.555-.464-.768a1.85 1.85 0 0 0-.72-.512 2.37 2.37 0 0 0-.928-.176zM232.381 14V5.744h1.28v1.344h.064c.085-.203.192-.395.32-.576a2.04 2.04 0 0 1 .464-.496c.192-.139.416-.251.672-.336s.554-.128.896-.128c.864 0 1.557.277 2.08.832.522.544.784 1.317.784 2.32V14h-1.28V8.928c0-.757-.166-1.317-.496-1.68-.331-.373-.816-.56-1.456-.56-.256 0-.507.032-.752.096s-.464.16-.656.288a1.47 1.47 0 0 0-.464.496c-.117.203-.176.437-.176.704V14h-1.28zm13.113.192c-.597 0-1.13-.101-1.6-.304a3.42 3.42 0 0 1-1.168-.88c-.32-.373-.565-.827-.736-1.36-.16-.533-.24-1.125-.24-1.776s.086-1.243.256-1.776.416-.987.736-1.36a3.17 3.17 0 0 1 1.168-.88c.459-.203.982-.304 1.568-.304.8 0 1.451.176 1.952.528a3.09 3.09 0 0 1 1.104 1.376L247.51 8a1.91 1.91 0 0 0-.752-.992c-.341-.235-.768-.352-1.28-.352-.373 0-.709.064-1.008.192a1.99 1.99 0 0 0-.736.512 2.29 2.29 0 0 0-.464.8c-.096.309-.144.645-.144 1.008v1.408c0 .363.048.699.144 1.008.107.309.262.576.464.8a2.13 2.13 0 0 0 .752.528c.299.117.64.176 1.024.176.555 0 1.014-.128 1.376-.384s.651-.608.864-1.056l.912.624c-.245.555-.629 1.013-1.152 1.376-.512.363-1.184.544-2.016.544zm9.45 0c-.597 0-1.136-.101-1.616-.304a3.52 3.52 0 0 1-1.216-.864c-.331-.384-.587-.837-.768-1.36a5.5 5.5 0 0 1-.272-1.776c0-.661.091-1.259.272-1.792.192-.533.453-.987.784-1.36a3.31 3.31 0 0 1 1.184-.88c.469-.203.987-.304 1.552-.304.555 0 1.056.101 1.504.304a3.33 3.33 0 0 1 1.168.848c.32.352.565.773.736 1.264s.256 1.029.256 1.616v.608h-6.112v.384c0 .363.059.699.176 1.008a2.36 2.36 0 0 0 .496.8c.224.224.491.4.8.528.32.117.672.176 1.056.176.555 0 1.035-.128 1.44-.384a2.48 2.48 0 0 0 .928-1.056l.944.64c-.245.555-.656 1.013-1.232 1.376-.565.352-1.259.528-2.08.528zm-.08-7.584c-.352 0-.677.064-.976.192s-.56.304-.784.528a2.58 2.58 0 0 0-.512.8c-.117.299-.176.629-.176.992v.112h4.736v-.176c0-.363-.059-.693-.176-.992-.107-.299-.261-.555-.464-.768a1.85 1.85 0 0 0-.72-.512 2.36 2.36 0 0 0-.928-.176zm19.092 7.584c-1.003 0-1.824-.181-2.464-.544-.64-.373-1.168-.848-1.584-1.424l.976-.8c.437.544.896.949 1.376 1.216.49.267 1.072.4 1.744.4.81 0 1.429-.187 1.856-.56s.64-.896.64-1.568c0-.544-.155-.965-.464-1.264-.31-.309-.848-.528-1.616-.656l-1.248-.208c-.544-.096-1.003-.24-1.376-.432-.363-.192-.656-.421-.88-.688a2.61 2.61 0 0 1-.48-.896c-.096-.331-.144-.672-.144-1.024 0-1.024.336-1.797 1.007-2.32s1.579-.784 2.721-.784c.896 0 1.648.149 2.256.448a3.75 3.75 0 0 1 1.488 1.264l-.944.816a3.85 3.85 0 0 0-1.12-.992c-.437-.256-1.003-.384-1.696-.384-.758 0-1.339.16-1.744.48s-.608.8-.608 1.44c0 .501.149.912.448 1.232.309.309.858.533 1.648.672l1.2.208c.544.096 1.002.24 1.376.432s.672.421.896.688c.234.267.4.565.496.896a3.71 3.71 0 0 1 .144 1.04c0 1.035-.342 1.845-1.024 2.432-.672.587-1.632.88-2.88.88zm9.769 0c-.597 0-1.136-.101-1.616-.304a3.53 3.53 0 0 1-1.216-.864 4.16 4.16 0 0 1-.768-1.36 5.5 5.5 0 0 1-.272-1.776c0-.661.091-1.259.272-1.792.192-.533.454-.987.784-1.36a3.32 3.32 0 0 1 1.184-.88c.47-.203.987-.304 1.552-.304.555 0 1.056.101 1.504.304a3.33 3.33 0 0 1 1.168.848 3.61 3.61 0 0 1 .736 1.264c.17.491.256 1.029.256 1.616v.608h-6.112v.384c0 .363.059.699.176 1.008a2.36 2.36 0 0 0 .496.8c.224.224.491.4.8.528.32.117.672.176 1.056.176.555 0 1.035-.128 1.44-.384a2.48 2.48 0 0 0 .928-1.056l.944.64c-.245.555-.656 1.013-1.232 1.376-.565.352-1.258.528-2.08.528zm-.08-7.584c-.352 0-.677.064-.976.192s-.56.304-.784.528a2.58 2.58 0 0 0-.512.8c-.117.299-.176.629-.176.992v.112h4.736v-.176c0-.363-.058-.693-.176-.992-.106-.299-.261-.555-.464-.768a1.85 1.85 0 0 0-.72-.512c-.277-.117-.586-.176-.928-.176zm5.962 6.304h2.416v-6.08h-2.416V5.744h3.696v2.08h.08c.171-.651.491-1.157.96-1.52.48-.373 1.088-.56 1.824-.56h1.152v1.28h-1.552c-.736 0-1.333.213-1.792.64-.448.427-.672.987-.672 1.68v3.568h3.2V14h-6.896v-1.088zM301.953 14l-2.96-8.256h1.296l1.184 3.456 1.28 3.728h.064l1.28-3.728 1.184-3.456h1.264L303.585 14h-1.632zm10.554.192c-.598 0-1.136-.101-1.616-.304a3.53 3.53 0 0 1-1.217-.864 4.14 4.14 0 0 1-.767-1.36c-.182-.533-.272-1.125-.272-1.776 0-.661.09-1.259.272-1.792.192-.533.453-.987.784-1.36a3.3 3.3 0 0 1 1.184-.88 3.87 3.87 0 0 1 1.552-.304 3.61 3.61 0 0 1 1.504.304c.458.203.848.485 1.168.848.32.352.565.773.736 1.264s.256 1.029.256 1.616v.608h-6.112v.384c0 .363.058.699.176 1.008a2.34 2.34 0 0 0 .496.8c.224.224.49.4.8.528.32.117.672.176 1.056.176.554 0 1.034-.128 1.44-.384a2.48 2.48 0 0 0 .928-1.056l.944.64c-.246.555-.656 1.013-1.232 1.376-.566.352-1.259.528-2.08.528zm-.08-7.584a2.45 2.45 0 0 0-.976.192c-.299.128-.56.304-.784.528a2.56 2.56 0 0 0-.512.8c-.118.299-.176.629-.176.992v.112h4.736v-.176c0-.363-.059-.693-.176-.992-.107-.299-.262-.555-.464-.768a1.85 1.85 0 0 0-.72-.512 2.37 2.37 0 0 0-.928-.176zm5.961 6.304h2.416v-6.08h-2.416V5.744h3.696v2.08h.08c.171-.651.491-1.157.96-1.52.48-.373 1.088-.56 1.824-.56h1.152v1.28h-1.552c-.736 0-1.333.213-1.792.64-.448.427-.672.987-.672 1.68v3.568h3.2V14h-6.896v-1.088z"/><path d="M415.496 14.192c-1.365 0-2.384-.496-3.056-1.488-.661-.992-.992-2.421-.992-4.288s.331-3.296.992-4.288c.672-.992 1.691-1.488 3.056-1.488.512 0 .955.069 1.328.208s.693.325.96.56a3.42 3.42 0 0 1 .672.8c.181.288.341.581.48.88l-1.152.528c-.096-.245-.208-.475-.336-.688-.128-.224-.283-.416-.464-.576a1.8 1.8 0 0 0-.624-.4c-.235-.096-.523-.144-.864-.144-.885 0-1.547.336-1.984 1.008-.427.672-.64 1.568-.64 2.688v1.824c0 1.12.213 2.016.64 2.688.437.672 1.099 1.008 1.984 1.008.341 0 .629-.048.864-.144.245-.096.453-.224.624-.384.181-.171.336-.363.464-.576.128-.224.24-.459.336-.704l1.152.528c-.139.309-.299.608-.48.896s-.405.549-.672.784-.587.421-.96.56-.816.208-1.328.208zM427.842 14c-.501 0-.859-.128-1.072-.384s-.347-.576-.4-.96h-.08a2.34 2.34 0 0 1-.88 1.136c-.395.267-.928.4-1.6.4-.864 0-1.552-.224-2.064-.672s-.768-1.061-.768-1.84c0-.768.277-1.36.832-1.776.565-.416 1.472-.624 2.72-.624h1.76v-.816c0-.608-.171-1.061-.512-1.36-.341-.309-.827-.464-1.456-.464-.555 0-1.008.112-1.36.336-.352.213-.635.507-.848.88l-.864-.64a2.88 2.88 0 0 1 .432-.624c.181-.203.405-.379.672-.528a3.34 3.34 0 0 1 .912-.368c.341-.096.72-.144 1.136-.144.971 0 1.739.245 2.304.736.576.491.864 1.173.864 2.048v4.544h1.152V14h-.88zm-3.808-.88a3.32 3.32 0 0 0 .896-.112c.277-.085.517-.192.72-.32.203-.139.357-.299.464-.48a1.15 1.15 0 0 0 .176-.608v-1.36h-1.76c-.768 0-1.328.107-1.68.32a1.02 1.02 0 0 0-.528.928v.336c0 .427.149.752.448.976.309.213.731.32 1.264.32zm6.346.88V5.744h1.184v.96h.064a2.28 2.28 0 0 1 .544-.816c.234-.224.581-.336 1.04-.336.48 0 .837.123 1.072.368.234.235.378.544.432.928h.048a2.4 2.4 0 0 1 .64-.928c.277-.245.661-.368 1.152-.368.672 0 1.12.235 1.344.704.234.469.352 1.141.352 2.016V14h-1.184V8.48c0-.704-.075-1.189-.224-1.456-.139-.277-.4-.416-.784-.416-.342 0-.619.112-.832.336-.214.213-.32.544-.32.992V14h-1.184V8.48c0-.704-.075-1.189-.224-1.456-.139-.277-.395-.416-.768-.416-.342 0-.624.112-.848.336-.214.213-.32.544-.32.992V14h-1.184zm13.673.192c-.597 0-1.136-.101-1.616-.304a3.53 3.53 0 0 1-1.216-.864 4.16 4.16 0 0 1-.768-1.36 5.5 5.5 0 0 1-.272-1.776c0-.661.091-1.259.272-1.792.192-.533.454-.987.784-1.36a3.32 3.32 0 0 1 1.184-.88c.47-.203.987-.304 1.552-.304.555 0 1.056.101 1.504.304a3.33 3.33 0 0 1 1.168.848c.32.352.566.773.736 1.264s.256 1.029.256 1.616v.608h-6.112v.384c0 .363.059.699.176 1.008s.283.576.496.8c.224.224.491.4.8.528.32.117.672.176 1.056.176.555 0 1.035-.128 1.44-.384s.715-.608.928-1.056l.944.64c-.245.555-.656 1.013-1.232 1.376-.565.352-1.258.528-2.08.528zm-.08-7.584c-.352 0-.677.064-.976.192s-.56.304-.784.528a2.58 2.58 0 0 0-.512.8c-.117.299-.176.629-.176.992v.112h4.736v-.176c0-.363-.058-.693-.176-.992-.106-.299-.261-.555-.464-.768a1.85 1.85 0 0 0-.72-.512c-.277-.117-.586-.176-.928-.176zm5.962 6.304h2.416v-6.08h-2.416V5.744h3.696v2.08h.08c.171-.651.491-1.157.96-1.52.48-.373 1.088-.56 1.824-.56h1.152v1.28h-1.552c-.736 0-1.333.213-1.792.64-.448.427-.672.987-.672 1.68v3.568h3.2V14h-6.896v-1.088zM466.217 14c-.501 0-.859-.128-1.072-.384s-.347-.576-.4-.96h-.08a2.34 2.34 0 0 1-.88 1.136c-.395.267-.928.4-1.6.4-.864 0-1.552-.224-2.064-.672s-.768-1.061-.768-1.84c0-.768.277-1.36.832-1.776.565-.416 1.472-.624 2.72-.624h1.76v-.816c0-.608-.171-1.061-.512-1.36-.341-.309-.827-.464-1.456-.464-.555 0-1.008.112-1.36.336-.352.213-.635.507-.848.88l-.864-.64a2.88 2.88 0 0 1 .432-.624c.181-.203.405-.379.672-.528a3.34 3.34 0 0 1 .912-.368c.341-.096.72-.144 1.136-.144.971 0 1.739.245 2.304.736.576.491.864 1.173.864 2.048v4.544h1.152V14h-.88zm-3.808-.88a3.32 3.32 0 0 0 .896-.112c.277-.085.517-.192.72-.32.203-.139.357-.299.464-.48a1.15 1.15 0 0 0 .176-.608v-1.36h-1.76c-.768 0-1.328.107-1.68.32a1.02 1.02 0 0 0-.528.928v.336c0 .427.149.752.448.976.309.213.731.32 1.264.32zm8.762-4.096c0-.779.085-1.525.256-2.24.181-.725.421-1.397.72-2.016a8.68 8.68 0 0 1 1.072-1.664c.405-.501.832-.923 1.28-1.264h1.296c-.47.352-.912.763-1.328 1.232a9.28 9.28 0 0 0-1.088 1.52 7.93 7.93 0 0 0-.736 1.776c-.182.629-.272 1.285-.272 1.968v1.376c0 .683.09 1.344.272 1.984.181.629.426 1.221.736 1.776a9.62 9.62 0 0 0 1.088 1.504c.416.469.858.88 1.328 1.232h-1.296a7.02 7.02 0 0 1-1.28-1.248 9.16 9.16 0 0 1-1.072-1.68c-.299-.619-.539-1.285-.72-2a9.8 9.8 0 0 1-.256-2.256zm11.209 5.168c-.864 0-1.61-.144-2.24-.432-.618-.299-1.146-.693-1.584-1.184l.864-.752c.395.416.827.736 1.296.96s1.035.336 1.696.336c.64 0 1.163-.112 1.568-.336.416-.235.624-.597.624-1.088 0-.213-.042-.389-.128-.528-.074-.149-.181-.267-.32-.352s-.293-.149-.464-.192a4.04 4.04 0 0 0-.544-.128l-1.296-.192-.944-.176a3.26 3.26 0 0 1-.912-.352 2.35 2.35 0 0 1-.704-.672c-.181-.277-.272-.64-.272-1.088 0-.416.08-.773.24-1.072.171-.309.406-.565.704-.768a2.98 2.98 0 0 1 1.056-.464c.406-.107.848-.16 1.328-.16.747 0 1.392.117 1.936.352.555.235 1.03.56 1.424.976l-.832.784c-.096-.117-.218-.235-.368-.352-.138-.128-.314-.24-.528-.336-.202-.107-.442-.192-.72-.256s-.597-.096-.96-.096c-.65 0-1.152.112-1.504.336-.341.224-.512.549-.512.976 0 .213.038.395.112.544.086.139.198.251.336.336s.294.155.464.208l.544.112 1.296.192.944.176a2.97 2.97 0 0 1 .912.368c.278.16.507.379.688.656.192.277.288.64.288 1.088 0 .821-.32 1.456-.96 1.904-.629.448-1.472.672-2.528.672zm11.018-5.168c0 .779-.091 1.531-.272 2.256-.171.715-.411 1.381-.72 2a8.65 8.65 0 0 1-1.056 1.68 7.02 7.02 0 0 1-1.28 1.248h-1.296a9.41 9.41 0 0 0 1.312-1.232 8.43 8.43 0 0 0 1.088-1.504 7.92 7.92 0 0 0 .752-1.776c.181-.64.272-1.301.272-1.984V8.336c0-.683-.091-1.339-.272-1.968-.181-.64-.432-1.232-.752-1.776a8.18 8.18 0 0 0-1.088-1.52 9.41 9.41 0 0 0-1.312-1.232h1.296c.448.341.875.763 1.28 1.264.405.491.757 1.045 1.056 1.664a9.24 9.24 0 0 1 .72 2.016 9.09 9.09 0 0 1 .272 2.24z"/></g><rect x="220.5" y="46.5" width="59" height="159" rx="1.5" fill="#faf5ff"/><rect x="220.5" y="46.5" width="59" height="159" rx="1.5" stroke="#581c87"/><path d="M241.25 118.5v5h17.5v-5h-17.5zm-1.25-1.25h1.25 17.5H260v1.25 5 1.25h-1.25-17.5H240v-1.25-5-1.25zm1.25 11.25v5h17.5v-5h-17.5zm-1.25-1.25h1.25 17.5H260v1.25 5 1.25h-1.25-17.5H240v-1.25-5-1.25zm11.875 3.75c0-.249.099-.487.275-.663s.414-.275.662-.275.488.099.663.275.275.414.275.663-.099.487-.275.663-.414.275-.663.275-.487-.099-.662-.275-.275-.414-.275-.663zm.937-10.938c.249 0 .488.099.663.275s.275.414.275.663-.099.487-.275.663-.414.275-.663.275-.487-.099-.662-.275-.275-.414-.275-.663.099-.487.275-.663.414-.275.662-.275zM255 131c0-.249.099-.487.275-.663s.414-.275.663-.275.487.099.662.275.275.414.275.663-.099.487-.275.663-.414.275-.662.275-.488-.099-.663-.275-.275-.414-.275-.663zm.938-10.938c.248 0 .487.099.662.275s.275.414.275.663-.099.487-.275.663-.414.275-.662.275-.488-.099-.663-.275-.275-.414-.275-.663.099-.487.275-.663.414-.275.663-.275z" fill="#4c1d95"/><rect x="424.5" y="46.5" width="59" height="159" rx="1.5" fill="#fff7ed"/><rect x="424.5" y="46.5" width="59" height="159" rx="1.5" stroke="#7c2d12"/><path d="M451.75 79.938h-5.625v3.938h3.976c.777-1.347 2.233-2.25 3.899-2.25a4.5 4.5 0 0 1 3.899 2.25h3.976V78.25h-7.499l-1.951 1.463a1.11 1.11 0 0 1-.675.225zM446.125 85v6.75h15.75V85h-3.516a4.54 4.54 0 0 1 .141 1.125 4.5 4.5 0 1 1-9 0 4.54 4.54 0 0 1 .141-1.125h-3.516zm5.625-6.187l2.25-1.687h7.875H463v1.125 13.5 1.125h-1.125-15.75H445V91.75 79.938v-1.125h1.125 5.625zm5.625 7.313c0-.895-.356-1.754-.989-2.386s-1.491-.989-2.386-.989-1.754.356-2.386.989-.989 1.491-.989 2.386.356 1.754.989 2.386 1.491.989 2.386.989 1.754-.356 2.386-.989.989-1.491.989-2.386zm-10.125-9h3.375v1.125h-3.375v-1.125z" fill="#7c2d12"/><g clip-path="url(#A)"><path d="M445 125l.5-.878L449 118l12.878 5.059 1.122.441-.994.684L455 129l-3.047-1.219-1.484 3.897-.125.322H450h-4v1.5.5h-1v-.5-2-2-.5h1v.5 1.5h3.656l1.369-3.591-5.087-2.034L445 125zm9.875 2.872l6.006-4.128-11.44-4.497-3 5.25 8.437 3.375h-.003zm2.55 1.015l-.309-.131.978-.669 2.615 1.101.979-2.376-1.113-.431.997-.684.494.194.934.359-.381.925-.988 2.4-.381.925-.922-.387-2.906-1.222.003-.004z" fill="#7c2d12"/></g><path d="M460.752 159.125V171.5h-3.062-7.376-3.062v-12.375h13.5zm-13.5 13.5h2.436l-1.248 2.25-.626 1.125h1.287 9.801 1.287l-.626-1.125-1.251-2.25h2.436 1.125V171.5v-12.375V158h-1.121-13.5-1.125v1.125V171.5v1.125h1.125zm2.475 2.25l1.251-2.25h6.051l1.251 2.25h-8.55-.003zm7.65-9.563c0 .444-.088.883-.257 1.292s-.418.782-.732 1.095a3.38 3.38 0 0 1-1.095.732c-.409.169-.848.257-1.291.257a3.39 3.39 0 0 1-1.292-.257 3.4 3.4 0 0 1-1.095-.732 3.36 3.36 0 0 1-.731-1.095c-.17-.409-.257-.848-.257-1.292s.087-.882.257-1.291a3.36 3.36 0 0 1 .731-1.095 3.4 3.4 0 0 1 1.095-.732c.41-.169.848-.256 1.292-.256a3.38 3.38 0 0 1 2.386.988c.314.313.562.685.732 1.095s.257.848.257 1.291zm-3.375-4.5a4.5 4.5 0 0 0-3.182 1.319c-.844.843-1.318 1.988-1.318 3.181s.474 2.339 1.318 3.182a4.5 4.5 0 0 0 6.364 0c.844-.843 1.318-1.988 1.318-3.182s-.474-2.338-1.318-3.181a4.5 4.5 0 0 0-3.182-1.319z" fill="#7c2d12"/><rect x="14.5" y="46.5" width="59" height="159" rx="1.5" fill="#ecfeff"/><rect x="14.5" y="46.5" width="59" height="159" rx="1.5" stroke="#0e7490"/><path d="M52.889 78.222H35.111V86h17.778v-7.778zM54 86v1.111 3.333 1.111h-1.111-6.288l.371 2.222H49h.556v1.111H49h-2.5-5H39h-.556v-1.111H39h2.028l.371-2.222h-6.288H34v-1.111-3.333V86v-7.778-1.111h1.111 17.778H54v1.111V86zm-18.889 1.111v3.333h6.934.021 3.871.021 6.931v-3.333H35.111zm7.045 6.667h3.688l-.372-2.222h-2.948l-.371 2.222h.003zm6.344 26.236v10.125h-9v-10.125h9zm0 11.25v4.5h-9v-4.5h9zm-9-12.375h-1.125v1.125 15.75 1.125H39.5h9 1.125v-1.125-15.75-1.125H48.5h-9zm5.344 14.625c0-.224-.089-.439-.247-.597s-.373-.247-.597-.247-.438.089-.597.247a.84.84 0 0 0 0 1.193.84.84 0 0 0 1.193 0c.158-.158.247-.373.247-.596zM51 161.889H37v9h-1v-9-1h1 14 1v1 9h-1v-9zm-15.084 12h16.172l.913-.916v-.084H35v.084l.916.916zm18.084-2v1 .5l-1.5 1.5h-17l-1.5-1.5v-.5-1h1 18 1z" fill="#164e63"/><path d="M89 100.5a.5.5 0 1 0 0 1v-1zm115.354.854a.5.5 0 0 0 0-.708l-3.182-3.181a.5.5 0 1 0-.708.707l2.829 2.828-2.829 2.828a.5.5 0 1 0 .708.708l3.182-3.182zm-114.345.146a.5.5 0 1 0 0-1v1zm4.035-1a.5.5 0 1 0 0 1v-1zm2.018 1a.5.5 0 1 0 0-1v1zm4.035-1a.5.5 0 1 0 0 1v-1zm2.018 1a.5.5 0 1 0 0-1v1zm4.035-1a.5.5 0 1 0 0 1v-1zm2.018 1a.5.5 0 1 0 0-1v1zm4.035-1a.5.5 0 1 0 0 1v-1zm2.017 1a.5.5 0 1 0 0-1v1zm4.035-1a.5.5 0 1 0 0 1v-1zm2.018 1a.5.5 0 1 0 0-1v1zm4.035-1a.5.5 0 1 0 0 1v-1zm2.018 1a.5.5 0 1 0 0-1v1zm4.035-1a.5.5 0 1 0 0 1v-1zm2.017 1a.5.5 0 1 0 0-1v1zm4.035-1a.5.5 0 1 0 0 1v-1zm2.018 1a.5.5 0 1 0 0-1v1zm4.035-1a.5.5 0 1 0 0 1v-1zm2.017 1a.5.5 0 1 0 0-1v1zm4.036-1a.5.5 0 1 0 0 1v-1zm2.017 1a.5.5 0 1 0 0-1v1zm4.035-1a.5.5 0 1 0 0 1v-1zm2.018 1a.5.5 0 1 0 0-1v1zm4.035-1a.5.5 0 1 0 0 1v-1zm2.017 1a.5.5 0 1 0 0-1v1zm4.035-1a.5.5 0 1 0 0 1v-1zm2.018 1a.5.5 0 1 0 0-1v1zm4.035-1a.5.5 0 1 0 0 1v-1zm2.018 1a.5.5 0 1 0 0-1v1zm4.035-1a.5.5 0 1 0 0 1v-1zm2.017 1a.5.5 0 1 0 0-1v1zm4.035-1a.5.5 0 1 0 0 1v-1zm2.018 1a.5.5 0 1 0 0-1v1zm4.035-1a.5.5 0 1 0 0 1v-1zm2.017 1a.5.5 0 1 0 0-1v1zm4.036-1a.5.5 0 1 0 0 1v-1zm2.017 1a.5.5 0 1 0 0-1v1zm4.035-1a.5.5 0 1 0 0 1v-1zM89 101.5h1.009v-1H89v1zm5.044 0h2.018v-1h-2.018v1zm6.052 0h2.018v-1h-2.018v1zm6.053 0h2.018v-1h-2.018v1zm6.053 0h2.017v-1h-2.017v1zm6.052 0h2.018v-1h-2.018v1zm6.053 0h2.018v-1h-2.018v1zm6.053 0h2.017v-1h-2.017v1zm6.052 0h2.018v-1h-2.018v1zm6.053 0h2.017v-1h-2.017v1zm6.053 0h2.017v-1h-2.017v1zm6.052 0h2.018v-1h-2.018v1zm6.053 0h2.017v-1h-2.017v1zm6.052 0h2.018v-1h-2.018v1zm6.053 0h2.018v-1h-2.018v1zm6.053 0h2.017v-1h-2.017v1zm6.052 0h2.018v-1h-2.018v1zm6.053 0h2.017v-1h-2.017v1zm6.053 0h2.017v-1h-2.017v1zm6.052 0H204v-1h-1.009v1z" fill="#1f2937"/><rect x="124.5" y="91.5" width="45" height="19" rx="1.5" fill="#f3f4f6"/><rect x="124.5" y="91.5" width="45" height="19" rx="1.5" stroke="#1f2937"/><g fill="#1f2937"><use href="#B"/><path d="M204 151.5a.5.5 0 1 0 0-1v1zm-115.353-.854a.5.5 0 0 0 0 .708l3.182 3.182a.5.5 0 1 0 .707-.708L89.707 151l2.828-2.828a.5.5 0 1 0-.707-.708l-3.182 3.182zM204 150.5H89v1h115v-1z"/></g><rect x="114.5" y="141.5" width="65" height="19" rx="1.5" fill="#f3f4f6"/><rect x="114.5" y="141.5" width="65" height="19" rx="1.5" stroke="#1f2937"/><path d="M122.894 154.5v-5.455h1.027v.867h.057c.099-.294.274-.524.525-.693a1.51 1.51 0 0 1 .859-.255l.235.007.216.018v1.015a1.8 1.8 0 0 0-.227-.039 2.25 2.25 0 0 0-.327-.025c-.25 0-.474.054-.671.16a1.18 1.18 0 0 0-.461.437c-.114.185-.171.395-.171.632v3.331h-1.062zm5.994.11c-.538 0-1-.115-1.389-.344a2.34 2.34 0 0 1-.895-.977c-.208-.421-.312-.915-.312-1.481 0-.558.104-1.051.312-1.477a2.41 2.41 0 0 1 .881-.998c.376-.239.822-.359 1.328-.359a2.67 2.67 0 0 1 .895.153 2.17 2.17 0 0 1 .778.48c.23.217.411.5.543.848s.199.766.199 1.261v.376h-4.336v-.795h3.296c0-.279-.057-.527-.171-.742s-.273-.39-.479-.515a1.35 1.35 0 0 0-.718-.188c-.298 0-.558.073-.781.22a1.48 1.48 0 0 0-.511.568 1.63 1.63 0 0 0-.178.756v.622c0 .364.064.674.192.93a1.37 1.37 0 0 0 .543.586c.232.135.503.199.814.199.201 0 .384-.028.55-.085a1.19 1.19 0 0 0 .43-.263 1.15 1.15 0 0 0 .277-.43l1.005.181c-.081.296-.225.556-.434.778s-.465.392-.777.515-.664.181-1.062.181zm7.606-4.233l-.963.171c-.04-.124-.104-.241-.192-.352a.97.97 0 0 0-.348-.273 1.26 1.26 0 0 0-.55-.107c-.301 0-.552.068-.753.202s-.302.305-.302.515c0 .183.068.329.203.441s.352.202.653.273l.867.199c.501.116.876.295 1.122.536s.369.555.369.941c0 .327-.095.618-.284.874a1.86 1.86 0 0 1-.785.596c-.334.145-.721.217-1.161.217-.611 0-1.109-.13-1.495-.391s-.623-.635-.71-1.118l1.026-.156c.064.267.195.47.394.607s.458.202.778.202c.348 0 .626-.072.834-.216s.313-.326.313-.537c0-.17-.064-.313-.192-.429s-.318-.204-.579-.263l-.923-.202c-.509-.116-.885-.301-1.129-.554s-.363-.575-.363-.963c0-.322.09-.603.27-.845s.429-.43.746-.565.681-.206 1.09-.206c.59 0 1.054.128 1.392.384s.563.593.672 1.019zm1.273 6.168v-7.5h1.037v.885h.089a2.99 2.99 0 0 1 .267-.394c.116-.15.277-.28.482-.391s.479-.171.817-.171c.441 0 .834.112 1.179.334a2.24 2.24 0 0 1 .813.963c.196.419.299.923.299 1.512s-.099 1.095-.295 1.517a2.27 2.27 0 0 1-.81.969c-.344.227-.735.338-1.175.338-.332 0-.603-.056-.813-.167a1.54 1.54 0 0 1-.49-.391c-.119-.149-.21-.282-.274-.398h-.064v2.894h-1.062zm1.041-4.772c0 .383.056.719.167 1.008a1.53 1.53 0 0 0 .483.679c.211.161.469.241.774.241.317 0 .582-.084.795-.252a1.55 1.55 0 0 0 .483-.693 2.72 2.72 0 0 0 .167-.983c0-.36-.054-.683-.163-.97s-.268-.512-.483-.678-.479-.249-.799-.249c-.308 0-.568.08-.781.238s-.371.38-.48.664-.163.616-.163.995zm7.429 2.837c-.511 0-.958-.117-1.339-.351a2.38 2.38 0 0 1-.888-.984c-.21-.422-.316-.914-.316-1.477s.106-1.061.316-1.485.507-.753.888-.987.828-.352 1.339-.352.958.118 1.339.352.677.563.888.987.316.919.316 1.485-.106 1.055-.316 1.477a2.38 2.38 0 0 1-.888.984c-.381.234-.828.351-1.339.351zm.004-.891c.331 0 .606-.088.823-.263a1.54 1.54 0 0 0 .483-.7 2.77 2.77 0 0 0 .16-.962 2.76 2.76 0 0 0-.16-.959c-.104-.293-.265-.529-.483-.706s-.492-.267-.823-.267-.611.089-.831.267-.38.413-.487.706-.156.611-.156.959a2.85 2.85 0 0 0 .156.962c.104.291.269.525.487.7s.497.263.831.263zm4.786-2.458v3.239h-1.062v-5.455h1.019v.888h.067a1.56 1.56 0 0 1 .59-.696c.27-.175.61-.263 1.019-.263.372 0 .697.079.977.235a1.56 1.56 0 0 1 .649.689c.154.305.231.683.231 1.133v3.469h-1.061v-3.342c0-.395-.103-.704-.309-.926s-.489-.338-.849-.338c-.246 0-.465.053-.657.16s-.34.263-.451.469-.163.45-.163.738zm9.002-.884l-.963.171c-.04-.124-.104-.241-.191-.352s-.202-.202-.348-.273-.331-.107-.551-.107c-.301 0-.551.068-.753.202s-.302.305-.302.515c0 .183.068.329.203.441s.353.202.653.273l.867.199c.502.116.876.295 1.122.536s.369.555.369.941c0 .327-.094.618-.284.874a1.86 1.86 0 0 1-.785.596c-.333.145-.721.217-1.161.217-.611 0-1.109-.13-1.495-.391s-.623-.635-.71-1.118l1.026-.156c.064.267.195.47.394.607s.458.202.778.202c.348 0 .626-.072.835-.216s.312-.326.312-.537c0-.17-.064-.313-.192-.429s-.318-.204-.579-.263l-.923-.202c-.509-.116-.885-.301-1.129-.554s-.362-.575-.362-.963c0-.322.09-.603.27-.845s.428-.43.745-.565a2.73 2.73 0 0 1 1.09-.206c.59 0 1.054.128 1.393.384a1.79 1.79 0 0 1 .671 1.019zm3.624 4.233c-.537 0-1-.115-1.388-.344a2.34 2.34 0 0 1-.895-.977c-.208-.421-.312-.915-.312-1.481 0-.558.104-1.051.312-1.477s.504-.759.881-.998.821-.359 1.328-.359a2.67 2.67 0 0 1 .895.153 2.17 2.17 0 0 1 .778.48c.229.217.41.5.543.848s.199.766.199 1.261v.376h-4.336v-.795h3.295c0-.279-.057-.527-.17-.742a1.29 1.29 0 0 0-.48-.515c-.203-.126-.442-.188-.717-.188-.298 0-.559.073-.781.22a1.48 1.48 0 0 0-.512.568c-.118.232-.177.484-.177.756v.622c0 .364.064.674.192.93a1.37 1.37 0 0 0 .543.586c.232.135.503.199.813.199a1.69 1.69 0 0 0 .551-.085c.165-.059.309-.147.429-.263a1.15 1.15 0 0 0 .277-.43l1.005.181c-.08.296-.225.556-.433.778a2.09 2.09 0 0 1-.778.515c-.313.123-.664.181-1.062.181zm7.606-4.233l-.962.171c-.04-.124-.104-.241-.192-.352a.97.97 0 0 0-.348-.273 1.26 1.26 0 0 0-.55-.107c-.301 0-.552.068-.753.202s-.302.305-.302.515c0 .183.067.329.202.441s.353.202.654.273l.866.199c.502.116.876.295 1.122.536s.37.555.37.941c0 .327-.095.618-.284.874a1.86 1.86 0 0 1-.785.596c-.334.145-.721.217-1.161.217-.611 0-1.11-.13-1.495-.391a1.65 1.65 0 0 1-.711-1.118l1.027-.156c.064.267.195.47.394.607s.458.202.777.202c.348 0 .627-.072.835-.216s.312-.326.312-.537c0-.17-.063-.313-.191-.429s-.319-.204-.579-.263l-.923-.202c-.509-.116-.886-.301-1.13-.554s-.362-.575-.362-.963c0-.322.09-.603.27-.845s.429-.43.746-.565.68-.206 1.09-.206c.589 0 1.053.128 1.392.384a1.78 1.78 0 0 1 .671 1.019zM409 151.5a.5.5 0 1 0 0-1v1zm-115.354-.854a.5.5 0 0 0 0 .708l3.182 3.182a.501.501 0 1 0 .708-.708L294.707 151l2.829-2.828a.501.501 0 1 0-.708-.708l-3.182 3.182zM409 150.5H294v1h115v-1z" fill="#1f2937"/><rect x="327.5" y="141.5" width="49" height="19" rx="1.5" fill="#f3f4f6"/><rect x="327.5" y="141.5" width="49" height="19" rx="1.5" stroke="#1f2937"/><path d="M338.689 149.045v.853h-3.083v-.853h3.083zm-2.238 5.455v-6.087c0-.341.075-.623.224-.848s.347-.397.593-.508.514-.171.803-.171a2.4 2.4 0 0 1 .547.054 2.52 2.52 0 0 1 .337.092l-.249.859-.191-.049a1.07 1.07 0 0 0-.285-.032c-.258 0-.442.064-.554.191s-.163.313-.163.554v5.945h-1.062zm3.333 0v-5.455h1.026v.867h.057c.1-.294.275-.524.526-.693a1.51 1.51 0 0 1 .859-.255l.235.007.216.018v1.015a1.8 1.8 0 0 0-.227-.039 2.25 2.25 0 0 0-.327-.025 1.39 1.39 0 0 0-.671.16 1.19 1.19 0 0 0-.462.437c-.113.185-.17.395-.17.632v3.331h-1.062zm5.377.121c-.346 0-.659-.064-.938-.192a1.56 1.56 0 0 1-.664-.565c-.163-.247-.242-.548-.242-.905 0-.308.06-.561.178-.76s.278-.356.479-.472.427-.204.675-.263a6.82 6.82 0 0 1 .76-.135l.796-.092c.203-.027.351-.068.443-.125s.139-.149.139-.277v-.025c0-.31-.088-.55-.263-.721s-.431-.255-.774-.255c-.357 0-.639.079-.845.238s-.345.33-.423.522l-.998-.228c.119-.331.292-.598.519-.802s.493-.355.792-.448a3.11 3.11 0 0 1 .941-.142 3.26 3.26 0 0 1 .692.079c.246.049.476.142.689.277s.392.327.529.578.206.572.206.97v3.622h-1.037v-.746h-.042c-.069.138-.172.273-.309.405a1.64 1.64 0 0 1-.529.33c-.215.087-.474.132-.774.132zm.23-.853c.294 0 .545-.058.753-.174s.371-.267.48-.454a1.18 1.18 0 0 0 .166-.607v-.703c-.037.037-.111.073-.22.106a3.12 3.12 0 0 1-.365.082l-.402.06-.326.043a2.66 2.66 0 0 0-.565.131c-.168.062-.303.15-.405.266a.67.67 0 0 0-.149.455c0 .263.097.462.291.597s.442.198.742.198zm3.876.732v-5.455h1.019v.888h.067c.114-.3.3-.535.558-.703s.567-.256.927-.256.67.086.916.256a1.51 1.51 0 0 1 .55.703h.057c.13-.291.337-.523.621-.696s.623-.263 1.016-.263c.495 0 .898.155 1.211.466s.472.777.472 1.402v3.658h-1.062v-3.558c0-.37-.1-.637-.301-.803s-.442-.248-.721-.248c-.346 0-.615.106-.806.319s-.288.482-.288.813v3.477h-1.058v-3.626a.95.95 0 0 0-.277-.713c-.185-.18-.425-.27-.721-.27a1.04 1.04 0 0 0-.558.159 1.18 1.18 0 0 0-.408.437c-.102.187-.153.404-.153.65v3.363h-1.061zm11.188.11c-.537 0-1-.115-1.388-.344a2.34 2.34 0 0 1-.895-.977c-.208-.421-.313-.915-.313-1.481 0-.558.105-1.051.313-1.477s.504-.759.881-.998.821-.359 1.328-.359c.307 0 .606.051.895.153a2.17 2.17 0 0 1 .777.48c.23.217.411.5.544.848s.198.766.198 1.261v.376h-4.335v-.795h3.295c0-.279-.057-.527-.17-.742a1.29 1.29 0 0 0-.48-.515c-.203-.126-.443-.188-.717-.188a1.38 1.38 0 0 0-.781.22c-.221.144-.391.334-.512.568s-.177.484-.177.756v.622c0 .364.064.674.191.93s.312.451.544.586.503.199.813.199a1.68 1.68 0 0 0 .55-.085 1.19 1.19 0 0 0 .43-.263c.121-.116.213-.259.277-.43l1.005.181c-.081.296-.225.556-.433.778a2.09 2.09 0 0 1-.778.515c-.313.123-.664.181-1.062.181zm7.606-4.233l-.962.171a1.16 1.16 0 0 0-.192-.352c-.085-.111-.201-.202-.348-.273s-.33-.107-.551-.107c-.3 0-.551.068-.752.202s-.302.305-.302.515c0 .183.067.329.202.441s.353.202.653.273l.867.199c.502.116.876.295 1.122.536s.369.555.369.941c0 .327-.094.618-.284.874s-.448.452-.784.596-.721.217-1.162.217c-.61 0-1.109-.13-1.495-.391s-.622-.635-.71-1.118l1.026-.156c.064.267.196.47.395.607s.458.202.777.202c.348 0 .626-.072.835-.216s.312-.326.312-.537c0-.17-.064-.313-.192-.429s-.318-.204-.578-.263l-.924-.202c-.509-.116-.885-.301-1.129-.554s-.362-.575-.362-.963c0-.322.09-.603.27-.845s.428-.43.745-.565.681-.206 1.091-.206c.589 0 1.053.128 1.392.384a1.79 1.79 0 0 1 .671 1.019zM294 100.5a.5.5 0 1 0 0 1v-1zm115.354.854a.5.5 0 0 0 0-.708l-3.182-3.181a.5.5 0 1 0-.708.707l2.829 2.828-2.829 2.828a.501.501 0 1 0 .708.708l3.182-3.182zm-114.345.146a.5.5 0 1 0 0-1v1zm4.035-1a.5.5 0 1 0 0 1v-1zm2.017 1a.5.5 0 1 0 0-1v1zm4.035-1a.5.5 0 1 0 0 1v-1zm2.018 1a.5.5 0 1 0 0-1v1zm4.035-1a.5.5 0 1 0 0 1v-1zm2.018 1a.5.5 0 1 0 0-1v1zm4.035-1a.5.5 0 1 0 0 1v-1zm2.017 1a.5.5 0 1 0 0-1v1zm4.035-1a.5.5 0 1 0 0 1v-1zm2.018 1a.5.5 0 1 0 0-1v1zm4.035-1a.5.5 0 1 0 0 1v-1zm2.018 1a.5.5 0 1 0 0-1v1zm4.035-1a.5.5 0 1 0 0 1v-1zm2.017 1a.5.5 0 1 0 0-1v1zm4.035-1a.5.5 0 1 0 0 1v-1zm2.018 1a.5.5 0 1 0 0-1v1zm4.035-1a.5.5 0 1 0 0 1v-1zm2.017 1a.5.5 0 1 0 0-1v1zm4.036-1a.5.5 0 1 0 0 1v-1zm2.017 1a.5.5 0 1 0 0-1v1zm4.035-1a.5.5 0 1 0 0 1v-1zm2.018 1a.5.5 0 1 0 0-1v1zm4.035-1a.5.5 0 1 0 0 1v-1zm2.017 1a.5.5 0 1 0 0-1v1zm4.035-1a.5.5 0 1 0 0 1v-1zm2.018 1a.5.5 0 1 0 0-1v1zm4.035-1a.5.5 0 1 0 0 1v-1zm2.018 1a.5.5 0 1 0 0-1v1zm4.035-1a.5.5 0 1 0 0 1v-1zm2.017 1a.5.5 0 1 0 0-1v1zm4.035-1a.5.5 0 1 0 0 1v-1zm2.018 1a.5.5 0 1 0 0-1v1zm4.035-1a.5.5 0 1 0 0 1v-1zm2.017 1a.5.5 0 1 0 0-1v1zm4.036-1a.5.5 0 1 0 0 1v-1zm2.017 1a.5.5 0 1 0 0-1v1zm4.035-1a.5.5 0 1 0 0 1v-1zM294 101.5h1.009v-1H294v1zm5.044 0h2.017v-1h-2.017v1zm6.052 0h2.018v-1h-2.018v1zm6.053 0h2.018v-1h-2.018v1zm6.053 0h2.017v-1h-2.017v1zm6.052 0h2.018v-1h-2.018v1zm6.053 0h2.018v-1h-2.018v1zm6.053 0h2.017v-1h-2.017v1zm6.052 0h2.018v-1h-2.018v1zm6.053 0h2.017v-1h-2.017v1zm6.053 0h2.017v-1h-2.017v1zm6.052 0h2.018v-1h-2.018v1zm6.053 0h2.017v-1h-2.017v1zm6.052 0h2.018v-1h-2.018v1zm6.053 0h2.018v-1h-2.018v1zm6.053 0h2.017v-1h-2.017v1zm6.052 0h2.018v-1h-2.018v1zm6.053 0h2.017v-1h-2.017v1zm6.053 0h2.017v-1h-2.017v1zm6.052 0H409v-1h-1.009v1z" fill="#1f2937"/><rect x="329.5" y="91.5" width="45" height="19" rx="1.5" fill="#f3f4f6"/><rect x="329.5" y="91.5" width="45" height="19" rx="1.5" stroke="#1f2937"/><use href="#B" x="205" fill="#1f2937"/><defs><clipPath id="A"><path fill="#fff" transform="translate(445 118)" d="M0 0h18v16H0z"/></clipPath><path id="B" d="M140.473 100.377l-.962.171a1.16 1.16 0 0 0-.192-.352c-.085-.111-.201-.202-.348-.273s-.33-.106-.551-.106c-.3 0-.551.067-.752.202s-.302.305-.302.515c0 .183.067.329.202.441s.353.202.654.273l.866.199c.502.116.876.295 1.122.536s.37.555.37.941c0 .327-.095.618-.285.874s-.448.452-.784.596-.721.217-1.162.217c-.61 0-1.109-.13-1.495-.391s-.622-.635-.71-1.118l1.026-.156c.064.267.196.47.395.607s.458.202.777.202c.348 0 .627-.072.835-.216s.312-.326.312-.537a.56.56 0 0 0-.191-.429c-.126-.116-.319-.204-.579-.263l-.924-.202c-.509-.116-.885-.301-1.129-.554s-.362-.575-.362-.963c0-.322.09-.603.27-.845s.428-.43.746-.565.68-.206 1.09-.206c.589 0 1.053.128 1.392.384s.562.593.671 1.019zm3.82-1.331v.852h-2.979v-.852h2.979zm-2.18-1.307h1.062v5.159c0 .206.03.361.092.466s.141.171.238.209a.94.94 0 0 0 .323.053 1.24 1.24 0 0 0 .224-.017l.149-.029.192.877c-.062.024-.15.048-.263.071a2.06 2.06 0 0 1-.426.043 1.87 1.87 0 0 1-.782-.149c-.241-.104-.436-.265-.586-.483s-.223-.491-.223-.82v-5.38zm4.942 6.882a2.22 2.22 0 0 1-.937-.192c-.28-.13-.501-.318-.665-.565s-.241-.548-.241-.905c0-.308.059-.561.178-.76s.278-.356.479-.472a2.49 2.49 0 0 1 .675-.263 6.78 6.78 0 0 1 .76-.135l.795-.092c.204-.027.352-.068.444-.125s.138-.149.138-.277v-.025c0-.31-.087-.55-.262-.721s-.431-.255-.774-.255c-.358 0-.64.079-.846.238s-.344.33-.422.522l-.998-.228c.118-.331.291-.599.518-.802a2.11 2.11 0 0 1 .792-.447c.299-.095.612-.142.941-.142.218 0 .449.026.693.078a2.03 2.03 0 0 1 .689.277c.215.135.392.328.529.579s.206.572.206.97v3.622h-1.037v-.746h-.043c-.068.138-.171.273-.309.405s-.313.243-.529.33a2.04 2.04 0 0 1-.774.132zm.231-.853c.293 0 .544-.058.753-.174a1.22 1.22 0 0 0 .479-.454 1.18 1.18 0 0 0 .167-.607v-.703c-.038.037-.111.073-.22.106s-.229.058-.366.082l-.401.06-.327.043c-.206.026-.394.07-.565.131s-.303.15-.404.266-.15.266-.15.455a.68.68 0 0 0 .292.597c.194.132.441.198.742.198zm3.875.732v-5.454h1.026v.866h.057a1.32 1.32 0 0 1 .526-.692 1.5 1.5 0 0 1 .859-.256l.234.007.217.018v1.015c-.043-.012-.118-.025-.227-.039a2.17 2.17 0 0 0-.327-.025c-.251 0-.475.053-.671.16a1.19 1.19 0 0 0-.462.437c-.113.185-.17.395-.17.632v3.331h-1.062zm6.706-5.454v.852h-2.979v-.852h2.979zm-2.18-1.307h1.062v5.159c0 .206.031.361.092.466s.141.171.238.209a.94.94 0 0 0 .323.053 1.24 1.24 0 0 0 .224-.017l.149-.029.192.877c-.062.024-.149.048-.263.071a2.06 2.06 0 0 1-.426.043c-.279.005-.54-.045-.781-.149s-.437-.265-.586-.483-.224-.491-.224-.82v-5.38z"/></defs></svg>