<svg xmlns="http://www.w3.org/2000/svg" viewBox="1.5 2.5 21 19" style="color: #6706CE;"><path fill="currentColor" stroke="currentColor" stroke-width="0.75" d="M2.76 20.2a2.73 2.73 0 0 0 2.15.85a8.9 8.9 0 0 0 3.37-.86a9 9 0 0 0 12.27-10.9c1.31-2.23 1.75-4.26.67-5.48a2.94 2.94 0 0 0-2.57-1A5 5 0 0 0 16.1 4A9 9 0 0 0 3.58 15.14c-1.06 1.21-2.05 3.68-.82 5.06m1.5-1.32c-.22-.25 0-1.07.37-1.76a9.3 9.3 0 0 0 1.57 1.74c-1.03.3-1.71.28-1.94.02m14.51-5.17A7 7 0 0 1 15.58 18A7.1 7.1 0 0 1 12 19a6.4 6.4 0 0 1-1.24-.13a30.7 30.7 0 0 0 4.42-3.29a31.5 31.5 0 0 0 3.8-4a6.9 6.9 0 0 1-.21 2.13m.09-8.89a.94.94 0 0 1 .87.32c.23.26.16.94-.26 1.93a9.2 9.2 0 0 0-1.61-1.86a2.5 2.5 0 0 1 1-.39M5.22 10.31A6.94 6.94 0 0 1 8.41 6A7 7 0 0 1 12 5a6.9 6.9 0 0 1 6 3.41a5 5 0 0 1 .35.66a27.4 27.4 0 0 1-4.49 5A27.4 27.4 0 0 1 8.35 18a7 7 0 0 1-3.13-7.65z"></path></svg>
