<svg width="180" height="81" viewBox="0 0 180 81" fill="none" xmlns="http://www.w3.org/2000/svg">
<rect width="180" height="81" rx="4" fill="#1F2937"/>
<rect x="12" y="12" width="24" height="24" rx="4" fill="#374151"/>
<path d="M18.75 19.5V22.5H29.25V19.5H18.75ZM18 18.75H18.75H29.25H30V19.5V22.5V23.25H29.25H18.75H18V22.5V19.5V18.75ZM18.75 25.5V28.5H29.25V25.5H18.75ZM18 24.75H18.75H29.25H30V25.5V28.5V29.25H29.25H18.75H18V28.5V25.5V24.75ZM25.125 27C25.125 26.8508 25.1843 26.7077 25.2898 26.6023C25.3952 26.4968 25.5383 26.4375 25.6875 26.4375C25.8367 26.4375 25.9798 26.4968 26.0852 26.6023C26.1907 26.7077 26.25 26.8508 26.25 27C26.25 27.1492 26.1907 27.2923 26.0852 27.3977C25.9798 27.5032 25.8367 27.5625 25.6875 27.5625C25.5383 27.5625 25.3952 27.5032 25.2898 27.3977C25.1843 27.2923 25.125 27.1492 25.125 27ZM25.6875 20.4375C25.8367 20.4375 25.9798 20.4968 26.0852 20.6023C26.1907 20.7077 26.25 20.8508 26.25 21C26.25 21.1492 26.1907 21.2923 26.0852 21.3977C25.9798 21.5032 25.8367 21.5625 25.6875 21.5625C25.5383 21.5625 25.3952 21.5032 25.2898 21.3977C25.1843 21.2923 25.125 21.1492 25.125 21C25.125 20.8508 25.1843 20.7077 25.2898 20.6023C25.3952 20.4968 25.5383 20.4375 25.6875 20.4375ZM27 27C27 26.8508 27.0593 26.7077 27.1648 26.6023C27.2702 26.4968 27.4133 26.4375 27.5625 26.4375C27.7117 26.4375 27.8548 26.4968 27.9602 26.6023C28.0657 26.7077 28.125 26.8508 28.125 27C28.125 27.1492 28.0657 27.2923 27.9602 27.3977C27.8548 27.5032 27.7117 27.5625 27.5625 27.5625C27.4133 27.5625 27.2702 27.5032 27.1648 27.3977C27.0593 27.2923 27 27.1492 27 27ZM27.5625 20.4375C27.7117 20.4375 27.8548 20.4968 27.9602 20.6023C28.0657 20.7077 28.125 20.8508 28.125 21C28.125 21.1492 28.0657 21.2923 27.9602 21.3977C27.8548 21.5032 27.7117 21.5625 27.5625 21.5625C27.4133 21.5625 27.2702 21.5032 27.1648 21.3977C27.0593 21.2923 27 21.1492 27 21C27 20.8508 27.0593 20.7077 27.1648 20.6023C27.2702 20.4968 27.4133 20.4375 27.5625 20.4375Z" fill="#9CA3AF"/>
<path d="M18.6719 58.4929C18.6188 58.0223 18.4001 57.6577 18.0156 57.3991C17.6312 57.1373 17.1473 57.0064 16.5639 57.0064C16.1463 57.0064 15.785 57.0727 15.4801 57.2053C15.1752 57.3345 14.9382 57.5135 14.7692 57.7422C14.6035 57.9676 14.5206 58.2244 14.5206 58.5128C14.5206 58.7547 14.5769 58.9635 14.6896 59.1392C14.8056 59.3149 14.9564 59.4624 15.142 59.5817C15.331 59.6977 15.5331 59.7955 15.7486 59.875C15.964 59.9512 16.1712 60.0142 16.37 60.0639L17.3643 60.3224C17.6892 60.402 18.0223 60.5097 18.3636 60.6456C18.705 60.7815 19.0215 60.9605 19.3132 61.1825C19.6049 61.4046 19.8402 61.6797 20.0192 62.0078C20.2015 62.3359 20.2926 62.7287 20.2926 63.1861C20.2926 63.7628 20.1435 64.2749 19.8452 64.7223C19.5502 65.1697 19.121 65.5227 18.5575 65.7812C17.9974 66.0398 17.3196 66.169 16.5241 66.169C15.7618 66.169 15.1023 66.0481 14.5455 65.8061C13.9886 65.5642 13.5528 65.2211 13.2379 64.777C12.9231 64.3295 12.7491 63.7992 12.7159 63.1861H14.2571C14.2869 63.554 14.4063 63.8606 14.6151 64.1058C14.8272 64.3478 15.0973 64.5284 15.4254 64.6477C15.7569 64.7637 16.1198 64.8217 16.5142 64.8217C16.9484 64.8217 17.3345 64.7538 17.6726 64.6179C18.014 64.4787 18.2824 64.2865 18.478 64.0412C18.6735 63.7926 18.7713 63.5026 18.7713 63.1712C18.7713 62.8696 18.6851 62.6226 18.5128 62.4304C18.3438 62.2382 18.1134 62.0791 17.8217 61.9531C17.5334 61.8272 17.2069 61.7161 16.8423 61.62L15.6392 61.2919C14.8239 61.0698 14.1776 60.7434 13.7003 60.3125C13.2263 59.8816 12.9893 59.3116 12.9893 58.6023C12.9893 58.0156 13.1484 57.5036 13.4666 57.0661C13.7848 56.6286 14.2157 56.2888 14.7592 56.0469C15.3028 55.8016 15.916 55.679 16.5987 55.679C17.2881 55.679 17.8963 55.8 18.4233 56.0419C18.9536 56.2839 19.3712 56.617 19.6761 57.0412C19.9811 57.4621 20.1402 57.946 20.1534 58.4929H18.6719ZM25.3002 66.1541C24.5479 66.1541 23.8999 65.9934 23.3564 65.6719C22.8161 65.3471 22.3985 64.8913 22.1035 64.3047C21.8118 63.7147 21.666 63.0237 21.666 62.2315C21.666 61.4493 21.8118 60.7599 22.1035 60.1634C22.3985 59.5668 22.8095 59.1011 23.3365 58.7663C23.8668 58.4316 24.4866 58.2642 25.1958 58.2642C25.6267 58.2642 26.0443 58.3355 26.4487 58.478C26.853 58.6205 27.216 58.8442 27.5375 59.1491C27.859 59.4541 28.1125 59.8501 28.2981 60.3374C28.4837 60.8213 28.5765 61.4096 28.5765 62.1023V62.6293H22.5062V61.5156H27.1199C27.1199 61.1245 27.0403 60.7782 26.8812 60.4766C26.7221 60.1716 26.4984 59.9313 26.21 59.7557C25.925 59.58 25.5903 59.4922 25.2058 59.4922C24.7882 59.4922 24.4236 59.5949 24.112 59.8004C23.8038 60.0026 23.5652 60.2678 23.3961 60.5959C23.2304 60.9207 23.1475 61.2737 23.1475 61.6548V62.5249C23.1475 63.0353 23.237 63.4695 23.416 63.8274C23.5983 64.1854 23.8519 64.4588 24.1767 64.6477C24.5015 64.8333 24.881 64.9261 25.3152 64.9261C25.5969 64.9261 25.8538 64.8864 26.0858 64.8068C26.3178 64.724 26.5183 64.6013 26.6873 64.4389C26.8564 64.2765 26.9856 64.076 27.0751 63.8374L28.4821 64.0909C28.3694 64.5052 28.1672 64.8681 27.8755 65.1797C27.5872 65.4879 27.2243 65.7282 26.7868 65.9006C26.3526 66.0696 25.8571 66.1541 25.3002 66.1541ZM31.7124 55.8182V66H30.2259V55.8182H31.7124ZM37.3464 58.3636V59.5568H33.0311V58.3636H37.3464ZM34.2143 66V57.4787C34.2143 57.0014 34.3187 56.6053 34.5275 56.2905C34.7363 55.9723 35.0131 55.7353 35.3578 55.5795C35.7025 55.4205 36.077 55.3409 36.4814 55.3409C36.7797 55.3409 37.0349 55.3658 37.247 55.4155C37.4591 55.4619 37.6165 55.505 37.7193 55.5447L37.3713 56.7479C37.3017 56.728 37.2122 56.7048 37.1028 56.6783C36.9934 56.6484 36.8609 56.6335 36.7051 56.6335C36.3438 56.6335 36.0853 56.723 35.9295 56.902C35.777 57.081 35.7008 57.3395 35.7008 57.6776V66H34.2143ZM43.024 61.0533V62.3409H38.5098V61.0533H43.024ZM45.1245 66V55.8182H46.6607V60.2429H51.7367V55.8182H53.2779V66H51.7367V61.5604H46.6607V66H45.1245ZM58.6124 66.1541C57.8965 66.1541 57.2717 65.9901 56.7381 65.6619C56.2045 65.3338 55.7902 64.8748 55.4952 64.2848C55.2002 63.6948 55.0527 63.0054 55.0527 62.2166C55.0527 61.4245 55.2002 60.7318 55.4952 60.1385C55.7902 59.5452 56.2045 59.0845 56.7381 58.7564C57.2717 58.4283 57.8965 58.2642 58.6124 58.2642C59.3283 58.2642 59.9531 58.4283 60.4867 58.7564C61.0203 59.0845 61.4346 59.5452 61.7296 60.1385C62.0246 60.7318 62.1721 61.4245 62.1721 62.2166C62.1721 63.0054 62.0246 63.6948 61.7296 64.2848C61.4346 64.8748 61.0203 65.3338 60.4867 65.6619C59.9531 65.9901 59.3283 66.1541 58.6124 66.1541ZM58.6174 64.9062C59.0814 64.9062 59.4659 64.7836 59.7708 64.5384C60.0757 64.2931 60.3011 63.9666 60.4469 63.5589C60.5961 63.1513 60.6706 62.7022 60.6706 62.2116C60.6706 61.7244 60.5961 61.277 60.4469 60.8693C60.3011 60.4583 60.0757 60.1286 59.7708 59.88C59.4659 59.6314 59.0814 59.5071 58.6174 59.5071C58.15 59.5071 57.7623 59.6314 57.454 59.88C57.1491 60.1286 56.9221 60.4583 56.7729 60.8693C56.6271 61.277 56.5542 61.7244 56.5542 62.2116C56.5542 62.7022 56.6271 63.1513 56.7729 63.5589C56.9221 63.9666 57.1491 64.2931 57.454 64.5384C57.7623 64.7836 58.15 64.9062 58.6174 64.9062ZM69.5536 60.228L68.2063 60.4666C68.15 60.2943 68.0605 60.1302 67.9379 59.9744C67.8185 59.8187 67.6561 59.6911 67.4506 59.5916C67.2451 59.4922 66.9883 59.4425 66.68 59.4425C66.2591 59.4425 65.9078 59.5369 65.6261 59.7259C65.3443 59.9115 65.2035 60.1518 65.2035 60.4467C65.2035 60.7019 65.2979 60.9074 65.4869 61.0632C65.6758 61.219 65.9807 61.3466 66.4016 61.446L67.6147 61.7244C68.3174 61.8868 68.841 62.1371 69.1857 62.4751C69.5304 62.8132 69.7028 63.2524 69.7028 63.7926C69.7028 64.25 69.5702 64.6577 69.305 65.0156C69.0432 65.3703 68.677 65.6487 68.2063 65.8509C67.739 66.053 67.1971 66.1541 66.5806 66.1541C65.7255 66.1541 65.0278 65.9718 64.4876 65.6072C63.9473 65.2393 63.6159 64.7173 63.4933 64.0412L64.93 63.8224C65.0195 64.197 65.2035 64.4804 65.4819 64.6726C65.7603 64.8615 66.1232 64.956 66.5707 64.956C67.0579 64.956 67.4473 64.8549 67.739 64.6527C68.0307 64.4472 68.1765 64.197 68.1765 63.902C68.1765 63.6634 68.087 63.4628 67.908 63.3004C67.7324 63.138 67.4622 63.0154 67.0977 62.9325L65.805 62.6491C65.0924 62.4867 64.5655 62.2282 64.2241 61.8736C63.886 61.5189 63.717 61.0698 63.717 60.5263C63.717 60.0755 63.8429 59.6811 64.0948 59.343C64.3467 59.005 64.6947 58.7415 65.1388 58.5526C65.583 58.3603 66.0917 58.2642 66.6651 58.2642C67.4904 58.2642 68.14 58.4432 68.614 58.8011C69.088 59.1558 69.4012 59.6314 69.5536 60.228ZM74.9018 58.3636V59.5568H70.7306V58.3636H74.9018ZM71.8493 56.5341H73.3358V63.7578C73.3358 64.0462 73.3788 64.2633 73.465 64.4091C73.5512 64.5516 73.6622 64.6494 73.7981 64.7024C73.9373 64.7521 74.0881 64.777 74.2505 64.777C74.3699 64.777 74.4743 64.7687 74.5637 64.7521C74.6532 64.7356 74.7228 64.7223 74.7725 64.7124L75.041 65.9403C74.9548 65.9735 74.8322 66.0066 74.6731 66.0398C74.514 66.0762 74.3152 66.0961 74.0765 66.0994C73.6854 66.1061 73.3208 66.0365 72.9828 65.8906C72.6447 65.7448 72.3713 65.5194 72.1625 65.2145C71.9537 64.9096 71.8493 64.5268 71.8493 64.0661V56.5341ZM79.7553 66.1541C79.003 66.1541 78.355 65.9934 77.8114 65.6719C77.2712 65.3471 76.8536 64.8913 76.5586 64.3047C76.2669 63.7147 76.1211 63.0237 76.1211 62.2315C76.1211 61.4493 76.2669 60.7599 76.5586 60.1634C76.8536 59.5668 77.2646 59.1011 77.7915 58.7663C78.3219 58.4316 78.9416 58.2642 79.6509 58.2642C80.0818 58.2642 80.4994 58.3355 80.9038 58.478C81.3081 58.6205 81.671 58.8442 81.9925 59.1491C82.314 59.4541 82.5676 59.8501 82.7532 60.3374C82.9388 60.8213 83.0316 61.4096 83.0316 62.1023V62.6293H76.9613V61.5156H81.5749C81.5749 61.1245 81.4954 60.7782 81.3363 60.4766C81.1772 60.1716 80.9535 59.9313 80.6651 59.7557C80.3801 59.58 80.0453 59.4922 79.6609 59.4922C79.2433 59.4922 78.8787 59.5949 78.5671 59.8004C78.2589 60.0026 78.0202 60.2678 77.8512 60.5959C77.6855 60.9207 77.6026 61.2737 77.6026 61.6548V62.5249C77.6026 63.0353 77.6921 63.4695 77.8711 63.8274C78.0534 64.1854 78.3069 64.4588 78.6317 64.6477C78.9566 64.8333 79.3361 64.9261 79.7702 64.9261C80.052 64.9261 80.3088 64.8864 80.5408 64.8068C80.7728 64.724 80.9734 64.6013 81.1424 64.4389C81.3114 64.2765 81.4407 64.076 81.5302 63.8374L82.9371 64.0909C82.8245 64.5052 82.6223 64.8681 82.3306 65.1797C82.0423 65.4879 81.6793 65.7282 81.2418 65.9006C80.8076 66.0696 80.3121 66.1541 79.7553 66.1541ZM87.5396 66.1491C86.9231 66.1491 86.3729 65.9917 85.889 65.6768C85.4084 65.3587 85.0306 64.9062 84.7555 64.3196C84.4837 63.7296 84.3478 63.022 84.3478 62.1967C84.3478 61.3714 84.4854 60.6655 84.7605 60.0788C85.0389 59.4922 85.42 59.0431 85.9039 58.7315C86.3878 58.42 86.9364 58.2642 87.5495 58.2642C88.0235 58.2642 88.4047 58.3438 88.693 58.5028C88.9847 58.6586 89.21 58.8409 89.3691 59.0497C89.5315 59.2585 89.6575 59.4425 89.747 59.6016H89.8365V55.8182H91.323V66H89.8713V64.8118H89.747C89.6575 64.9742 89.5282 65.1598 89.3592 65.3686C89.1935 65.5774 88.9648 65.7597 88.6731 65.9155C88.3815 66.0713 88.0036 66.1491 87.5396 66.1491ZM87.8677 64.8814C88.2953 64.8814 88.6565 64.7687 88.9515 64.5433C89.2498 64.3146 89.4752 63.9981 89.6277 63.5938C89.7834 63.1894 89.8613 62.7187 89.8613 62.1818C89.8613 61.6515 89.7851 61.1875 89.6326 60.7898C89.4802 60.392 89.2565 60.0821 88.9615 59.8601C88.6665 59.638 88.3019 59.527 87.8677 59.527C87.4203 59.527 87.0474 59.643 86.7491 59.875C86.4508 60.107 86.2254 60.4235 86.073 60.8246C85.9238 61.2256 85.8493 61.678 85.8493 62.1818C85.8493 62.6922 85.9255 63.1513 86.0779 63.5589C86.2304 63.9666 86.4558 64.2898 86.7541 64.5284C87.0557 64.7637 87.4269 64.8814 87.8677 64.8814ZM97.269 55.8182H99.1333L102.375 63.733H102.494L105.736 55.8182H107.6V66H106.138V58.6321H106.044L103.041 65.9851H101.828L98.8251 58.6271H98.7306V66H97.269V55.8182ZM112.931 66.1541C112.215 66.1541 111.59 65.9901 111.056 65.6619C110.523 65.3338 110.109 64.8748 109.814 64.2848C109.519 63.6948 109.371 63.0054 109.371 62.2166C109.371 61.4245 109.519 60.7318 109.814 60.1385C110.109 59.5452 110.523 59.0845 111.056 58.7564C111.59 58.4283 112.215 58.2642 112.931 58.2642C113.647 58.2642 114.271 58.4283 114.805 58.7564C115.339 59.0845 115.753 59.5452 116.048 60.1385C116.343 60.7318 116.49 61.4245 116.49 62.2166C116.49 63.0054 116.343 63.6948 116.048 64.2848C115.753 64.8748 115.339 65.3338 114.805 65.6619C114.271 65.9901 113.647 66.1541 112.931 66.1541ZM112.936 64.9062C113.4 64.9062 113.784 64.7836 114.089 64.5384C114.394 64.2931 114.619 63.9666 114.765 63.5589C114.914 63.1513 114.989 62.7022 114.989 62.2116C114.989 61.7244 114.914 61.277 114.765 60.8693C114.619 60.4583 114.394 60.1286 114.089 59.88C113.784 59.6314 113.4 59.5071 112.936 59.5071C112.468 59.5071 112.081 59.6314 111.772 59.88C111.467 60.1286 111.24 60.4583 111.091 60.8693C110.945 61.277 110.873 61.7244 110.873 62.2116C110.873 62.7022 110.945 63.1513 111.091 63.5589C111.24 63.9666 111.467 64.2931 111.772 64.5384C112.081 64.7836 112.468 64.9062 112.936 64.9062ZM121.008 66.1491C120.392 66.1491 119.842 65.9917 119.358 65.6768C118.877 65.3587 118.499 64.9062 118.224 64.3196C117.952 63.7296 117.817 63.022 117.817 62.1967C117.817 61.3714 117.954 60.6655 118.229 60.0788C118.508 59.4922 118.889 59.0431 119.373 58.7315C119.857 58.42 120.405 58.2642 121.018 58.2642C121.492 58.2642 121.873 58.3438 122.162 58.5028C122.453 58.6586 122.679 58.8409 122.838 59.0497C123 59.2585 123.126 59.4425 123.216 59.6016H123.305V55.8182H124.792V66H123.34V64.8118H123.216C123.126 64.9742 122.997 65.1598 122.828 65.3686C122.662 65.5774 122.434 65.7597 122.142 65.9155C121.85 66.0713 121.472 66.1491 121.008 66.1491ZM121.336 64.8814C121.764 64.8814 122.125 64.7687 122.42 64.5433C122.719 64.3146 122.944 63.9981 123.096 63.5938C123.252 63.1894 123.33 62.7187 123.33 62.1818C123.33 61.6515 123.254 61.1875 123.101 60.7898C122.949 60.392 122.725 60.0821 122.43 59.8601C122.135 59.638 121.771 59.527 121.336 59.527C120.889 59.527 120.516 59.643 120.218 59.875C119.92 60.107 119.694 60.4235 119.542 60.8246C119.393 61.2256 119.318 61.678 119.318 62.1818C119.318 62.6922 119.394 63.1513 119.547 63.5589C119.699 63.9666 119.925 64.2898 120.223 64.5284C120.524 64.7637 120.896 64.8814 121.336 64.8814ZM130.205 66.1541C129.452 66.1541 128.804 65.9934 128.261 65.6719C127.72 65.3471 127.303 64.8913 127.008 64.3047C126.716 63.7147 126.57 63.0237 126.57 62.2315C126.57 61.4493 126.716 60.7599 127.008 60.1634C127.303 59.5668 127.714 59.1011 128.241 58.7663C128.771 58.4316 129.391 58.2642 130.1 58.2642C130.531 58.2642 130.949 58.3355 131.353 58.478C131.757 58.6205 132.12 58.8442 132.442 59.1491C132.763 59.4541 133.017 59.8501 133.202 60.3374C133.388 60.8213 133.481 61.4096 133.481 62.1023V62.6293H127.411V61.5156H132.024C132.024 61.1245 131.945 60.7782 131.786 60.4766C131.626 60.1716 131.403 59.9313 131.114 59.7557C130.829 59.58 130.495 59.4922 130.11 59.4922C129.692 59.4922 129.328 59.5949 129.016 59.8004C128.708 60.0026 128.469 60.2678 128.3 60.5959C128.135 60.9207 128.052 61.2737 128.052 61.6548V62.5249C128.052 63.0353 128.141 63.4695 128.32 63.8274C128.503 64.1854 128.756 64.4588 129.081 64.6477C129.406 64.8333 129.785 64.9261 130.219 64.9261C130.501 64.9261 130.758 64.8864 130.99 64.8068C131.222 64.724 131.423 64.6013 131.592 64.4389C131.761 64.2765 131.89 64.076 131.979 63.8374L133.386 64.0909C133.274 64.5052 133.071 64.8681 132.78 65.1797C132.491 65.4879 132.129 65.7282 131.691 65.9006C131.257 66.0696 130.761 66.1541 130.205 66.1541ZM136.617 55.8182V66H135.13V55.8182H136.617Z" fill="white"/>
</svg>
