<svg width="68" height="68" viewBox="0 0 68 68" fill="none" xmlns="http://www.w3.org/2000/svg">
<rect width="68" height="68" rx="8" fill="white" fill-opacity="0.51"/>
<path d="M28.873 28.6423C27.8489 28.6423 26.9793 29.3601 26.2515 30.458C25.2224 32.0093 24.5923 34.3201 24.5923 36.5392C24.5923 37.4545 24.7934 38.1573 25.0563 38.5824L22.8463 40.0363C22.2788 39.0934 22 37.8563 22 36.4467C22 33.8833 22.7044 31.2116 24.044 29.1483C25.2324 27.3185 26.9476 26.0389 28.9147 26.0389L28.873 28.6423Z" fill="url(#paint0_linear_93_605)"/>
<path d="M24.0439 29.1483C25.2324 27.3185 26.9476 26.0389 28.9147 26.0389C30.054 26.0389 31.1865 26.3757 32.3692 27.3402C33.6628 28.3948 35.0416 30.1312 36.7617 32.993L37.3785 34.02C38.8674 36.4975 39.7145 37.7721 40.2103 38.3732C40.8479 39.1451 41.2945 39.3752 41.8745 39.3752C43.3459 39.3752 43.7132 38.0247 43.7132 36.4792L46 36.4075C46 38.0231 45.6812 39.2101 45.1387 40.148C44.6145 41.055 43.593 41.9611 41.8745 41.9611C40.8062 41.9611 39.8598 41.7293 38.8132 40.7432C38.0086 39.9863 37.068 38.6416 36.3444 37.4329L34.1919 33.8416C33.112 32.0393 32.1213 30.6955 31.5479 30.087C30.9311 29.4326 30.1383 28.6423 28.873 28.6423C27.8489 28.6423 26.9793 29.3601 26.2515 30.458L24.0439 29.1483Z" fill="url(#paint1_linear_93_605)"/>
<path d="M24.5923 36.5392C24.5923 37.4545 24.7934 38.1573 25.0563 38.5824C25.401 39.1393 25.9151 39.3752 26.4393 39.3752C27.1153 39.3752 27.7338 39.2076 28.9256 37.5612C29.8804 36.2416 31.0054 34.3893 31.7624 33.2281L33.0444 31.2607C33.9349 29.8944 34.9656 28.3756 36.1474 27.3461C37.1123 26.5058 38.153 26.0389 39.2004 26.0389C40.9589 26.0389 42.634 27.0568 43.916 28.9658C45.3189 31.0565 46 33.6899 46 36.4075C46 38.0231 45.6812 39.2101 45.1387 40.148C44.6146 41.055 43.593 41.9611 41.8745 41.9611V39.3752C43.3459 39.3752 43.7132 38.0247 43.7132 36.4792C43.7132 34.2768 43.199 31.8326 42.0665 30.0862C41.2628 28.8474 40.2212 28.0905 39.0753 28.0905C37.8359 28.0905 36.8385 29.0241 35.7176 30.6889C35.1217 31.5734 34.5099 32.6512 33.8231 33.8675L33.0669 35.2054C31.5479 37.8955 31.1632 38.5082 30.4037 39.5194C29.0725 41.29 27.9357 41.9611 26.4393 41.9611C24.6641 41.9611 23.5415 41.1933 22.8463 40.0363C22.2788 39.0934 22 37.8563 22 36.4467L24.5923 36.5392Z" fill="#0081FB"/>
<defs>
<linearGradient id="paint0_linear_93_605" x1="25.7557" y1="37.6263" x2="25.7557" y2="31.5408" gradientUnits="userSpaceOnUse">
<stop stop-color="#0082FB"/>
<stop offset="1" stop-color="#0064E0"/>
</linearGradient>
<linearGradient id="paint1_linear_93_605" x1="27.0911" y1="35.7923" x2="43.6162" y2="36.6279" gradientUnits="userSpaceOnUse">
<stop stop-color="#0064E1"/>
<stop offset="0.4" stop-color="#0064E1"/>
<stop offset="0.83" stop-color="#0073EE"/>
<stop offset="1" stop-color="#0082FB"/>
</linearGradient>
</defs>
</svg>
