<svg width="329" height="320" viewBox="0 0 329 320" fill="none" xmlns="http://www.w3.org/2000/svg">
<path d="M298.05 235.022L155.242 317.491C151.414 319.678 145.253 319.678 141.461 317.454L49.7677 264.188C45.9757 261.964 45.9767 258.428 49.8047 256.204L65.1537 247.345L144.706 293.537C148.498 295.761 154.659 295.761 158.487 293.574L285.909 220.001L298.05 227.037C301.842 229.261 301.842 232.835 298.05 235.022Z" fill="#F3F4F6"/>
<path d="M50.1914 236.304L50.2244 247.624C50.2244 249.053 51.1654 250.483 53.0494 251.587L144.764 304.881C148.531 307.089 154.734 307.089 158.534 304.881L301.335 222.455C303.251 221.318 304.193 219.89 304.193 218.428L304.16 207.107C304.16 208.569 303.218 209.998 301.302 211.102L158.502 293.561C154.67 295.769 148.499 295.769 144.699 293.561L53.0174 240.266C51.1334 239.162 50.1914 237.733 50.1914 236.304Z" fill="#111827"/>
<path d="M176.206 161.194L196.039 149.746C199.867 147.631 205.919 147.667 209.638 149.855L301.331 203.121C305.123 205.345 305.122 208.917 301.294 211.105L285.909 220.001L158.487 293.574C154.659 295.762 148.498 295.761 144.706 293.537L65.1541 247.345L53.0131 240.272C49.2211 238.048 49.2581 234.511 53.0501 232.287C53.1231 232.251 53.1591 232.214 53.2321 232.178L95.2681 207.897" stroke="#111827" stroke-width="1.823" stroke-linecap="round" stroke-linejoin="round"/>
<path d="M144.764 304.881C148.531 307.089 154.734 307.089 158.534 304.881L301.335 222.455C303.251 221.318 304.193 219.89 304.193 218.428L304.16 207.107C304.16 208.569 303.218 209.998 301.302 211.102L158.502 293.561C154.67 295.769 148.499 295.769 144.699 293.561L144.764 304.881Z" fill="#9CA3AF"/>
<path d="M193.03 284.969L263.161 244.489" stroke="#111827" stroke-width="1.823" stroke-linecap="round" stroke-linejoin="round"/>
<path d="M277.636 236.134L301.335 222.455C303.251 221.318 304.193 219.89 304.193 218.428L304.16 207.107C304.16 208.569 303.218 209.998 301.302 211.102L158.502 293.561C154.67 295.769 148.499 295.769 144.699 293.561L53.0174 240.266C51.1334 239.162 50.1914 237.733 50.1914 236.304L50.2244 247.624C50.2244 249.053 51.1654 250.483 53.0494 251.587L144.764 304.881C148.531 307.089 154.734 307.089 158.534 304.881L186.662 288.645" stroke="#111827" stroke-width="1.823" stroke-linecap="round" stroke-linejoin="round"/>
<path d="M101.065 71.3967L95.0499 85.9067L52.8669 110.261C49.0389 112.448 45.9769 117.808 45.9769 122.183L46.2679 228.241C46.3039 230.428 47.0699 231.959 48.3099 232.652L38.7939 227.11C37.5539 226.417 36.7529 224.886 36.7529 222.699L36.4609 116.678C36.4609 112.267 39.5239 106.907 43.3519 104.72L101.065 71.3967Z" fill="#9CA3AF"/>
<path d="M200.596 27.3546C199.357 26.5896 197.607 26.6986 195.675 27.8286L147.768 55.5006L141.643 47.9906L186.159 22.2876C188.091 21.1936 189.805 21.0476 191.081 21.8136L200.596 27.3546Z" fill="#9CA3AF"/>
<path d="M36.6426 172.095L36.7526 222.699C36.7526 224.887 37.5536 226.417 38.7936 227.11L47.9086 232.397" stroke="#111827" stroke-width="1.823" stroke-linecap="round" stroke-linejoin="round"/>
<path d="M95.0496 85.9067L52.8666 110.261C52.1736 110.699 51.4816 111.21 50.8256 111.793C50.4976 112.085 50.1696 112.413 49.8776 112.741C49.5856 113.069 49.2946 113.433 49.0026 113.834V113.871C48.2736 114.855 47.6526 115.949 47.1426 117.079C46.4136 118.756 45.9766 120.542 45.9766 122.183L46.2676 228.241C46.2676 229.043 46.3766 229.808 46.5956 230.428C46.6686 230.647 46.7786 230.829 46.8516 231.011C47.1066 231.594 47.4706 232.069 47.9086 232.397C49.1486 233.381 50.9716 233.417 53.0496 232.287C53.1226 232.251 53.1586 232.214 53.2316 232.178L95.2676 207.897" stroke="#111827" stroke-width="1.823" stroke-linecap="round" stroke-linejoin="round"/>
<path d="M147.768 55.5006L195.675 27.8286C197.17 26.9536 198.555 26.6986 199.649 26.9906C199.795 26.9906 199.904 27.0266 200.013 27.0996C200.195 27.1356 200.378 27.2096 200.524 27.3186" stroke="#111827" stroke-width="1.823" stroke-linecap="round" stroke-linejoin="round"/>
<path d="M101.065 71.3967L66.4658 91.3757" stroke="#111827" stroke-width="1.823" stroke-linecap="round" stroke-linejoin="round"/>
<path d="M141.643 47.9907L186.159 22.2867C188.091 21.1927 189.805 21.0467 191.081 21.8127L200.341 27.2087C200.377 27.2447 200.451 27.2827 200.524 27.3187C201.8 28.0117 202.602 29.5427 202.602 31.7667L202.893 137.824C202.929 142.199 199.831 147.522 196.039 149.746L176.206 161.194" stroke="#111827" stroke-width="1.823" stroke-linecap="round" stroke-linejoin="round"/>
<path d="M36.5968 160.257L36.4768 116.667C36.4438 112.283 39.5298 106.923 43.3618 104.715L57.3368 96.6487" stroke="#111827" stroke-width="1.823" stroke-linecap="round" stroke-linejoin="round"/>
<path d="M176.206 161.194L196.039 149.746C199.831 147.522 202.929 142.199 202.893 137.824L202.602 31.7666C202.602 29.5426 201.8 28.0116 200.524 27.3186C200.451 27.2826 200.377 27.2446 200.341 27.2086C200.232 27.1726 200.122 27.1356 200.013 27.0996C199.904 27.0266 199.795 27.0266 199.649 26.9906C198.555 26.6986 197.17 26.9536 195.675 27.8286L147.768 55.5006" stroke="#111827" stroke-width="1.823" stroke-linecap="round" stroke-linejoin="round"/>
<path d="M95.2676 207.897L53.2316 232.178C53.1586 232.214 53.1226 232.251 53.0496 232.287C50.9716 233.417 49.1486 233.381 47.9086 232.397C47.4706 232.069 47.1066 231.594 46.8516 231.011C46.7786 230.829 46.6686 230.647 46.5956 230.428C46.4136 229.808 46.3046 229.043 46.3046 228.241L45.9766 122.183C45.9766 120.542 46.4136 118.756 47.1426 117.079C47.6526 115.949 48.2736 114.855 49.0026 113.871V113.834C49.2946 113.433 49.5856 113.069 49.8776 112.741C50.2056 112.413 50.4976 112.085 50.8256 111.793C51.4816 111.21 52.1736 110.699 52.8666 110.261L95.0496 85.9067" stroke="#111827" stroke-width="1.823" stroke-linecap="round" stroke-linejoin="round"/>
<path d="M161.575 248.466L223.426 212.756L252.405 229.596L190.553 265.306L161.575 248.466Z" fill="#F3F4F6"/>
<path d="M161.575 248.466L223.426 212.756L252.405 229.596L190.553 265.306L161.575 248.466Z" fill="#F3F4F6"/>
<path d="M202.908 258.173L190.553 265.306L161.575 248.466L223.426 212.756L252.405 229.596L202.908 258.173Z" fill="#F3F4F6"/>
<path d="M238.543 221.541L252.405 229.596L212.242 252.784" stroke="#111827" stroke-width="1.823" stroke-linecap="round" stroke-linejoin="round"/>
<path d="M202.908 258.173L190.553 265.306L161.575 248.466L223.426 212.756L230.794 217.037" stroke="#111827" stroke-width="1.823" stroke-linecap="round" stroke-linejoin="round"/>
<path d="M196.258 93.8547L196.112 35.0837L151.925 60.6047" stroke="#111827" stroke-width="1.823" stroke-linecap="round" stroke-linejoin="round"/>
<path d="M52.5755 140.558L52.5025 122.183C52.4665 120.105 54.3255 116.933 56.1115 115.876L90.9295 95.7866" stroke="#111827" stroke-width="1.823" stroke-linecap="round" stroke-linejoin="round"/>
<path d="M52.6484 156.636L52.7934 224.923L91.2204 202.756" stroke="#111827" stroke-width="1.823" stroke-linecap="round" stroke-linejoin="round"/>
<path d="M172.194 155.98L192.793 144.095C194.579 143.074 196.403 139.902 196.403 137.824L196.257 104.537" stroke="#111827" stroke-width="1.823" stroke-linecap="round" stroke-linejoin="round"/>
<path d="M89.543 201.283L170.332 154.333C175.11 158.192 177.97 163.146 178.911 169.192L98.122 216.141C97.181 210.095 94.321 205.142 89.543 201.283Z" stroke="#111827" stroke-width="1.823" stroke-linecap="round" stroke-linejoin="round"/>
<path d="M89.543 201.283C94.321 205.142 97.181 210.095 98.122 216.141L86.957 212.63L89.543 201.283Z" fill="#111827"/>
<path d="M89.543 201.283C94.321 205.142 97.181 210.095 98.122 216.141L86.957 212.63L89.543 201.283Z" stroke="#111827" stroke-width="1.823" stroke-linecap="round" stroke-linejoin="round"/>
<path d="M130.925 34.9017C130.342 34.5737 129.576 34.6837 128.81 35.1207C127.862 35.7037 126.914 36.7247 126.331 38.0737L116.086 62.7557L110.034 77.2297L83.4193 141.287C82.6533 143.146 82.9463 144.678 83.8573 145.225L74.6333 139.866C73.7223 139.356 73.4303 137.787 74.2323 135.928L95.0503 85.9067L101.065 71.3967L117.143 32.7507C117.726 31.4017 118.675 30.3447 119.623 29.7977C120.388 29.3607 121.154 29.2147 121.737 29.5427L130.925 34.9017Z" stroke="#111827" stroke-width="1.823" stroke-linecap="round" stroke-linejoin="round"/>
<path d="M135.596 116.319L85.8997 145.006C83.6027 146.318 82.1797 144.204 83.4197 141.251L110.071 77.2296L116.123 62.7196L126.368 38.1096C126.915 36.7246 127.863 35.6676 128.811 35.1206C129.759 34.5736 130.707 34.5366 131.29 35.2296L141.644 47.9906L147.769 55.5006L174.676 88.5686C175.916 90.0996 174.529 93.8186 172.196 95.1676L146.945 109.763" stroke="#111827" stroke-width="1.823" stroke-linecap="round" stroke-linejoin="round"/>
<path d="M209.418 177.365L214.031 180.046" stroke="#111827" stroke-width="1.823" stroke-linecap="round" stroke-linejoin="round"/>
<path d="M196.645 175.744L201.653 172.853L205.994 175.376" stroke="#111827" stroke-width="1.823" stroke-linecap="round" stroke-linejoin="round"/>
<path d="M276.184 59.3433C276.184 59.3433 277.37 60.0253 279.262 61.1133" stroke="#111827" stroke-width="1.823" stroke-linecap="round" stroke-linejoin="round"/>
<path d="M254.448 46.8423C254.448 46.8423 255.095 47.2143 256.127 47.8083" stroke="#111827" stroke-width="1.823" stroke-linecap="round" stroke-linejoin="round"/>
<path d="M293.813 81.3074C293.813 81.3074 294.276 81.5734 295.014 81.9984" stroke="#111827" stroke-width="1.823" stroke-linecap="round" stroke-linejoin="round"/>
<path d="M254.448 58.6653C254.448 58.6653 255.863 59.4793 258.121 60.7783" stroke="#111827" stroke-width="1.823" stroke-linecap="round" stroke-linejoin="round"/>
<path d="M319.154 106.82L325.732 102.98C326.726 102.393 327.313 101.173 327.358 99.4571L327.448 48.2061C327.448 44.7291 325.009 40.4831 321.983 38.7671L287.051 18.5671" stroke="#111827" stroke-width="1.823" stroke-linecap="round" stroke-linejoin="round"/>
<path d="M280.188 14.5982L257.946 1.73623C256.411 0.878233 255.011 0.787229 254.017 1.37423L247.484 5.16923C248.477 4.62723 249.833 4.67323 251.368 5.57623L315.451 42.5622C318.477 44.3232 320.916 48.5242 320.916 52.0012L320.78 103.252C320.78 105.013 320.148 106.233 319.154 106.82" stroke="#111827" stroke-width="1.823" stroke-linecap="round" stroke-linejoin="round"/>
<path d="M315.276 106.43C318.304 108.178 320.762 106.743 320.772 103.264L320.895 52.0183C320.905 48.5393 318.463 44.3083 315.435 42.5603L251.366 5.57127C248.338 3.82327 245.88 5.22427 245.87 8.70328L245.747 59.9493C245.737 63.4283 248.18 67.6923 251.208 69.4403L295.361 94.9323" stroke="#111827" stroke-width="1.823" stroke-linecap="round" stroke-linejoin="round"/>
<path d="M301.492 98.4712L315.276 106.43" stroke="#111827" stroke-width="1.823" stroke-linecap="round" stroke-linejoin="round"/>
<g opacity="0.0279948">
<path d="M309.578 64.0212C309.898 64.5412 309.898 65.1412 309.578 65.3212C309.418 65.4112 309.208 65.3812 308.998 65.2612C308.788 65.1412 308.578 64.9312 308.418 64.6512L304.478 57.8112L300.498 60.0812C300.338 60.1712 300.128 60.1412 299.918 60.0212C299.708 59.9012 299.508 59.6912 299.368 59.4212C299.048 58.8812 299.048 58.2812 299.368 58.1312L303.348 55.8512L299.398 48.9912C299.078 48.4412 299.078 47.8712 299.398 47.6912C299.548 47.5912 299.748 47.6112 299.948 47.7312C300.158 47.8512 300.368 48.0712 300.528 48.3412L304.488 55.1912L308.458 52.9212C308.618 52.8312 308.828 52.8612 309.038 52.9812C309.248 53.1012 309.448 53.3112 309.608 53.5912C309.928 54.1312 309.928 54.7012 309.608 54.8812L305.618 57.1612L309.578 64.0212Z" fill="#7C3AED"/>
</g>
<path d="M266.698 30.1112L262.708 32.3812L266.678 39.2512C266.988 39.7712 266.988 40.3712 266.668 40.5512C266.508 40.6412 266.308 40.6112 266.108 40.5012C265.908 40.3812 265.698 40.1712 265.538 39.9012L261.578 33.0312L257.588 35.3012C257.438 35.4012 257.238 35.3812 257.028 35.2612C256.828 35.1412 256.618 34.9312 256.458 34.6512C256.138 34.1012 256.138 33.5012 256.458 33.3612L260.448 31.0812L256.488 24.2112C256.168 23.6612 256.168 23.1012 256.488 22.9212C256.648 22.8312 256.858 22.8512 257.068 22.9712C257.278 23.0912 257.478 23.3012 257.618 23.5712L261.588 30.4412L265.578 28.1612C265.738 28.0712 265.938 28.1012 266.138 28.2112C266.348 28.3312 266.548 28.5412 266.708 28.8112C267.018 29.3612 267.018 29.9312 266.698 30.1112Z" fill="#7C3AED"/>
<g opacity="0.970655">
<path d="M288.138 42.4911L284.158 44.7711L288.118 51.6311C288.428 52.1511 288.428 52.7411 288.108 52.9311C287.968 53.0311 287.758 53.0011 287.558 52.8811C287.348 52.7611 287.138 52.5511 286.978 52.2711L283.028 45.4211L279.058 47.7011C278.898 47.7911 278.688 47.7611 278.478 47.6411C278.268 47.5211 278.058 47.3011 277.898 47.0311C277.608 46.5011 277.608 45.9011 277.898 45.7311L281.888 43.4611L277.928 36.5911C277.638 36.0611 277.638 35.4911 277.928 35.2911C278.088 35.2011 278.298 35.2311 278.508 35.3511C278.718 35.4811 278.928 35.6911 279.088 35.9611L283.028 42.8111L287.018 40.5411C287.178 40.4511 287.388 40.4811 287.588 40.6011C287.798 40.7211 287.998 40.9211 288.148 41.1911C288.458 41.7411 288.458 42.3111 288.138 42.4911Z" fill="#7C3AED"/>
</g>
<path d="M229.591 100.67C229.591 103.183 227.58 105.25 225.011 105.25C222.498 105.25 220.431 103.183 220.431 100.67C220.431 98.1006 222.498 96.0896 225.011 96.0896C227.58 96.0896 229.591 98.1006 229.591 100.67Z" stroke="#F3F4F6" stroke-width="1.823" stroke-linecap="round" stroke-linejoin="round"/>
<path d="M9.30471 136.753L6.54394 148.734" stroke="#111827" stroke-width="1.823" stroke-linecap="round" stroke-linejoin="round"/>
<path d="M13.9146 144.124L1.93359 141.363" stroke="#111827" stroke-width="1.823" stroke-linecap="round" stroke-linejoin="round"/>
<path d="M244.118 293.713C244.118 296.286 242.06 298.4 239.431 298.4C236.858 298.4 234.743 296.286 234.743 293.713C234.743 291.083 236.858 289.025 239.431 289.025C242.06 289.025 244.118 291.083 244.118 293.713Z" fill="#7C3AED"/>
<path d="M179.367 229.873C150.453 246.567 123.298 262.245 123.298 262.245L78.6963 236.325L202.885 164.624L247.487 190.544C247.487 190.544 223.288 204.515 196.254 220.124" stroke="#111827" stroke-width="1.823" stroke-linecap="round" stroke-linejoin="round"/>
<path d="M129.049 56.6747C132.76 54.5317 135.668 56.3527 135.68 60.4947L135.649 61.6117L132.609 88.2627C132.575 88.8107 132.223 89.5837 131.623 90.3367C130.935 91.1817 130.034 91.9247 129.138 92.4427C128.241 92.9607 127.348 93.2527 126.675 93.1937C126.038 93.1547 125.683 92.7907 125.646 92.2827L125.61 92.1407L122.5 69.2027C121.886 64.9607 124.984 59.0217 129.049 56.6747Z" fill="#7C3AED"/>
<path d="M129.125 97.2658C131.564 95.8578 133.55 96.9898 133.558 99.7918C133.566 102.554 131.593 105.93 129.154 107.338C126.751 108.725 124.765 107.635 124.757 104.873C124.749 102.071 126.722 98.6528 129.125 97.2658Z" fill="#7C3AED"/>
<path d="M133.598 79.5917L132.609 88.2627C132.575 88.8107 132.223 89.5837 131.623 90.3367C130.935 91.1817 130.034 91.9247 129.138 92.4427C128.241 92.9607 127.348 93.2527 126.675 93.1937C126.038 93.1547 125.683 92.7907 125.646 92.2827L125.61 92.1407L122.5 69.2027C121.886 64.9607 124.984 59.0217 129.049 56.6747C132.76 54.5317 135.668 56.3527 135.68 60.4947L135.649 61.6117L134.614 70.6797" stroke="#111827" stroke-width="1.823" stroke-linecap="round" stroke-linejoin="round"/>
<path d="M129.125 97.2658C131.564 95.8578 133.55 96.9898 133.558 99.7918C133.566 102.554 131.593 105.93 129.154 107.338C126.751 108.725 124.765 107.635 124.757 104.873C124.749 102.071 126.722 98.6528 129.125 97.2658Z" stroke="#111827" stroke-width="1.823" stroke-linecap="round" stroke-linejoin="round"/>
</svg>
